<svg xmlns="http://www.w3.org/2000/svg" xmlns:xlink="http://www.w3.org/1999/xlink" width="123.001" height="123" viewBox="0 0 123.001 123">
  <defs>
    <linearGradient id="linear-gradient" x1="0.5" x2="0.5" y2="1" gradientUnits="objectBoundingBox">
      <stop offset="0" stop-color="#ddf1ff"/>
      <stop offset="1" stop-color="#fff"/>
    </linearGradient>
    <clipPath id="clip-path">
      <rect id="Rectángulo_403696" data-name="Rectángulo 403696" width="64.176" height="68.201" fill="#445866"/>
    </clipPath>
  </defs>
  <g id="img16" transform="translate(-264.668 -6026)">
    <g id="Grupo_1099808" data-name="Grupo 1099808" transform="translate(264.668 6026)">
      <g id="Grupo_1099775" data-name="Grupo 1099775" transform="translate(0 0)">
        <g id="Grupo_1099770" data-name="Grupo 1099770" transform="translate(0 0)">
          <rect id="Rectángulo_401345" data-name="Rectángulo 401345" width="104.839" height="104.839" transform="translate(9 9.16)" fill="url(#linear-gradient)"/>
          <path id="Sustracción_141" data-name="Sustracción 141" d="M106.183,123,0,106.181,16.822,0,123,16.819,106.183,123v0h0v0ZM23.2,8.788,8.783,99.8,99.8,114.212,114.214,23.2,23.2,8.788Z" transform="translate(0 0)" fill="#8ce2e5"/>
        </g>
      </g>
      <g id="Grupo_1122262" data-name="Grupo 1122262" transform="translate(29.412 27.399)">
        <g id="Grupo_1122261" data-name="Grupo 1122261" clip-path="url(#clip-path)">
          <path id="Trazado_912396" data-name="Trazado 912396" d="M42.756,42a1.033,1.033,0,0,0,.633-.134c1.593-.674,3.409-2.155,5.043-2.961,12.406-6.114,22.395,10.941,10.214,18.728-4.6,2.939-10.922,6.656-15.775,9.088-4.356,2.183-9.01,2.115-12.718-1.3-.568-.524-1.626-2.2-2.131-2.3l-20.779,0C3.4,62.872.778,60.774.2,56.879c.381-8.52-.578-17.585-.029-26.042C.5,25.881,5.83,21.892,8.151,17.7l.042-3.682a4.14,4.14,0,0,1-2.546-2.939,49.872,49.872,0,0,1-.016-7.649A3.828,3.828,0,0,1,9.458.1C18.119.069,25.249-.109,33.651.1a4.015,4.015,0,0,1,3.807,3.516c.167,1.409.186,6.907-.241,8.065-.495,1.341-2.37,2.3-2.438,2.5a19.279,19.279,0,0,0,.009,3.343c1.234,2.693,7.968,9.344,7.968,11.956ZM9.159,2.868c-.737.23-.917.685-.981,1.4A39.074,39.074,0,0,0,8.2,10.228a1.6,1.6,0,0,0,.83,1.213l24.451.079a1.5,1.5,0,0,0,1.238-.805c-.2-1.472.448-6.271-.127-7.3a2.048,2.048,0,0,0-.639-.553ZM32.2,14.241H10.911v4.172c0,.615-6.444,8.476-7.292,9.908a4.536,4.536,0,0,0-.712,1.928H40.031a3.031,3.031,0,0,0-.445-1.683l-6.708-8.959-12.99-.122a1.358,1.358,0,0,1-.627-2.258,6.591,6.591,0,0,1,.932-.431H32.2Zm8,18.562H2.907V52.387H28.026c2.763-4.408,8.052-5.95,12.176-8.77ZM50.785,58.835c.186.109.431-.034.608-.11a52.481,52.481,0,0,0,7.451-4.47,8.068,8.068,0,0,0-2.766-13.572c-5.235-1.7-8.75,2.52-13.151,4.384Zm-10.3-12.217c-3.128,2.136-8.24,3.656-10.082,7.128A7.969,7.969,0,0,0,40.536,64.9c2.671-1.084,5.425-3.241,8-4.608Zm-13.4,8.494H2.907A4.817,4.817,0,0,0,4.033,59.18,5.133,5.133,0,0,0,6.4,60.391H27.089a10.462,10.462,0,0,1,0-5.279" transform="translate(0 0)" fill="#445866"/>
          <path id="Trazado_912397" data-name="Trazado 912397" d="M92.427,215.252a1.42,1.42,0,0,1,2.258-1.11,4.037,4.037,0,0,1,.467.6v4.342h3.661c.06,0,1.077.283,1.16.331.874.5.4,2.394-.478,2.394H95.152v4.342a2.766,2.766,0,0,1-.683.848,1.455,1.455,0,0,1-2.042-1.359v-3.832H88.085c-.457,0-1-1.091-.911-1.577a1.78,1.78,0,0,1,1.422-1.148h3.832c.123-1.19-.168-2.684,0-3.832" transform="translate(-72.321 -177.425)" fill="#445866"/>
          <path id="Trazado_912398" data-name="Trazado 912398" d="M82.143,100.494a1.322,1.322,0,1,1-1.322-1.322,1.322,1.322,0,0,1,1.322,1.322" transform="translate(-65.961 -82.284)" fill="#445866"/>
        </g>
      </g>
    </g>
  </g>
</svg>
