<svg xmlns="http://www.w3.org/2000/svg" xmlns:xlink="http://www.w3.org/1999/xlink" width="123.001" height="123" viewBox="0 0 123.001 123">
  <defs>
    <linearGradient id="linear-gradient" x1="0.5" x2="0.5" y2="1" gradientUnits="objectBoundingBox">
      <stop offset="0" stop-color="#ddf1ff"/>
      <stop offset="1" stop-color="#fff"/>
    </linearGradient>
    <clipPath id="clip-path">
      <rect id="Rectángulo_403697" data-name="Rectángulo 403697" width="61.78" height="61.821" fill="#445866"/>
    </clipPath>
  </defs>
  <g id="img18" transform="translate(-264.668 -6026)">
    <g id="Grupo_1099808" data-name="Grupo 1099808" transform="translate(264.668 6026)">
      <g id="Grupo_1099775" data-name="Grupo 1099775" transform="translate(0 0)">
        <g id="Grupo_1099770" data-name="Grupo 1099770" transform="translate(0 0)">
          <rect id="Rectángulo_401345" data-name="Rectángulo 401345" width="104.839" height="104.839" transform="translate(9 9.16)" fill="url(#linear-gradient)"/>
          <path id="Sustracción_141" data-name="Sustracción 141" d="M106.183,123,0,106.181,16.822,0,123,16.819,106.183,123v0h0v0ZM23.2,8.788,8.783,99.8,99.8,114.212,114.214,23.2,23.2,8.788Z" transform="translate(0 0)" fill="#8ce2e5"/>
        </g>
      </g>
      <g id="Grupo_1122264" data-name="Grupo 1122264" transform="translate(30.61 30.589)">
        <g id="Grupo_1122263" data-name="Grupo 1122263" clip-path="url(#clip-path)">
          <path id="Trazado_912399" data-name="Trazado 912399" d="M3.63,2.491c-.913.136-1.093.778-1.163,1.613V57.631c.1,1.232.383,1.517,1.619,1.619l22.68-.01a1.252,1.252,0,0,1,.159,2.479l-23.918,0A3.4,3.4,0,0,1,0,58.71V3.179A3.433,3.433,0,0,1,2.235.17C13.72-.174,25.281.13,36.795.017l.834.246L48.357,10.971l.35.575.039,23.261c-.2,1.6-2.629,1.268-2.629-.315V13.287h-7.48a4.843,4.843,0,0,1-2.676-1.8,11.961,11.961,0,0,1-.485-1.212V2.491Zm40.637,8.174L37.944,4.342V9.508A1.712,1.712,0,0,0,39.1,10.665Z" transform="translate(0 0)" fill="#445866"/>
          <path id="Trazado_912400" data-name="Trazado 912400" d="M212,250.339a7.549,7.549,0,0,1,6.1,12.959c-4.6,4.4-12.426,1.426-12.729-4.939-2.28,1.716-4.351,5.076-6.9,6.282a7.579,7.579,0,0,1-10.786-8.164c.818-4.739,9.031-10.071,11.982-13.927A7.636,7.636,0,0,1,212,250.339m-3.756-5.5a5.071,5.071,0,0,0-6.68-.464c-1.089,1.345-3.082,2.676-4.064,4.03-.092.126-.22.169-.14.379l7.009,6.759c1.66-1.927,4.959-3.94,5.168-6.666a5.112,5.112,0,0,0-1.294-4.038m-12.183,6.168-.64-.508c-2.208,2.509-6.117,4.688-5.058,8.6a4.9,4.9,0,0,0,5.789,3.538c2.348-.341,4.515-3.646,6.252-5.124Zm15.476,2.1c-4.772,1.261-4.788,8.216,0,9.407Zm2.622,0v9.407c4.83-1.14,4.74-8.258,0-9.407" transform="translate(-158.631 -203.587)" fill="#445866"/>
          <path id="Trazado_912401" data-name="Trazado 912401" d="M114.749,218.179l21.4-.041a1.322,1.322,0,0,1,0,2.627l-21.138,0a1.332,1.332,0,0,1-.263-2.59" transform="translate(-96.275 -184.497)" fill="#445866"/>
          <path id="Trazado_912402" data-name="Trazado 912402" d="M114.756,262.244l12.6-.029c1.251.131,1.447,2.3.171,2.466l-12.8-.017c-1.273-.2-1.1-2.095.029-2.42" transform="translate(-96.282 -221.777)" fill="#445866"/>
          <path id="Trazado_912403" data-name="Trazado 912403" d="M50.707,217.86a28.176,28.176,0,0,1,4.562,0,1.354,1.354,0,0,1,.029,2.586,38.163,38.163,0,0,1-4.745-.028,1.4,1.4,0,0,1,.155-2.558" transform="translate(-42.109 -184.184)" fill="#445866"/>
          <path id="Trazado_912404" data-name="Trazado 912404" d="M50.569,261.952a39.609,39.609,0,0,1,4.871,0c1.051.307,1.146,2.223.028,2.431a40.945,40.945,0,0,1-5.053-.029c-.9-.259-.762-2.136.153-2.4" transform="translate(-42.126 -221.491)" fill="#445866"/>
          <path id="Trazado_912405" data-name="Trazado 912405" d="M50.542,305.849a31.2,31.2,0,0,1,4.869,0,1.268,1.268,0,0,1-.131,2.425,30.1,30.1,0,0,1-4.738-.023,1.322,1.322,0,0,1,0-2.4" transform="translate(-42.098 -258.601)" fill="#445866"/>
          <path id="Trazado_912406" data-name="Trazado 912406" d="M115.708,308.124c-1.187.981-3.08-.769-1.734-1.963s2.99.925,1.734,1.963" transform="translate(-96.005 -258.641)" fill="#445866"/>
          <path id="Trazado_912407" data-name="Trazado 912407" d="M109.868,68.054a10.7,10.7,0,1,1-10.7-10.7,10.7,10.7,0,0,1,10.7,10.7m-2.622,0a8.074,8.074,0,1,0-8.074,8.074,8.074,8.074,0,0,0,8.074-8.074" transform="translate(-74.823 -48.508)" fill="#445866"/>
          <path id="Trazado_912408" data-name="Trazado 912408" d="M127.95,94.418h3.47c.358,0,.924.815.975,1.2.274,2.072-3.245,1.291-4.446,1.423-.134,1.156.62,4.583-1.3,4.471-.326-.019-1.169-.518-1.169-.846V97.04h-3.624c-.37,0-.86-.887-.854-1.314.006-.385.495-1.308.854-1.308h3.624V90.794c0-.653,1.324-.837,1.848-.613a4.2,4.2,0,0,1,.619.613Z" transform="translate(-102.343 -76.196)" fill="#445866"/>
        </g>
      </g>
    </g>
  </g>
</svg>
