<svg xmlns="http://www.w3.org/2000/svg" xmlns:xlink="http://www.w3.org/1999/xlink" width="123.001" height="123" viewBox="0 0 123.001 123">
  <defs>
    <linearGradient id="linear-gradient" x1="0.5" x2="0.5" y2="1" gradientUnits="objectBoundingBox">
      <stop offset="0" stop-color="#ddf1ff"/>
      <stop offset="1" stop-color="#fff"/>
    </linearGradient>
    <clipPath id="clip-path">
      <rect id="Rectángulo_403695" data-name="Rectángulo 403695" width="62.229" height="68.882" fill="#445866"/>
    </clipPath>
  </defs>
  <g id="img15" transform="translate(-264.668 -6026)">
    <g id="Grupo_1099808" data-name="Grupo 1099808" transform="translate(264.668 6026)">
      <g id="Grupo_1099775" data-name="Grupo 1099775" transform="translate(0 0)">
        <g id="Grupo_1099770" data-name="Grupo 1099770" transform="translate(0 0)">
          <rect id="Rectángulo_401345" data-name="Rectángulo 401345" width="104.839" height="104.839" transform="translate(9 9.16)" fill="url(#linear-gradient)"/>
          <path id="Sustracción_141" data-name="Sustracción 141" d="M106.183,123,0,106.181,16.822,0,123,16.819,106.183,123v0h0v0ZM23.2,8.788,8.783,99.8,99.8,114.212,114.214,23.2,23.2,8.788Z" transform="translate(0 0)" fill="#8ce2e5"/>
        </g>
      </g>
      <g id="Grupo_1122260" data-name="Grupo 1122260" transform="translate(30.386 27.059)">
        <g id="Grupo_1122259" data-name="Grupo 1122259" clip-path="url(#clip-path)">
          <path id="Trazado_912392" data-name="Trazado 912392" d="M61.69,8.48A1.672,1.672,0,0,1,62.122,9.6c-.391,18.321,3.246,38.667-12.388,51.961C45.7,65,36.49,68.83,31.21,68.881c-3.617.035-11.582-2.752-14.788-4.6C-2.877,53.172.2,28.718.158,9.79A2.5,2.5,0,0,1,.581,8.472C.981,8.1,8.257,6.8,9.516,6.5A182.969,182.969,0,0,0,31.058,0,213.213,213.213,0,0,0,55.139,7.056c1.163.266,5.967.932,6.551,1.423M30.913,2.594c-1.182.132-4.434,1.59-5.861,2.035Q13.988,8.077,2.631,10.43c.091,7.663-.4,15.561-.09,23.2C3.2,50.058,11.927,63.233,28.718,66.1c3.88.662,8.478-.624,12.13-2.057C53.164,59.211,59.2,46.49,59.735,33.814c.325-7.692-.191-15.682-.089-23.384C52.1,8.865,44.6,6.934,37.225,4.629,36.013,4.25,31.774,2.5,30.913,2.594" transform="translate(-0.001)" fill="#445866"/>
          <path id="Trazado_912393" data-name="Trazado 912393" d="M80.851,43.78a188.842,188.842,0,0,1-22.463-6.386A201.479,201.479,0,0,1,35.805,43.78l-.016,19.5c1.12,12.528,6.928,22.507,19.823,25.26,3.589.766,6.152.018,9.543-1.205C74.643,83.908,79.581,74.77,80.683,65.11c.105-.922.061-4,.281-4.484a1.2,1.2,0,0,1,2.277.466,23.435,23.435,0,0,1-.174,4.019C81.689,78.7,73.178,89.722,59.107,91.363c-3.257.38-11.006-2.552-13.774-4.459C30.984,77.017,33.51,58.309,33.4,43.112a1.3,1.3,0,0,1,.958-1.425c2.538-.911,6.264-1.411,9.024-2.155,5.066-1.365,10.047-2.983,15.044-4.568a241.977,241.977,0,0,0,24.27,6.883c.769.486.685,3.505.549,4.378a1.256,1.256,0,0,1-1.459,1.129c-1.441-.4-.754-2.475-.931-3.575" transform="translate(-27.19 -28.557)" fill="#445866"/>
          <path id="Trazado_912394" data-name="Trazado 912394" d="M120.361,109.695c.3.083.607.672.651,1a62.925,62.925,0,0,1,0,9,2.028,2.028,0,0,1-.176.878,4.726,4.726,0,0,1-.84.488h-7.239v7.422c0,.564-.909.791-1.366.833a61.248,61.248,0,0,1-8.808-.005c-.416-.05-1.188-.369-1.188-.828v-7.422H94.155a4.733,4.733,0,0,1-.84-.488,2.028,2.028,0,0,1-.176-.878,62.9,62.9,0,0,1,0-9c.04-.3.42-1,.651-1h7.33a1.839,1.839,0,0,0,.275-.275v-7.33c0-.411,1.142-.8,1.549-.833a58.736,58.736,0,0,1,8.443,0c.369.044,1.37.521,1.37.829v7.33a1.839,1.839,0,0,0,.275.275Zm-9.988-6.048h-6.6v7.422c0,.319-.879,1.008-1.191,1.008H95.529v6.6h7.422a1.79,1.79,0,0,1,.825.825v7.422h6.6V119.5a1.79,1.79,0,0,1,.825-.825h7.422v-6.6h-7.056c-.312,0-1.191-.689-1.191-1.008Z" transform="translate(-75.937 -82.577)" fill="#445866"/>
          <path id="Trazado_912395" data-name="Trazado 912395" d="M294.5,118.023a2.7,2.7,0,0,1,.418,1.138,25.779,25.779,0,0,1-.016,4.208,1.2,1.2,0,0,1-2.367.189,30.59,30.59,0,0,1,.007-4.748,1.223,1.223,0,0,1,1.958-.787" transform="translate(-238.854 -96.172)" fill="#445866"/>
        </g>
      </g>
    </g>
  </g>
</svg>
