<svg xmlns="http://www.w3.org/2000/svg" xmlns:xlink="http://www.w3.org/1999/xlink" width="123.001" height="123" viewBox="0 0 123.001 123">
  <defs>
    <clipPath id="clip-path">
      <rect id="Rectángulo_403690" data-name="Rectángulo 403690" width="62.956" height="72.119" fill="#445866"/>
    </clipPath>
  </defs>
  <g id="img4" transform="translate(-264.668 -6026)">
    <g id="Grupo_1099808" data-name="Grupo 1099808" transform="translate(264.668 6026)">
      <g id="Grupo_1099775" data-name="Grupo 1099775" transform="translate(0 0)">
        <g id="Grupo_1099770" data-name="Grupo 1099770" transform="translate(0 0)">
          <rect id="Rectángulo_401345" data-name="Rectángulo 401345" width="104.839" height="104.839" transform="translate(9 9.16)" fill="#fff"/>
          <path id="Sustracción_141" data-name="Sustracción 141" d="M106.183,123,0,106.181,16.822,0,123,16.819,106.183,123v0h0v0ZM23.2,8.788,8.783,99.8,99.8,114.212,114.214,23.2,23.2,8.788Z" transform="translate(0 0)" fill="#6aa7d6"/>
        </g>
      </g>
      <g id="Grupo_1122254" data-name="Grupo 1122254" transform="translate(30.504 25.441)">
        <g id="Grupo_1122253" data-name="Grupo 1122253" clip-path="url(#clip-path)">
          <path id="Trazado_912371" data-name="Trazado 912371" d="M30.506.03,32.417,0c9.018,3.291,17.823,7.252,26.671,11,3.531,2.155,3.618,7.7,3.793,11.474.887,19.168-6.014,38.188-23.8,47.2-4.557,2.31-6.924,3.376-11.953,1.436C5.767,62.874-2.881,37.5.837,16.161a6.947,6.947,0,0,1,4.205-5.708C13.033,6.514,22.306,3.61,30.506.03m.973,2.405a12.587,12.587,0,0,0-1.326.218c-7.64,3.858-16.8,6.291-24.32,10.178-1.932,1-2.294,2.288-2.614,4.326C.092,37.056,7.362,59.391,26.546,68.127c4.685,2.133,5.781,2.023,10.423-.17,18.7-8.833,25.294-29.643,23.1-49.218-.231-2.058-.4-4.426-2.287-5.643L32.937,2.652a9.864,9.864,0,0,0-1.458-.218" transform="translate(0)" fill="#445866"/>
          <path id="Trazado_912372" data-name="Trazado 912372" d="M53.626,27.028a8.415,8.415,0,0,1,2.618.865C63.7,30.838,71,34.245,78.448,37.214c.892.617,1.093,3.772,1.2,4.95C81.054,58.249,76.271,75.672,62.1,84.7c-1.614,1.028-6.606,3.842-8.334,3.781-1.087-.038-4.165-1.533-5.256-2.1C31.788,77.754,26.1,58.154,28.3,40.383c.111-.9.2-2.517.882-3.084ZM41.647,78.476c2.382,2.325,8.445,6.582,11.626,7.309,1.2.275,3.6-.989,4.765-1.585,15.024-7.689,19.987-24.059,19.236-40.063a37.123,37.123,0,0,0-.6-4.951c-6.789-2.7-13.424-5.87-20.232-8.517a11.808,11.808,0,0,0-2.666-.914l-22.81,9.528c-1.658,13.582.5,29.255,10.681,39.192" transform="translate(-22.325 -21.663)" fill="#445866"/>
          <path id="Trazado_912373" data-name="Trazado 912373" d="M109.412,93.779c5.149-.7,10.141,2.642,10.563,7.972.081,1.028-.235,3.38.025,4.139.166.484,2.275,1.643,2.656,3.491a84.762,84.762,0,0,1,.041,12.753,6.045,6.045,0,0,1-4.305,4.22,91.715,91.715,0,0,1-14.531.038,6.04,6.04,0,0,1-4.425-4.1,82.943,82.943,0,0,1-.07-12.584,5.522,5.522,0,0,1,1.09-2.28c.315-.408,1.592-1.406,1.636-1.536.272-.794-.067-3.241.036-4.326.339-3.593,3.67-7.295,7.285-7.784m8.177,11.449v-3.271a12.059,12.059,0,0,0-.889-2.482,6.475,6.475,0,0,0-11.308,0,12.069,12.069,0,0,0-.889,2.482v3.271Zm-12.939,2.427a3.546,3.546,0,0,0-2.905,2.845,69.473,69.473,0,0,0-.018,10.492,3.548,3.548,0,0,0,3.073,3.073,86.136,86.136,0,0,0,12.492,0,3.548,3.548,0,0,0,3.073-3.073,70.442,70.442,0,0,0,0-10.311,3.532,3.532,0,0,0-3.271-3.074,81.247,81.247,0,0,0-12.444.049" transform="translate(-79.501 -75.112)" fill="#445866"/>
          <path id="Trazado_912374" data-name="Trazado 912374" d="M145.115,178.053a3.5,3.5,0,0,1,2.6,5.987c-.294.291-1.018.494-1.137.845-.358,1.051.7,3.674-1.154,3.772-2.007.106-.94-2.742-1.291-3.772-.12-.351-.843-.555-1.137-.845a3.508,3.508,0,0,1,2.119-5.987m1.2,3.444a.957.957,0,1,0-.957.957.957.957,0,0,0,.957-.957" transform="translate(-113.81 -142.741)" fill="#445866"/>
        </g>
      </g>
    </g>
  </g>
</svg>
