<svg xmlns="http://www.w3.org/2000/svg" xmlns:xlink="http://www.w3.org/1999/xlink" width="123.001" height="123" viewBox="0 0 123.001 123">
  <defs>
    <clipPath id="clip-path">
      <rect id="Rectángulo_403693" data-name="Rectángulo 403693" width="73.902" height="73.992" fill="#445866"/>
    </clipPath>
  </defs>
  <g id="img5" transform="translate(-264.668 -6026)">
    <g id="Grupo_1099808" data-name="Grupo 1099808" transform="translate(264.668 6026)">
      <g id="Grupo_1099775" data-name="Grupo 1099775" transform="translate(0 0)">
        <g id="Grupo_1099770" data-name="Grupo 1099770" transform="translate(0 0)">
          <rect id="Rectángulo_401345" data-name="Rectángulo 401345" width="104.839" height="104.839" transform="translate(9 9.16)" fill="#fff"/>
          <path id="Sustracción_141" data-name="Sustracción 141" d="M106.183,123,0,106.181,16.822,0,123,16.819,106.183,123v0h0v0ZM23.2,8.788,8.783,99.8,99.8,114.212,114.214,23.2,23.2,8.788Z" transform="translate(0 0)" fill="#6aa7d6"/>
        </g>
      </g>
      <g id="Grupo_1122256" data-name="Grupo 1122256" transform="translate(24.549 24.504)">
        <g id="Grupo_1122255" data-name="Grupo 1122255" clip-path="url(#clip-path)">
          <path id="Trazado_912375" data-name="Trazado 912375" d="M67.815,18.348,62.192,23.8c-.381.565.6,1.977.891,2.655.191.448.438,1.8.813,1.929,2.665.28,5.795-.281,8.4.022,1.172.137,1.372.786,1.472,1.857.413,4.437-.285,9.555-.054,14.063a1.416,1.416,0,0,1-1.238,1.308c-2.442.378-5.738-.306-8.225,0-.215.026-.435-.012-.58.2L62.03,50.009c2.03,2.337,4.59,4.266,6.413,6.746a1.322,1.322,0,0,1-.456,1.23L57.455,68.409a1.122,1.122,0,0,1-1.235-.037l-6.052-6.095-.4-.184c-.563.492-4.081,1.569-4.189,1.888-.28,2.665.281,5.795-.022,8.4-.137,1.172-.786,1.372-1.857,1.472-4.471.416-9.677-.256-14.22-.093a1.359,1.359,0,0,1-1.151-1.2c-.378-2.443.306-5.737,0-8.225-.026-.215.012-.435-.2-.58l-4.174-1.641c-2.32,2.05-4.307,4.548-6.71,6.449a1.467,1.467,0,0,1-.685-.091c-.511-.164-5.719-5.458-6.458-6.275-24.987-27.566-.027-69.855,35.735-61,9.3,2.3,16.01,8.226,22.333,15.076.6.94.264,1.322-.354,2.076M34.744,2.807A34.3,34.3,0,0,0,11.777,60.332c.226.056,1.8-1.385,1.639-1.822A31.862,31.862,0,0,1,58.425,13.5c.557.148,1.374-1.106,1.815-1.462.039-.17-1.218-1.24-1.467-1.451A34.7,34.7,0,0,0,34.744,2.807m.2,4.9C10.46,9.361-1.349,38.837,15.324,56.792l10.056-9.7c.919-.283,2.889,1.849,3.862,2.43,12.768,7.636,27.583-6.4,20.531-19.551-.527-.982-2.915-3.688-2.814-4.359.186-1.226,9.871-9.507,9.748-10.2A28.911,28.911,0,0,0,34.94,7.7M30.868,62.584V71.3H43.011V62.584c0-.813,3.014-1.477,3.718-1.766.951-.391,2.692-1.623,3.617-1.468.843.141,5.019,5.116,6.073,5.89l.557.164c2.813-2.795,5.8-5.527,8.37-8.5-.607-1.349-5.914-5.476-6.081-6.473-.155-.925,1.077-2.666,1.468-3.617.289-.7.953-3.718,1.766-3.718h8.716V30.953H62.5c-.813,0-1.477-3.014-1.766-3.718-.391-.951-1.623-2.692-1.468-3.617.167-1,5.446-5.1,6.081-6.473A26.336,26.336,0,0,0,62.309,13.9c-.173-.119-.266-.28-.494-.1L49.874,25.763a17.15,17.15,0,0,1-24.2,24.2L13.816,61.795c-.191.168-.216.265-.1.494a26.2,26.2,0,0,0,3.341,3.142c1.377-.635,5.476-5.914,6.473-6.081.925-.155,2.666,1.077,3.617,1.468.886.364,3.511.845,3.718,1.766" transform="translate(0 0)" fill="#445866"/>
          <path id="Trazado_912376" data-name="Trazado 912376" d="M129.592,104.009a8.364,8.364,0,0,1,2.6,1.611c4.849,6.081-6.1,12.113-8.631,4.282l-8.975,0a1.227,1.227,0,0,1,0-2.342l9.077-.031a4.837,4.837,0,0,1,3.525-3.525l.017-13.791a1.21,1.21,0,0,1,2.356-.182Zm1.235,4.727a2.437,2.437,0,1,0-2.437,2.437,2.437,2.437,0,0,0,2.437-2.437" transform="translate(-91.452 -71.711)" fill="#445866"/>
          <path id="Trazado_912377" data-name="Trazado 912377" d="M159.032,143.052c1.673-.48,3.737,3.635,4.175,4.952a12.283,12.283,0,0,1-16.316,15.336c-1.18-.489-5.53-2.857-3.88-4.374,1.166-1.072,1.79.232,2.577.78,9.249,6.445,19.864-3.422,14.559-12.6a31.861,31.861,0,0,1-1.912-2.6,1.421,1.421,0,0,1,.8-1.5" transform="translate(-114.704 -115.003)" fill="#445866"/>
          <path id="Trazado_912378" data-name="Trazado 912378" d="M67.712,115.653a1.306,1.306,0,0,1-1,2.1,18.831,18.831,0,0,1-2.848-1.481,1.271,1.271,0,0,1,.857-2.241,16.329,16.329,0,0,1,2.992,1.62" transform="translate(-51.004 -91.696)" fill="#445866"/>
          <path id="Trazado_912379" data-name="Trazado 912379" d="M67.707,245.562a1.355,1.355,0,0,1-.084,1.715,20.159,20.159,0,0,1-2.746,1.525,1.257,1.257,0,0,1-.9-2.291,23.84,23.84,0,0,1,2.57-1.368,1.443,1.443,0,0,1,1.162.419" transform="translate(-51.001 -197.121)" fill="#445866"/>
          <path id="Trazado_912380" data-name="Trazado 912380" d="M115.217,68.148a16.362,16.362,0,0,1-1.62-2.993,1.271,1.271,0,0,1,2.241-.858,18.78,18.78,0,0,1,1.481,2.849,1.35,1.35,0,0,1-2.1,1" transform="translate(-91.345 -51.355)" fill="#445866"/>
          <path id="Trazado_912381" data-name="Trazado 912381" d="M246.68,68.148a1.35,1.35,0,0,1-2.1-1,18.78,18.78,0,0,1,1.481-2.849,1.271,1.271,0,0,1,2.241.858,16.361,16.361,0,0,1-1.62,2.993" transform="translate(-196.674 -51.355)" fill="#445866"/>
          <path id="Trazado_912382" data-name="Trazado 912382" d="M183.143,45.085c.886-.161,1.332.437,1.425,1.239a14.483,14.483,0,0,1-.045,2.9,1.206,1.206,0,0,1-2.319-.34c-.128-.976-.275-3.578.939-3.8" transform="translate(-146.451 -36.233)" fill="#445866"/>
          <path id="Trazado_912383" data-name="Trazado 912383" d="M45.564,182.569c1.227-.284,4.534-.439,3.933,1.58-.3.993-3.273.905-4.085.642a1.16,1.16,0,0,1,.152-2.222" transform="translate(-35.906 -146.678)" fill="#445866"/>
          <rect id="Rectángulo_403691" data-name="Rectángulo 403691" width="2.553" height="2.357" transform="translate(66.314 35.846)" fill="#445866"/>
          <rect id="Rectángulo_403692" data-name="Rectángulo 403692" width="2.357" height="2.553" transform="translate(35.76 66.4)" fill="#445866"/>
          <path id="Trazado_912384" data-name="Trazado 912384" d="M290.517,292.427l.483-.195,1.175-1.176,1.667,1.661-1.661,1.661c-.257-.351-1.889-1.629-1.664-1.951" transform="translate(-233.599 -234.051)" fill="#445866"/>
        </g>
      </g>
    </g>
  </g>
</svg>
