<svg xmlns="http://www.w3.org/2000/svg" xmlns:xlink="http://www.w3.org/1999/xlink" width="123.001" height="123" viewBox="0 0 123.001 123">
  <defs>
    <clipPath id="clip-path">
      <rect id="Rectángulo_403694" data-name="Rectángulo 403694" width="56.723" height="61.774" fill="#445866"/>
    </clipPath>
  </defs>
  <g id="img6" transform="translate(-264.668 -6026)">
    <g id="Grupo_1099808" data-name="Grupo 1099808" transform="translate(264.668 6026)">
      <g id="Grupo_1099775" data-name="Grupo 1099775" transform="translate(0 0)">
        <g id="Grupo_1099770" data-name="Grupo 1099770" transform="translate(0 0)">
          <rect id="Rectángulo_401345" data-name="Rectángulo 401345" width="104.839" height="104.839" transform="translate(9 9.16)" fill="#fff"/>
          <path id="Sustracción_141" data-name="Sustracción 141" d="M106.183,123,0,106.181,16.822,0,123,16.819,106.183,123v0h0v0ZM23.2,8.788,8.783,99.8,99.8,114.212,114.214,23.2,23.2,8.788Z" transform="translate(0 0)" fill="#6aa7d6"/>
        </g>
      </g>
      <g id="Grupo_1122258" data-name="Grupo 1122258" transform="translate(33.139 30.613)">
        <g id="Grupo_1122257" data-name="Grupo 1122257" clip-path="url(#clip-path)">
          <path id="Trazado_912385" data-name="Trazado 912385" d="M56.153,55.766,50.9,48.685a17.958,17.958,0,0,0,3.5-15.738,17.73,17.73,0,0,0-10.61-12c-.111-.046-.276-.093-.466-.149a3.185,3.185,0,0,1-.991-.4L42.17.08.077,0,0,57.837v.158l41.96.068h.066l.046-.047c.329-.332.28-1.246.229-2.214a4.382,4.382,0,0,1,.057-1.564,4.468,4.468,0,0,1,1.041-.408,7.407,7.407,0,0,0,1.008-.369l5.453,7.086.016.018a3.976,3.976,0,0,0,5.314.358,3.915,3.915,0,0,0,.962-5.157M48.2,51.1a5.853,5.853,0,0,1,1.279-.991c.023-.01.045-.021.067-.032s.04-.021.054-.025l0,0,5.1,6.876A2.142,2.142,0,0,1,51.329,59.4a64.838,64.838,0,0,1-5.1-6.675.767.767,0,0,0-.092-.109.2.2,0,0,1-.052-.067A5.844,5.844,0,0,0,48.2,51.1m-42.6-1.695a5.312,5.312,0,0,0,2.648-3.766l9.029,8.52Zm.887-7.048c-.65.429-.406,1.037-.211,1.527a2.559,2.559,0,0,1,.187.594,3.436,3.436,0,0,1-1.1,2.893,3.278,3.278,0,0,1-2.849.9,4.64,4.64,0,0,1-.934-.415V1.728c.036-.039.1-.1.134-.134H40.443c.038.036.1.1.134.134v18.3a17.775,17.775,0,0,0-5.524-.149V4.988c0-.338-.845-.539-.853-.541a16.828,16.828,0,0,0-4.209.159,1.162,1.162,0,0,0-.422.53l-.006.021L29.535,21.6l-1.9,1.038V10.354c0-.4-.995-.553-1-.554a24.88,24.88,0,0,0-3.836.009c-.566.11-.687.58-.793.995l-.012.047v.024c.125,2.327.029,4.833-.063,7.256a68.748,68.748,0,0,0,.02,8.5,3.464,3.464,0,0,0,.347,1.079,2.168,2.168,0,0,1,.129.317c-.039.146-.424.9-.734,1.509-.429.841-.872,1.71-1,2.07A17.667,17.667,0,0,0,40.576,54.661v1.7H22.41L8.331,43.067l-.038-.027A2.112,2.112,0,0,1,7.8,42.65c-.332-.32-.708-.683-1.3-.29M25.74,24.207c-.088.112-.49.465-.817.751-.454.4-.829.731-1.077.983v-14.4H25.74ZM33.317,6.329V20.258l-1.894.541V6.329ZM21.589,37.342A15.763,15.763,0,1,1,37.352,53.1,15.781,15.781,0,0,1,21.589,37.342M17.355,56.364H1.591V49.969Z" fill="#445866"/>
          <path id="Trazado_912386" data-name="Trazado 912386" d="M92.935,103.7c.2.038,1.063.059,1.965.059a18.226,18.226,0,0,0,2.336-.089,1.273,1.273,0,0,0,.7-1.144L97.86,90.6v-.032l-.013-.03a1.027,1.027,0,0,0-.757-.713,31.152,31.152,0,0,0-4.3.032.761.761,0,0,0-.439.354l-.022.037-.047,12.876v.026l.008.025a.758.758,0,0,0,.646.527m1.043-12.154h2.06V101.98h-2.06Z" transform="translate(-77.716 -75.597)" fill="#445866"/>
          <path id="Trazado_912387" data-name="Trazado 912387" d="M43.584,120.571v.036l.014.033a1.028,1.028,0,0,0,.757.713c.175.034,1.067.053,2,.053a18.851,18.851,0,0,0,2.316-.081c.442-.148.518-.787.531-.99l-.036-8.843-.015-.032a1.136,1.136,0,0,0-.795-.67,24.445,24.445,0,0,0-3.972.031,1.117,1.117,0,0,0-.868,1.125,31.559,31.559,0,0,0-.007,4.994c.061,1.229.124,2.5.081,3.631m1.823-7.893H47.3v6.945H45.407Z" transform="translate(-36.555 -93.248)" fill="#445866"/>
          <path id="Trazado_912388" data-name="Trazado 912388" d="M29.691,215.835H39c.3,0,.488-.341.488-.868S39.3,214.1,39,214.1H29.665l-.025.009a.932.932,0,0,0-.471,1.083c.066.391.271.644.523.644" transform="translate(-24.549 -180.306)" fill="#445866"/>
          <path id="Trazado_912389" data-name="Trazado 912389" d="M39.543,243.14c.063-.415-.072-.919-.446-1.035l-.023-.007H29.739c-.368,0-.533.436-.533.868s.165.868.533.868h9.155c.336,0,.585-.266.65-.694" transform="translate(-24.596 -203.886)" fill="#445866"/>
          <path id="Trazado_912390" data-name="Trazado 912390" d="M176.614,162.726a13.843,13.843,0,1,0-13.843,13.843,13.858,13.858,0,0,0,13.843-13.843m-1.827,0a12.01,12.01,0,1,1-12.01-12.009,12.023,12.023,0,0,1,12.01,12.009" transform="translate(-125.422 -125.384)" fill="#445866"/>
          <path id="Trazado_912391" data-name="Trazado 912391" d="M170.878,178.174c-1.121.22-3.176,3.121-3.624,4-.013.026-1.3,2.642-.956,3.693a.637.637,0,0,0,.318.391,1.09,1.09,0,0,0,.486.129.732.732,0,0,0,.312-.068c.521-.241.718-1.046.891-1.757a5.856,5.856,0,0,1,.19-.674,10.594,10.594,0,0,1,1.7-2.8,8.266,8.266,0,0,1,.649-.6c.687-.6,1.141-1.016,1.186-1.331a.819.819,0,0,0-.268-.709,1.027,1.027,0,0,0-.886-.276" transform="translate(-140.001 -150.038)" fill="#445866"/>
        </g>
      </g>
    </g>
  </g>
</svg>
