<svg xmlns="http://www.w3.org/2000/svg" xmlns:xlink="http://www.w3.org/1999/xlink" width="139" height="138.999" viewBox="0 0 139 138.999">
  <defs>
    <clipPath id="clip-path">
      <rect id="Rectángulo_403458" data-name="Rectángulo 403458" width="68.706" height="78.437" fill="#445866"/>
    </clipPath>
  </defs>
  <g id="img13" transform="translate(-421 -6521.134)">
    <g id="img13-2" data-name="img13" transform="translate(-159 904.294)">
      <g id="Grupo_1099770" data-name="Grupo 1099770" transform="translate(580 5616.839)">
        <rect id="Rectángulo_401345" data-name="Rectángulo 401345" width="120.838" height="120.838" transform="translate(9 9.161)" fill="#fff"/>
        <path id="Sustracción_141" data-name="Sustracción 141" d="M119.994,139,0,119.993,19.01,0,139,19.008,119.994,139v0h0v0ZM26.221,9.932,9.926,112.779l102.854,16.29L129.07,26.218,26.219,9.932Z" fill="#9ac1df"/>
      </g>
    </g>
    <g id="Grupo_1099972" data-name="Grupo 1099972" transform="translate(449.414 6548.528)">
      <g id="Grupo_1099618" data-name="Grupo 1099618" transform="translate(0 0)">
        <rect id="Rectángulo_401104" data-name="Rectángulo 401104" width="81.642" height="82.626" fill="none"/>
      </g>
      <g id="Grupo_1100122" data-name="Grupo 1100122" transform="translate(6.468 2.094)">
        <g id="Grupo_1100121" data-name="Grupo 1100121" clip-path="url(#clip-path)">
          <path id="Trazado_873870" data-name="Trazado 873870" d="M9.043,265.608c3.812-1.605,8.024-5.159,12.1-5.832a13.213,13.213,0,0,1,4.018,0c2.046.323,13.675,3.964,15.034,4.963.379.278,1.212,1.419,1.306,1.441.513.123,8.057-4.6,9.3-4.979a4.623,4.623,0,0,1,4.492,8.021l-21.5,11.631c-4.811,2.345-9.766-2.568-14.369-1.43-3.163.782-.825,1.271-.957,3.348a1.758,1.758,0,0,1-.527,1.246,38.754,38.754,0,0,1-4.65,2.8,2.288,2.288,0,0,1-2.968-.435c-2.84-5.694-7-11.24-9.745-16.917-.535-1.107-.992-2.1.048-3.155A56.494,56.494,0,0,1,5.848,263.3c1.811-.377,2.589.822,3.195,2.307m45.027,1.508c1.544-1.721.25-4.31-2.06-3.727-1.294.839-9.648,4.767-9.993,5.5-.21.442-.191,1.108-.467,1.69a4.838,4.838,0,0,1-4.182,2.5c-1.219,0-9.939-2.794-11.273-3.447a1.231,1.231,0,0,1,.461-2.393l9.919,3.185c3.346.621,4.519-2.846,1.092-4.228-2.9-1.169-12.129-4.239-14.9-4.11-4.11.192-8.5,4.039-12.261,5.593l5.706,10.271c2.049-.666,3.518-1.324,5.766-1.161,3.142.227,6.165,2.444,9.422,2.161a9.956,9.956,0,0,0,3.426-1.278c6.521-3.17,12.839-7.3,19.345-10.553M6.427,265.7l-3.906,2.247,9.625,16.728,3.906-2.247Z" transform="translate(0 -208.724)" fill="#445866"/>
          <path id="Trazado_873871" data-name="Trazado 873871" d="M102.164,131.605c2.549,2.651,2.482,6.38.641,9.422.736.112,2.455,2.307,2.822,2.248.24-.039.678-.641,1.114-.567-1.489-2.584-1.98-5.455-.429-8.17,3.741-6.55,14.052-3.284,13.366,4.349-.1,1.093-1.4,3.491-1.382,3.713a4.174,4.174,0,0,0,1.267.687c.168-.041,1.858-2.233,2.656-2.16-2.121-3.558-1.784-8.216,1.907-10.535a7.208,7.208,0,0,1,10.991,7.266,16.344,16.344,0,0,1-1.321,3.283c2.533.979,4.261,3.909,4.506,6.574a20.787,20.787,0,0,1-.152,4.941,2.428,2.428,0,0,1-2.1,1.428l-13.291,0a2.754,2.754,0,0,1-2.385,1.579c-5.028.471-10.78-.367-15.888-.007a2.539,2.539,0,0,1-2.2-1.572c-4.211-.292-8.956.4-13.1.011a2.386,2.386,0,0,1-2.43-1.883,28.111,28.111,0,0,1,.012-4.864c.3-2.771,2.249-5,4.448-6.491a7.175,7.175,0,0,1,8.405-10.92,8.234,8.234,0,0,1,2.541,1.674m-.476,5a4.7,4.7,0,1,0-4.7,4.7,4.7,4.7,0,0,0,4.7-4.7m31.05.007a4.706,4.706,0,1,0-4.706,4.706,4.706,4.706,0,0,0,4.706-4.706m-15.529,1.57a4.707,4.707,0,1,0-4.707,4.706,4.707,4.707,0,0,0,4.707-4.706m-14.977,13.349V148.69a17.736,17.736,0,0,1,.885-2.447c.48-1.129,1.074-.951-.2-2.158-2.274-2.153-2.758-.589-5.089-.387a12.181,12.181,0,0,1-2.147-.024c-1.785-.236-2-1.485-4.023-.069-1.081.756-2.561,2.979-2.561,4.3v3.627Zm33.72,0V148.3c0-1.8-1.84-4.637-3.581-5.241-1.184-.411-1.876.47-3,.617a13.4,13.4,0,0,1-2.344.025c-2.148-.2-2.431-1.706-4.692.193-1.9,1.6-.433,1.865.122,3.789a11.941,11.941,0,0,1,.363,3.852ZM120.269,153.1V148.69c0-.731-1.539-2.814-2.174-3.315-2.155-1.7-2.339-.379-4.415-.136a9.091,9.091,0,0,1-3.562-.316c-.4-.108-1.083-.57-1.317-.571-.641,0-2.289,1.367-2.728,1.905a7.548,7.548,0,0,0-1.487,3.61V153.1h2.353v-3.039c0-1.143,2.353-.942,2.353-.2V153.1h6.273v-2.843a2.081,2.081,0,0,1,1.089-1.083c.52-.072,1.46.441,1.46.887V153.1Z" transform="translate(-69.668 -104.06)" fill="#445866"/>
          <path id="Trazado_873872" data-name="Trazado 873872" d="M179.708,5.962a2.01,2.01,0,0,1,.229,1.393,27.008,27.008,0,0,1-5.37,12.871c-1.195,1.367-5.275,4.519-7.06,4.519-1.077,0-4.379-2.013-5.287-2.763-3.6-2.975-7.049-10.138-7.172-14.792-.055-2.058,1.235-1.366,2.691-2.028a5.415,5.415,0,0,0,2.319-2.387c.353-.811.292-2.241,1.128-2.6,4.122-.285,8.352-.17,12.506-.06.958.293.827,1.639,1.193,2.532a5.3,5.3,0,0,0,2.523,2.575c.6.249,1.942.352,2.3.736m-7.425-3.356h-9.553a7.446,7.446,0,0,1-3.567,4.569c-.351.214-1.444.48-1.493.784.855,4.457,2.693,9.712,6.5,12.461a18.32,18.32,0,0,0,3.184,1.731,7.552,7.552,0,0,0,2.388-1.061c4.613-2.8,6.619-8.148,7.573-13.227a7.569,7.569,0,0,1-5.036-5.257" transform="translate(-124.65 0)" fill="#445866"/>
          <path id="Trazado_873873" data-name="Trazado 873873" d="M197.287,40.056c1.293-.394,2.074.9,1.4,2-2.072,1.879-4.02,4.447-6.145,6.2-.794.656-1.226,1.126-2.251.476a40.64,40.64,0,0,1-3.69-3.765c-.567-1.152.306-2.16,1.583-1.772.625.19,2.272,2.434,2.981,2.9.43,0,5.239-5.767,6.118-6.035" transform="translate(-149.88 -32.145)" fill="#445866"/>
        </g>
      </g>
    </g>
  </g>
</svg>
