<svg xmlns="http://www.w3.org/2000/svg" xmlns:xlink="http://www.w3.org/1999/xlink" width="80.832" height="81.136" viewBox="0 0 80.832 81.136">
  <defs>
    <clipPath id="clip-path">
      <rect id="Rect치ngulo_401125" data-name="Rect치ngulo 401125" width="80.832" height="81.136" fill="none"/>
    </clipPath>
    <clipPath id="clip-path-2">
      <rect id="Rect치ngulo_403442" data-name="Rect치ngulo 403442" width="41.754" height="43.537" fill="#2a5f61"/>
    </clipPath>
  </defs>
  <g id="banner-principal-decorativo-1" transform="translate(-1094.501 -282.682)">
    <g id="banner-principal-decorativo-1-2" data-name="banner-principal-decorativo-1" transform="translate(1094.501 282.683)">
      <g id="Grupo_1099467" data-name="Grupo 1099467" transform="translate(0 0)" clip-path="url(#clip-path)">
        <path id="Trazado_873452" data-name="Trazado 873452" d="M7.129,58.863,58.371,68.3a3.65,3.65,0,0,1,1.5.649L73.818,79.173a3.662,3.662,0,0,0,5.83-2.952V20.557a3.663,3.663,0,0,0-3-3.6L8.454,4.4a3.663,3.663,0,0,0-4.325,3.6V55.261a3.663,3.663,0,0,0,3,3.6" transform="translate(-4.129 1.245)" fill="#355855"/>
        <path id="Trazado_873453" data-name="Trazado 873453" d="M3,54.521l51.242,9.432a3.65,3.65,0,0,1,1.5.649L69.689,74.831a3.662,3.662,0,0,0,5.83-2.952V16.215a3.663,3.663,0,0,0-3-3.6L4.325.062A3.662,3.662,0,0,0,0,3.664V50.919a3.663,3.663,0,0,0,3,3.6" transform="translate(5.314 0)" fill="#fff"/>
      </g>
    </g>
    <g id="Grupo_1100104" data-name="Grupo 1100104" transform="translate(1117.832 294.75)">
      <g id="Grupo_1100102" data-name="Grupo 1100102" clip-path="url(#clip-path-2)">
        <path id="Trazado_873837" data-name="Trazado 873837" d="M8.872.064a26.183,26.183,0,0,1,15.4,3.852c4.751,3.14,6.234,8.564-.391,10.5-5.278,1.54-12.145.056-16.941-2.438C-.939,7.875-.775.822,8.872.064" transform="translate(-1.166 0)" fill="#2a5f61"/>
        <path id="Trazado_873838" data-name="Trazado 873838" d="M1,95.28c4.414,4.414,10.639,6.48,16.781,6.957a16.28,16.28,0,0,0-3.312,4.257c-3.715-.613-8.1-2.2-10.932-4.753C2.835,101.107,1,98.889,1,97.985Z" transform="translate(-0.89 -84.761)" fill="#2a5f61"/>
        <path id="Trazado_873839" data-name="Trazado 873839" d="M0,224.217c.078-.106.939.9,1.046,1,3.234,2.921,7.573,4.408,11.747,5.421.151,1.776,1.15,3.282,1.782,4.9a2.615,2.615,0,0,1-1.126-.089c-4.162-.669-10.675-3.194-12.805-7.067A9.58,9.58,0,0,1,0,226.921Z" transform="translate(0 -199.455)" fill="#2a5f61"/>
        <path id="Trazado_873840" data-name="Trazado 873840" d="M12.6,171.1C8.447,170.308,2,167.728.481,163.4c-.406-1.156-.112-1.946-.134-3.122a24.6,24.6,0,0,0,12.538,6.285,13.2,13.2,0,0,1-.283,2.272c-.053.745.036,1.516,0,2.262" transform="translate(-0.235 -142.584)" fill="#2a5f61"/>
        <path id="Trazado_873841" data-name="Trazado 873841" d="M145.24,154.516c10.528-.359,20.723,12.419,14.245,21.862-5.727,8.348-18.125,4.21-22.7-3.313-4.773-7.846-1.5-18.21,8.457-18.549m1.569,4.715v2.484c-.207.23-.537.175-.8.3-2.954,1.445-1.679,5.514.945,6.618a13.4,13.4,0,0,1,1.407.47c1.477.814.72,2.743-.809,2.023-.611-.288-.654-1.138-.929-1.279-.518-.264-1.751-.234-2.352-.462a4.3,4.3,0,0,0,1.654,3.368c.185.164.7.406.756.569.162.475-.141,2.187.066,2.473l2.381.434v-2.539c3.861-1.005,2.954-5.393-.145-6.865-.753-.358-1.71-.3-2.039-1.162-.609-1.586,1.593-2.063,2.133-.587.06.165.028.512.06.547a18.446,18.446,0,0,0,2.531.34c.1-1.648-1.145-2.994-2.431-3.832l-.009-2.451Z" transform="translate(-119.76 -137.45)" fill="#2a5f61"/>
      </g>
    </g>
  </g>
</svg>
