<svg xmlns="http://www.w3.org/2000/svg" xmlns:xlink="http://www.w3.org/1999/xlink" width="123.001" height="123" viewBox="0 0 123.001 123">
  <defs>
    <linearGradient id="linear-gradient" x1="0.5" x2="0.5" y2="1" gradientUnits="objectBoundingBox">
      <stop offset="0" stop-color="#ddf1ff"/>
      <stop offset="1" stop-color="#fff"/>
    </linearGradient>
    <clipPath id="clip-path">
      <rect id="Rectángulo_403698" data-name="Rectángulo 403698" width="63.754" height="63.547" fill="#445866"/>
    </clipPath>
  </defs>
  <g id="img19" transform="translate(-264.668 -6026)">
    <g id="Grupo_1099808" data-name="Grupo 1099808" transform="translate(264.668 6026)">
      <g id="Grupo_1099775" data-name="Grupo 1099775" transform="translate(0 0)">
        <g id="Grupo_1099770" data-name="Grupo 1099770" transform="translate(0 0)">
          <rect id="Rectángulo_401345" data-name="Rectángulo 401345" width="104.839" height="104.839" transform="translate(9 9.16)" fill="url(#linear-gradient)"/>
          <path id="Sustracción_141" data-name="Sustracción 141" d="M106.183,123,0,106.181,16.822,0,123,16.819,106.183,123v0h0v0ZM23.2,8.788,8.783,99.8,99.8,114.212,114.214,23.2,23.2,8.788Z" transform="translate(0 0)" fill="#8ce2e5"/>
        </g>
      </g>
      <g id="Grupo_1122266" data-name="Grupo 1122266" transform="translate(29.623 29.726)">
        <g id="Grupo_1122265" data-name="Grupo 1122265" clip-path="url(#clip-path)">
          <path id="Trazado_912409" data-name="Trazado 912409" d="M14.725,138.516l-2.192.4c-.29,2.1.693,6.905-.794,8.479-.81.857-3.764.853-4.878.68-3.46-.535-1.67-6.747-2.108-9.16-3.45-.035-5.585-2.606-4.046-5.936.125-.271.494-.183.479-.541-.031-.706-1.113-1.7-1.019-2.6.388-6-.514-12.634-.007-18.555A5.988,5.988,0,0,1,5.843,105.8c3.435-.3,7.478-.087,9.763,2.816l5.9,8.664c2.414.41,5.958-.66,7.753,1.421a3.856,3.856,0,0,1,.4,5.131,6.331,6.331,0,0,1-2.659,1.72H23.1c.141.851.526,1.612.607,2.484.463,5-.37,10.7,0,15.773-.047,3.759-4.811,5.625-7.525,3.219a16.674,16.674,0,0,1-1.458-2.43Zm.489-26.414c-.908-1.266-1.4-2.625-2.944-3.341-1.665-.771-6.67-.9-8.257,0a2.926,2.926,0,0,0-1.462,2.527c-.521,5.9.4,12.564.019,18.544a1.636,1.636,0,0,0,1.091,1.3c3.817.249,8-.313,11.77,0,1.362.112,1.583.327,1.7,1.7.305,3.708-.281,7.79.038,11.539.842,1.99,4.024,1.8,4.143-.562-.357-5.066.476-10.775.008-15.763-.305-3.252-3-2.027-5.14-3.138-2.063-3.348-4.618-6.361-6.81-9.66a1.15,1.15,0,0,1,1.874-1.256l6.62,9.179c2.721-.265,6.081.352,8.72-.016a1.749,1.749,0,0,0,1-2.972c-.968-.933-5.6-.055-7.069-.51-1.91-2.386-3.51-5.07-5.3-7.563M3.3,133.569c-.988.349-.967,2.582-.041,2.756l10.384.008c1.6-.208,1.41-2.365-.015-2.8ZM7.147,145.7h2.992v-6.781H7.147Z" transform="translate(0 -84.62)" fill="#445866"/>
          <path id="Trazado_912410" data-name="Trazado 912410" d="M170.438,125.553a6.089,6.089,0,0,1-2.659-1.72,3.835,3.835,0,0,1,.4-5.131c1.9-2.093,5.252-1.006,7.753-1.421l5.9-8.664c2.285-2.9,6.328-3.114,9.763-2.816a5.987,5.987,0,0,1,5.684,5.484c.508,5.922-.394,12.557-.006,18.555.094.9-.988,1.891-1.019,2.6-.016.359.354.271.479.541,1.539,3.331-.6,5.9-4.046,5.936-.349,2.122.871,7.381-1.017,8.646-1.147.768-4.981.88-5.969-.166-1.488-1.574-.5-6.38-.794-8.479l-2.193-.4V144.6a16.688,16.688,0,0,1-1.458,2.43c-2.714,2.406-7.479.54-7.525-3.219.37-5.076-.463-10.772,0-15.773.081-.872.466-1.633.607-2.484-1.187-.139-2.757.189-3.889,0m9.6,19.274a1.859,1.859,0,0,0,.282-1.017c.28-3.567-.368-7.658-.007-11.176.13-1.265.48-1.4,1.687-1.5,3.77-.311,7.954.252,11.769,0a1.619,1.619,0,0,0,1.013-.982l.09-19.057a3.09,3.09,0,0,0-1.686-2.5c-1.409-.679-6.612-.56-8.068.128a7.151,7.151,0,0,0-1.7,1.495l-6.389,9.367c-.987.561-4.846-.04-6.344.237a1.725,1.725,0,0,0-.205,3.3h8.891c2.552-2.787,4.466-6.157,6.819-9.135A1.148,1.148,0,0,1,187.9,115.5c-2.178,2.889-4.15,5.937-6.4,8.767-.149.188-.149.539-.251.636-.058.055-1.364.583-1.487.608-1.527.311-2.859-.292-3.56,1.825l-.039,16.819c.18,1.822,3.1,2.043,3.867.674m3.606-11.255c-1.189.592-1.423,2.268-.036,2.746l10.568.008c.927-.178,1.011-2.556-.206-2.791Zm3.648,12.125h2.992v-6.781h-2.992Z" transform="translate(-133.675 -84.621)" fill="#445866"/>
          <path id="Trazado_912411" data-name="Trazado 912411" d="M18.337,37.237a7.129,7.129,0,1,1-7.129-7.129,7.129,7.129,0,0,1,7.129,7.129m-2.28-.011a4.841,4.841,0,1,0-4.841,4.841,4.841,4.841,0,0,0,4.841-4.841" transform="translate(-3.265 -24.103)" fill="#445866"/>
          <path id="Trazado_912412" data-name="Trazado 912412" d="M258.349,37.228a7.13,7.13,0,1,1-7.13-7.13,7.13,7.13,0,0,1,7.13,7.13m-2.288-.014a4.843,4.843,0,1,0-4.844,4.843,4.844,4.844,0,0,0,4.844-4.843" transform="translate(-195.409 -24.095)" fill="#445866"/>
          <path id="Trazado_912413" data-name="Trazado 912413" d="M118.411,13.935c-.239.309-.991.76-1.13.953-.8,1.107,1.131,5.129.574,6.766a1.631,1.631,0,0,1-1.214.7l-7.718-4.07c-5.968.821-16.766-3.273-14.672-10.863,1.571-5.7,9.328-7.788,14.559-7.372,6.913.55,15.236,6.583,9.6,13.885m-2.639-8.782c-4.033-3.386-11.464-3.642-16.011-1-3.915,2.278-4.86,6.35-1,9.336,2.861,2.214,7.1,2.613,10.611,2.552l5.724,2.95c.265-.362-.644-3.72-.505-4.392.172-.828,1.8-1.786,2.388-2.6,1.8-2.482.963-5.026-1.206-6.847" transform="translate(-75.242 0)" fill="#445866"/>
          <path id="Trazado_912414" data-name="Trazado 912414" d="M153.308,40.145a5.711,5.711,0,0,1,1.557-.048c2.445.291,1.2,3.175-1.49,2.286-1.081-.358-1.227-1.986-.066-2.238" transform="translate(-122.085 -32.075)" fill="#445866"/>
          <path id="Trazado_912415" data-name="Trazado 912415" d="M124.084,40.287a1.561,1.561,0,0,1,.217,1.2c-.483,1.7-4.317,1.06-3.454-.849.376-.832,2.755-.772,3.237-.355" transform="translate(-96.644 -32.013)" fill="#445866"/>
          <path id="Trazado_912416" data-name="Trazado 912416" d="M182.778,42.069c-2.137-1.761,2.234-3.1,2.991-1.484.713,1.524-2.017,2.287-2.991,1.484" transform="translate(-145.859 -31.907)" fill="#445866"/>
        </g>
      </g>
    </g>
  </g>
</svg>
