<svg id="img12" xmlns="http://www.w3.org/2000/svg" xmlns:xlink="http://www.w3.org/1999/xlink" width="295" height="293.606" viewBox="0 0 295 293.606">
  <defs>
    <clipPath id="clip-path">
      <rect id="Rectángulo_403615" data-name="Rectángulo 403615" width="295" height="293.607" fill="none"/>
    </clipPath>
    <clipPath id="clip-path-3">
      <rect id="Rectángulo_403570" data-name="Rectángulo 403570" width="295" height="284.439" fill="none"/>
    </clipPath>
    <clipPath id="clip-path-5">
      <rect id="Rectángulo_403572" data-name="Rectángulo 403572" width="39.644" height="37.889" fill="none"/>
    </clipPath>
    <clipPath id="clip-path-6">
      <rect id="Rectángulo_403573" data-name="Rectángulo 403573" width="44.61" height="46.142" fill="none"/>
    </clipPath>
    <clipPath id="clip-path-7">
      <rect id="Rectángulo_403574" data-name="Rectángulo 403574" width="51.349" height="52.282" fill="none"/>
    </clipPath>
    <clipPath id="clip-path-12">
      <rect id="Rectángulo_403580" data-name="Rectángulo 403580" width="141.108" height="185.816" fill="none"/>
    </clipPath>
  </defs>
  <g id="Grupo_1100304" data-name="Grupo 1100304" clip-path="url(#clip-path)">
    <g id="Grupo_1100272" data-name="Grupo 1100272">
      <g id="Grupo_1100271" data-name="Grupo 1100271" clip-path="url(#clip-path)">
        <path id="Trazado_874480" data-name="Trazado 874480" d="M277.93,246.044c14.612-20.532,18.849-49,16.432-73.164-1.2-11.971-3.533-24.515-10.6-34.543-10.295-14.6-27.292-22.3-40.248-34.1-19.062-17.368-27.136-42.723-43.359-62.274-21.17-25.514-54.509-28.734-85.738-27.228C90.983,15.861,53.26,16.323,47.742,45.756c-5.721,30.51,5.085,59.113-17.8,73.732S-5.014,164.616,1.977,190.676c5.9,21.981,34.168,25.872,40.044,48.308,6.992,26.7,47.672,62.291,87.08,59.748s62.288-28.6,78.814-27.332c19.151,1.468,39.55,1.413,55.649-10.561a65.959,65.959,0,0,0,14.366-14.8" transform="translate(0 -5.255)" fill="#def2fc"/>
        <g id="Grupo_1100270" data-name="Grupo 1100270" transform="translate(0 9.168)" opacity="0.7">
          <g id="Grupo_1100269" data-name="Grupo 1100269">
            <g id="Grupo_1100268" data-name="Grupo 1100268" clip-path="url(#clip-path-3)">
              <path id="Trazado_874481" data-name="Trazado 874481" d="M277.93,246.044c14.612-20.532,18.849-49,16.432-73.164-1.2-11.971-3.533-24.515-10.6-34.543-10.295-14.6-27.292-22.3-40.248-34.1-19.062-17.368-27.136-42.723-43.359-62.274-21.17-25.514-54.509-28.734-85.738-27.228C90.983,15.861,53.26,16.323,47.742,45.756c-5.721,30.51,5.085,59.113-17.8,73.732S-5.014,164.616,1.977,190.676c5.9,21.981,34.168,25.872,40.044,48.308,6.992,26.7,47.672,62.291,87.08,59.748s62.288-28.6,78.814-27.332c19.151,1.468,39.55,1.413,55.649-10.561a65.959,65.959,0,0,0,14.366-14.8" transform="translate(0 -14.423)" fill="#def2fc"/>
            </g>
          </g>
        </g>
      </g>
    </g>
    <g id="Grupo_1100292" data-name="Grupo 1100292">
      <g id="Grupo_1100291" data-name="Grupo 1100291" clip-path="url(#clip-path)">
        <path id="Trazado_874482" data-name="Trazado 874482" d="M383.528,108.927s-12.131-6.74-13.03,8.537-3.145,114.576-3.145,114.576" transform="translate(-133.856 -39.151)" fill="none" stroke="#263238" stroke-linecap="round" stroke-linejoin="round" stroke-width="2"/>
        <path id="Trazado_874483" data-name="Trazado 874483" d="M362.388,125.324s9.9,22.019,5.4,111.882" transform="translate(-132.047 -45.665)" fill="none" stroke="#263238" stroke-linecap="round" stroke-linejoin="round" stroke-width="2"/>
        <path id="Trazado_874484" data-name="Trazado 874484" d="M357.385,106.8s-4.641,2.973-7.281-.43,1.786-9.637-2.116-12.3-10.637,1.4-10.637,1.4,5.187,1.524,5.02,4.355-2.666,3.9-3,2.665-2.806-7.472-7.019-4.879a10.433,10.433,0,0,0-4.856,6.614s9.8-1.046,10.4,2.643-4.021-.643-8.066-.882-7.734.355-7.472,2.806a31.954,31.954,0,0,1-.381,6.473,12.041,12.041,0,0,1,7.877-2.783c4.449.263,4.282,3.094.237,2.855s-7.519,3.615-7.519,3.615,3.687,6.307,8.374,9.424,6.377,2,6.924-.4-.713-8.566,2.119-8.4-4.689,10.683-1.072,11.3,6.52-.427,7.472-2.807l.952-2.379s-1.26-6.163-.713-8.566,1.213.072,1.855,2.951,1.046,9.8,2.283,9.471,5.188-5.377,6.117-7.352-5.21-8.02-5.138-9.234,4.807,1.1,5.544,2.357a31.383,31.383,0,0,1,1.45,2.927s2.951-1.855,2.881-7.542-4.234-3.9-4.234-3.9" transform="translate(-117.322 -33.945)" fill="#abdbff"/>
        <g id="Grupo_1100275" data-name="Grupo 1100275" transform="translate(204.655 59.213)" opacity="0.3">
          <g id="Grupo_1100274" data-name="Grupo 1100274">
            <g id="Grupo_1100273" data-name="Grupo 1100273" clip-path="url(#clip-path-5)">
              <path id="Trazado_874485" data-name="Trazado 874485" d="M357.385,106.8s-4.641,2.973-7.281-.43,1.786-9.637-2.116-12.3-10.637,1.4-10.637,1.4,5.187,1.524,5.02,4.355-2.666,3.9-3,2.665-2.806-7.472-7.019-4.879a10.433,10.433,0,0,0-4.856,6.614s9.8-1.046,10.4,2.643-4.021-.643-8.066-.882-7.734.355-7.472,2.806a31.954,31.954,0,0,1-.381,6.473,12.041,12.041,0,0,1,7.877-2.783c4.449.263,4.282,3.094.237,2.855s-7.519,3.615-7.519,3.615,3.687,6.307,8.374,9.424,6.377,2,6.924-.4-.713-8.566,2.119-8.4-4.689,10.683-1.072,11.3,6.52-.427,7.472-2.807l.952-2.379s-1.26-6.163-.713-8.566,1.213.072,1.855,2.951,1.046,9.8,2.283,9.471,5.188-5.377,6.117-7.352-5.21-8.02-5.138-9.234,4.807,1.1,5.544,2.357a31.383,31.383,0,0,1,1.45,2.927s2.951-1.855,2.881-7.542-4.234-3.9-4.234-3.9" transform="translate(-321.977 -93.158)" fill="#263238"/>
            </g>
          </g>
        </g>
        <path id="Trazado_874486" data-name="Trazado 874486" d="M340.671,129.161c3.026-3.741,7.485-8.8,11.223-11.219" transform="translate(-124.133 -42.976)" fill="none" stroke="#263238" stroke-linecap="round" stroke-linejoin="round" stroke-width="1"/>
        <path id="Trazado_874487" data-name="Trazado 874487" d="M335.151,141.21s.777-1.081,2.037-2.7" transform="translate(-122.122 -50.471)" fill="none" stroke="#263238" stroke-linecap="round" stroke-linejoin="round" stroke-width="1"/>
        <path id="Trazado_874488" data-name="Trazado 874488" d="M361.435,119.4s4.5,6.354,5.328,12.9" transform="translate(-131.699 -43.508)" fill="none" stroke="#263238" stroke-linecap="round" stroke-linejoin="round" stroke-width="1"/>
        <path id="Trazado_874489" data-name="Trazado 874489" d="M353.423,125.306s1.261-.737.784,7.353" transform="translate(-128.78 -45.652)" fill="none" stroke="#263238" stroke-linecap="round" stroke-linejoin="round" stroke-width="1"/>
        <path id="Trazado_874490" data-name="Trazado 874490" d="M358.591,109.572s2.57-2.284,1.215-6.829" transform="translate(-130.663 -37.437)" fill="none" stroke="#263238" stroke-linecap="round" stroke-linejoin="round" stroke-width="1"/>
        <line id="Línea_3431" data-name="Línea 3431" x1="1.832" y1="3.355" transform="translate(222.621 72.633)" fill="none" stroke="#263238" stroke-linecap="round" stroke-linejoin="round" stroke-width="1"/>
        <path id="Trazado_874491" data-name="Trazado 874491" d="M341.63,122.293s-5.829-4.4-9.469-4.618" transform="translate(-121.032 -42.878)" fill="none" stroke="#263238" stroke-linecap="round" stroke-linejoin="round" stroke-width="1"/>
        <path id="Trazado_874492" data-name="Trazado 874492" d="M388.642,94.066s-.186,6.673-5.393,7-8.43-8.357-13.759-6.267-5.846,11.605-5.846,11.605,5.061-4.154,7.782-2.058,2.09,5.328.624,4.818-9.394-2.283-9.669,3.7a12.638,12.638,0,0,0,3.312,9.37s5.636-10.528,9.734-8.609-3.385,3.587-6.381,7.474-4.915,7.985-2.283,9.394a38.642,38.642,0,0,1,6.22,4.794,14.585,14.585,0,0,1,2.583-9.783c3.3-4.276,6.017-2.178,3.021,1.709s-1.506,9.993-1.506,9.993,8.827.607,15.144-1.96,6.349-5.021,4.316-7.208-9.062-5.126-6.965-7.847,7.5,11.976,10.585,8.778,4.016-6.819,2.283-9.394L400.71,117s-7.03-2.94-9.063-5.126.9-1.166,4.219.154,10.528,5.635,11.038,4.17-1.847-8.859-3.191-11.135-11.58-.25-12.747-1.15,4.373-4.065,6.138-3.943a38.129,38.129,0,0,1,3.92.542s.154-4.219-5.588-8.025-6.794,1.579-6.794,1.579" transform="translate(-132.038 -33.204)" fill="#abdbff"/>
        <g id="Grupo_1100278" data-name="Grupo 1100278" transform="translate(230.327 57.922)" opacity="0.2">
          <g id="Grupo_1100277" data-name="Grupo 1100277">
            <g id="Grupo_1100276" data-name="Grupo 1100276" clip-path="url(#clip-path-6)">
              <path id="Trazado_874493" data-name="Trazado 874493" d="M388.642,94.066s-.186,6.673-5.393,7-8.43-8.357-13.759-6.267-5.846,11.605-5.846,11.605,5.061-4.154,7.782-2.058,2.09,5.328.624,4.818-9.394-2.283-9.669,3.7a12.638,12.638,0,0,0,3.312,9.37s5.636-10.528,9.734-8.609-3.385,3.587-6.381,7.474-4.915,7.985-2.283,9.394a38.642,38.642,0,0,1,6.22,4.794,14.585,14.585,0,0,1,2.583-9.783c3.3-4.276,6.017-2.178,3.021,1.709s-1.506,9.993-1.506,9.993,8.827.607,15.144-1.96,6.349-5.021,4.316-7.208-9.062-5.126-6.965-7.847,7.5,11.976,10.585,8.778,4.016-6.819,2.283-9.394L400.71,117s-7.03-2.94-9.063-5.126.9-1.166,4.219.154,10.528,5.635,11.038,4.17-1.847-8.859-3.191-11.135-11.58-.25-12.747-1.15,4.373-4.065,6.138-3.943a38.129,38.129,0,0,1,3.92.542s.154-4.219-5.588-8.025-6.794,1.579-6.794,1.579" transform="translate(-362.365 -91.126)" fill="#263238"/>
            </g>
          </g>
        </g>
        <path id="Trazado_874494" data-name="Trazado 874494" d="M397.424,136.282c-1.683-5.58-3.711-13.5-3.582-18.884" transform="translate(-143.505 -42.777)" fill="none" stroke="#263238" stroke-linecap="round" stroke-linejoin="round" stroke-width="1"/>
        <path id="Trazado_874495" data-name="Trazado 874495" d="M402.138,155.295s-.552-1.514-1.314-3.879" transform="translate(-146.052 -55.173)" fill="none" stroke="#263238" stroke-linecap="round" stroke-linejoin="round" stroke-width="1"/>
        <path id="Trazado_874496" data-name="Trazado 874496" d="M397.425,115.282s9.426-.17,16.545,3.457" transform="translate(-144.813 -42.006)" fill="none" stroke="#263238" stroke-linecap="round" stroke-linejoin="round" stroke-width="1"/>
        <path id="Trazado_874497" data-name="Trazado 874497" d="M397.884,127.2s.121-1.765,7.9,4.227" transform="translate(-144.981 -46.259)" fill="none" stroke="#263238" stroke-linecap="round" stroke-linejoin="round" stroke-width="1"/>
        <path id="Trazado_874498" data-name="Trazado 874498" d="M386.119,110.733s-.535-4.13-6.009-5.871" transform="translate(-138.504 -38.21)" fill="none" stroke="#263238" stroke-linecap="round" stroke-linejoin="round" stroke-width="1"/>
        <line id="Línea_3432" data-name="Línea 3432" x1="4.608" y1="0.453" transform="translate(244.498 78.176)" fill="none" stroke="#263238" stroke-linecap="round" stroke-linejoin="round" stroke-width="1"/>
        <path id="Trazado_874499" data-name="Trazado 874499" d="M386.819,133.451s-8.381,2.835-11.078,6.333" transform="translate(-136.912 -48.627)" fill="none" stroke="#263238" stroke-linecap="round" stroke-linejoin="round" stroke-width="1"/>
        <path id="Trazado_874500" data-name="Trazado 874500" d="M315.749,165.62s26.51,17.523,26.06,85.371" transform="translate(-115.052 -60.348)" fill="none" stroke="#263238" stroke-linecap="round" stroke-linejoin="round" stroke-width="2"/>
        <path id="Trazado_874501" data-name="Trazado 874501" d="M348.707,156.557s-.844,7.683-6.884,7.566-8.939-10.439-15.285-8.531-7.842,12.839-7.842,12.839,6.232-4.316,9.175-1.639,1.908,6.345.265,5.619-10.624-3.521-11.507,3.358a14.628,14.628,0,0,0,2.938,11.124s7.5-11.616,12.044-9.016-4.245,3.821-8.069,8.024-6.425,8.75-3.521,10.624a44.776,44.776,0,0,1,6.725,6.118s-.3-6.421,3.9-11.044,7.149-1.947,3.325,2.257-2.681,11.389-2.681,11.389,10.129,1.533,17.659-.833,7.8-5.2,5.661-7.911-9.974-6.77-7.3-9.711,7.523,14.528,11.385,11.127,5.278-7.489,3.521-10.624l-1.757-3.134s-7.834-4.055-9.973-6.77,1.147-1.261,4.854.575,11.617,7.5,12.344,5.854-1.295-10.4-2.631-13.15-13.34-1.382-14.6-2.529,5.43-4.278,7.455-3.972a44.167,44.167,0,0,1,4.472,1s.576-4.854-5.691-9.788-7.989,1.181-7.989,1.181" transform="translate(-115.325 -55.915)" fill="#abdbff"/>
        <g id="Grupo_1100281" data-name="Grupo 1100281" transform="translate(201.172 97.538)" opacity="0.3">
          <g id="Grupo_1100280" data-name="Grupo 1100280">
            <g id="Grupo_1100279" data-name="Grupo 1100279" clip-path="url(#clip-path-7)">
              <path id="Trazado_874502" data-name="Trazado 874502" d="M348.707,156.557s-.844,7.683-6.884,7.566-8.939-10.439-15.285-8.531-7.842,12.839-7.842,12.839,6.232-4.316,9.175-1.639,1.908,6.345.265,5.619-10.624-3.521-11.507,3.358a14.628,14.628,0,0,0,2.938,11.124s7.5-11.616,12.044-9.016-4.245,3.821-8.069,8.024-6.425,8.75-3.521,10.624a44.776,44.776,0,0,1,6.725,6.118s-.3-6.421,3.9-11.044,7.149-1.947,3.325,2.257-2.681,11.389-2.681,11.389,10.129,1.533,17.659-.833,7.8-5.2,5.661-7.911-9.974-6.77-7.3-9.711,7.523,14.528,11.385,11.127,5.278-7.489,3.521-10.624l-1.757-3.134s-7.834-4.055-9.973-6.77,1.147-1.261,4.854.575,11.617,7.5,12.344,5.854-1.295-10.4-2.631-13.15-13.34-1.382-14.6-2.529,5.43-4.278,7.455-3.972a44.167,44.167,0,0,1,4.472,1s.576-4.854-5.691-9.788-7.989,1.181-7.989,1.181" transform="translate(-316.497 -153.453)" fill="#263238"/>
            </g>
          </g>
        </g>
        <path id="Trazado_874503" data-name="Trazado 874503" d="M356.015,204.514c-1.415-6.6-3.009-15.923-2.352-22.129" transform="translate(-128.812 -66.457)" fill="none" stroke="#263238" stroke-linecap="round" stroke-linejoin="round" stroke-width="1"/>
        <path id="Trazado_874504" data-name="Trazado 874504" d="M359.745,226.9s-.494-1.8-1.15-4.6" transform="translate(-130.664 -81)" fill="none" stroke="#263238" stroke-linecap="round" stroke-linejoin="round" stroke-width="1"/>
        <path id="Trazado_874505" data-name="Trazado 874505" d="M358.082,180.283s10.893.693,18.765,5.551" transform="translate(-130.478 -65.691)" fill="none" stroke="#263238" stroke-linecap="round" stroke-linejoin="round" stroke-width="1"/>
        <path id="Trazado_874506" data-name="Trazado 874506" d="M357.475,194.095s.306-2.026,8.712,5.623" transform="translate(-130.256 -70.636)" fill="none" stroke="#263238" stroke-linecap="round" stroke-linejoin="round" stroke-width="1"/>
        <path id="Trazado_874507" data-name="Trazado 874507" d="M345.466,173.965s-.228-4.816-6.38-7.341" transform="translate(-123.556 -60.714)" fill="none" stroke="#263238" stroke-linecap="round" stroke-linejoin="round" stroke-width="1"/>
        <line id="Línea_3433" data-name="Línea 3433" x1="5.274" y1="0.958" transform="translate(217.779 119.48)" fill="none" stroke="#263238" stroke-linecap="round" stroke-linejoin="round" stroke-width="1"/>
        <path id="Trazado_874508" data-name="Trazado 874508" d="M343.787,200.846s-9.939,2.48-13.381,6.263" transform="translate(-120.393 -73.184)" fill="none" stroke="#263238" stroke-linecap="round" stroke-linejoin="round" stroke-width="1"/>
        <path id="Trazado_874509" data-name="Trazado 874509" d="M332.008,231.2s17.074,13.03,18.872,32.351l-3.6-64.7" transform="translate(-120.977 -72.455)" fill="none" stroke="#263238" stroke-linecap="round" stroke-linejoin="round" stroke-width="2"/>
        <path id="Trazado_874510" data-name="Trazado 874510" d="M364.693,245.582s-13.03-94.807,24.713-94.807" transform="translate(-132.094 -54.939)" fill="none" stroke="#263238" stroke-linecap="round" stroke-linejoin="round" stroke-width="2"/>
        <path id="Trazado_874511" data-name="Trazado 874511" d="M413.2,160.334c-4.176-2.471-8.8-2.525-11.058-5.131s2.18-3.925,4.557-2.942,7.888,3.82,8.933,4.437.32-8.407-1.615-11.806-7.231-5.379-9.878-2.6c-5.579,5.86-14.282-1.824-13.687-6.4s-3.68-9.506-12.856-6.618-5.756,4.488-5.756,4.488,6.516,3.995,10.692,6.465,11.1,4.59,9.61,6.389-5.487.7-8.833-1.983-12.955-9.072-13.939-6.694-4.437,8.932-4.437,8.932a97.725,97.725,0,0,1,12.583,2.792c5.586,1.754,6.729,4.826,2.362,5.061s-12.294-3.043-14.764,1.133-.78,14.9-.78,14.9,8-5.417,12.074-5.4,1.471,2.279-3.088,5.22a62.407,62.407,0,0,0-5.717,3.947l4.145,10.625a76.521,76.521,0,0,1,9.565-.685l2.705.191s-.028-11.151,3.2-14.458,3.772,4.344,4.45,6.3-1.365,7.79-1.365,7.79,7.919-4.336,10.488-6.057l2.569-1.723s-2.963-8.095-4.976-10.412-4.755-1.967-2.438-3.979,5.778-.952,7.752,1.907a59.866,59.866,0,0,1,4.3,8.461s2.958.481,6.8-3.871,2.584-5.8-1.592-8.269m-36.3,12.278c-3.069-1.534,4.219-4.6,4.219-4.6,2.685-.384-1.15,6.138-4.219,4.6m5.168-14.321c-1.309-.654,2.616-1.962,2.616-1.962,5.668,1.09-1.309,2.616-2.616,1.962" transform="translate(-132.55 -46.789)" fill="#abdbff"/>
        <path id="Trazado_874512" data-name="Trazado 874512" d="M382.882,210.246q-1.2,1.265-2.46,2.454" transform="translate(-138.618 -76.609)" fill="none" stroke="#263238" stroke-linecap="round" stroke-linejoin="round" stroke-width="1"/>
        <path id="Trazado_874513" data-name="Trazado 874513" d="M401.484,172.689a101.666,101.666,0,0,1-13.216,21.035" transform="translate(-141.477 -62.924)" fill="none" stroke="#263238" stroke-linecap="round" stroke-linejoin="round" stroke-width="1"/>
        <path id="Trazado_874514" data-name="Trazado 874514" d="M411.293,163.958c1.84-4.114,2.784-6.827,2.784-6.827a11.344,11.344,0,0,0,6.745.748,12.782,12.782,0,0,1,5.991-.121" transform="translate(-149.867 -57.255)" fill="none" stroke="#263238" stroke-linecap="round" stroke-linejoin="round" stroke-width="1"/>
        <path id="Trazado_874515" data-name="Trazado 874515" d="M398.86,162.043c.869-.754-12.529-7.41-12.529-7.41" transform="translate(-140.771 -56.345)" fill="none" stroke="#263238" stroke-linecap="round" stroke-linejoin="round" stroke-width="1"/>
        <path id="Trazado_874516" data-name="Trazado 874516" d="M417.145,172.636s6.341,2.623,9.862,6.678" transform="translate(-151.999 -62.905)" fill="none" stroke="#263238" stroke-linecap="round" stroke-linejoin="round" stroke-width="1"/>
        <path id="Trazado_874517" data-name="Trazado 874517" d="M392.1,178.974a53.135,53.135,0,0,0-10.282-.726,33.055,33.055,0,0,0-10.183,1.729" transform="translate(-135.417 -64.946)" fill="none" stroke="#263238" stroke-linecap="round" stroke-linejoin="round" stroke-width="1"/>
        <path id="Trazado_874518" data-name="Trazado 874518" d="M406.363,185.992s7.019,4.575,6.888,10.275" transform="translate(-148.07 -67.772)" fill="none" stroke="#263238" stroke-linecap="round" stroke-linejoin="round" stroke-width="1"/>
        <path id="Trazado_874519" data-name="Trazado 874519" d="M307.268,155.61s-4.22,3.069-6.9,0,1.151-9.206-2.685-11.508-9.974,1.918-9.974,1.918,4.986,1.15,4.986,3.836-2.3,3.836-2.685,2.685-3.069-6.9-6.9-4.219a9.877,9.877,0,0,0-4.22,6.521s9.206-1.534,9.974,1.918-3.836-.384-7.672-.384-7.288.767-6.9,3.069a30.206,30.206,0,0,1,0,6.138,11.4,11.4,0,0,1,7.289-3.069c4.219,0,4.219,2.685.383,2.685s-6.9,3.836-6.9,3.836,3.836,5.754,8.439,8.44,6.138,1.534,6.521-.767-1.151-8.056,1.534-8.056-3.836,10.357-.384,10.741,6.138-.767,6.9-3.069l.767-2.3s-1.534-5.754-1.15-8.055,1.15,0,1.918,2.685,1.534,9.206,2.685,8.823,4.6-5.37,5.37-7.289-5.37-7.289-5.37-8.439,4.6.767,5.37,1.918a29.9,29.9,0,0,1,1.534,2.685s2.685-1.918,2.3-7.288-4.219-3.453-4.219-3.453" transform="translate(-99.931 -52.258)" fill="#abdbff"/>
        <path id="Trazado_874520" data-name="Trazado 874520" d="M292.388,178.054c2.651-3.7,6.584-8.737,9.981-11.228" transform="translate(-106.54 -60.788)" fill="none" stroke="#263238" stroke-linecap="round" stroke-linejoin="round" stroke-width="1"/>
        <path id="Trazado_874521" data-name="Trazado 874521" d="M287.572,190.042s.674-1.065,1.774-2.665" transform="translate(-104.785 -68.276)" fill="none" stroke="#263238" stroke-linecap="round" stroke-linejoin="round" stroke-width="1"/>
        <path id="Trazado_874522" data-name="Trazado 874522" d="M311.109,168.033s4.6,5.754,5.754,11.892" transform="translate(-113.362 -61.228)" fill="none" stroke="#263238" stroke-linecap="round" stroke-linejoin="round" stroke-width="1"/>
        <path id="Trazado_874523" data-name="Trazado 874523" d="M303.866,174.056s1.151-.767,1.151,6.9" transform="translate(-110.722 -63.414)" fill="none" stroke="#263238" stroke-linecap="round" stroke-linejoin="round" stroke-width="1"/>
        <path id="Trazado_874524" data-name="Trazado 874524" d="M308.091,158.863s2.3-2.3.767-6.521" transform="translate(-112.262 -55.51)" fill="none" stroke="#263238" stroke-linecap="round" stroke-linejoin="round" stroke-width="1"/>
        <line id="Línea_3434" data-name="Línea 3434" x1="1.918" y1="3.069" transform="translate(190.842 104.12)" fill="none" stroke="#263238" stroke-linecap="round" stroke-linejoin="round" stroke-width="1"/>
        <path id="Trazado_874525" data-name="Trazado 874525" d="M292.554,171.869s-5.754-3.836-9.206-3.836" transform="translate(-103.246 -61.228)" fill="none" stroke="#263238" stroke-linecap="round" stroke-linejoin="round" stroke-width="1"/>
        <path id="Trazado_874526" data-name="Trazado 874526" d="M332.414,237.773s12.131-6.74,13.03,8.537c.556,9.438,1.625,50.949,2.361,81.3" transform="translate(-121.125 -86.1)" fill="none" stroke="#263238" stroke-linecap="round" stroke-linejoin="round" stroke-width="2"/>
        <path id="Trazado_874527" data-name="Trazado 874527" d="M359.059,254.171s-7.472,16.627-6.482,79.95" transform="translate(-128.439 -92.615)" fill="none" stroke="#263238" stroke-linecap="round" stroke-linejoin="round" stroke-width="2"/>
        <path id="Trazado_874528" data-name="Trazado 874528" d="M345.1,235.641s4.641,2.973,7.281-.43-1.786-9.637,2.116-12.3,10.636,1.4,10.636,1.4-5.187,1.524-5.02,4.355,2.666,3.9,3,2.665,2.806-7.472,7.018-4.879a10.433,10.433,0,0,1,4.855,6.614s-9.8-1.046-10.4,2.643,4.021-.643,8.066-.882,7.734.355,7.472,2.806a31.93,31.93,0,0,0,.382,6.472,12.044,12.044,0,0,0-7.877-2.782c-4.45.263-4.283,3.094-.238,2.855s7.52,3.615,7.52,3.615-3.687,6.307-8.374,9.424-6.377,2-6.924-.4.713-8.566-2.119-8.4,4.69,10.684,1.073,11.3-6.52-.427-7.472-2.807l-.952-2.379s1.26-6.163.713-8.566-1.213.072-1.855,2.951-1.046,9.8-2.283,9.471-5.188-5.377-6.117-7.352,5.21-8.02,5.138-9.234-4.807,1.1-5.544,2.357a31.39,31.39,0,0,0-1.451,2.927s-2.951-1.855-2.881-7.543,4.234-3.9,4.234-3.9" transform="translate(-124.205 -80.893)" fill="#abdbff"/>
        <g id="Grupo_1100284" data-name="Grupo 1100284" transform="translate(216.663 141.11)" opacity="0.3">
          <g id="Grupo_1100283" data-name="Grupo 1100283">
            <g id="Grupo_1100282" data-name="Grupo 1100282" clip-path="url(#clip-path-5)">
              <path id="Trazado_874529" data-name="Trazado 874529" d="M345.1,235.641s4.641,2.973,7.281-.43-1.786-9.637,2.116-12.3,10.636,1.4,10.636,1.4-5.187,1.524-5.02,4.355,2.666,3.9,3,2.665,2.806-7.472,7.018-4.879a10.433,10.433,0,0,1,4.855,6.614s-9.8-1.046-10.4,2.643,4.021-.643,8.066-.882,7.734.355,7.472,2.806a31.93,31.93,0,0,0,.382,6.472,12.044,12.044,0,0,0-7.877-2.782c-4.45.263-4.283,3.094-.238,2.855s7.52,3.615,7.52,3.615-3.687,6.307-8.374,9.424-6.377,2-6.924-.4.713-8.566-2.119-8.4,4.69,10.684,1.073,11.3-6.52-.427-7.472-2.807l-.952-2.379s1.26-6.163.713-8.566-1.213.072-1.855,2.951-1.046,9.8-2.283,9.471-5.188-5.377-6.117-7.352,5.21-8.02,5.138-9.234-4.807,1.1-5.544,2.357a31.39,31.39,0,0,0-1.451,2.927s-2.951-1.855-2.881-7.543,4.234-3.9,4.234-3.9" transform="translate(-340.868 -222.004)" fill="#263238"/>
            </g>
          </g>
        </g>
        <path id="Trazado_874530" data-name="Trazado 874530" d="M378.11,258.006c-3.026-3.741-7.486-8.8-11.224-11.219" transform="translate(-133.686 -89.924)" fill="none" stroke="#263238" stroke-linecap="round" stroke-linejoin="round" stroke-width="1"/>
        <path id="Trazado_874531" data-name="Trazado 874531" d="M388.9,270.056s-.777-1.081-2.037-2.7" transform="translate(-140.964 -97.419)" fill="none" stroke="#263238" stroke-linecap="round" stroke-linejoin="round" stroke-width="1"/>
        <path id="Trazado_874532" data-name="Trazado 874532" d="M360.726,248.248s-4.5,6.354-5.328,12.9" transform="translate(-129.5 -90.456)" fill="none" stroke="#263238" stroke-linecap="round" stroke-linejoin="round" stroke-width="1"/>
        <path id="Trazado_874533" data-name="Trazado 874533" d="M371.281,254.152s-1.261-.737-.784,7.353" transform="translate(-134.962 -92.601)" fill="none" stroke="#263238" stroke-linecap="round" stroke-linejoin="round" stroke-width="1"/>
        <path id="Trazado_874534" data-name="Trazado 874534" d="M365.7,238.418s-2.57-2.284-1.215-6.829" transform="translate(-132.667 -84.386)" fill="none" stroke="#263238" stroke-linecap="round" stroke-linejoin="round" stroke-width="1"/>
        <line id="Línea_3435" data-name="Línea 3435" y1="3.355" x2="1.832" transform="translate(236.509 154.531)" fill="none" stroke="#263238" stroke-linecap="round" stroke-linejoin="round" stroke-width="1"/>
        <path id="Trazado_874535" data-name="Trazado 874535" d="M378.156,251.139s5.829-4.4,9.469-4.618" transform="translate(-137.792 -89.827)" fill="none" stroke="#263238" stroke-linecap="round" stroke-linejoin="round" stroke-width="1"/>
        <path id="Trazado_874536" data-name="Trazado 874536" d="M311,222.912s.186,6.673,5.393,7,8.43-8.357,13.759-6.267S336,235.247,336,235.247s-5.061-4.154-7.782-2.057-2.09,5.328-.624,4.819,9.395-2.283,9.669,3.7a12.638,12.638,0,0,1-3.312,9.37s-5.636-10.528-9.734-8.609,3.385,3.587,6.381,7.475,4.915,7.985,2.283,9.394a38.678,38.678,0,0,0-6.22,4.794,14.583,14.583,0,0,0-2.583-9.783c-3.3-4.276-6.017-2.178-3.02,1.709s1.506,9.993,1.506,9.993-8.827.607-15.144-1.96-6.349-5.021-4.316-7.208,9.062-5.126,6.965-7.847-7.5,11.977-10.585,8.778-4.016-6.819-2.283-9.394l1.733-2.576s7.03-2.939,9.063-5.126-.9-1.166-4.219.154-10.528,5.636-11.038,4.17,1.847-8.86,3.191-11.135,11.58-.25,12.747-1.149-4.373-4.065-6.138-3.944a38.122,38.122,0,0,0-3.92.542s-.154-4.219,5.588-8.025,6.794,1.58,6.794,1.58" transform="translate(-106.641 -80.153)" fill="#abdbff"/>
        <g id="Grupo_1100287" data-name="Grupo 1100287" transform="translate(186.025 139.819)" opacity="0.2">
          <g id="Grupo_1100286" data-name="Grupo 1100286">
            <g id="Grupo_1100285" data-name="Grupo 1100285" clip-path="url(#clip-path-6)">
              <path id="Trazado_874537" data-name="Trazado 874537" d="M311,222.912s.186,6.673,5.393,7,8.43-8.357,13.759-6.267S336,235.247,336,235.247s-5.061-4.154-7.782-2.057-2.09,5.328-.624,4.819,9.395-2.283,9.669,3.7a12.638,12.638,0,0,1-3.312,9.37s-5.636-10.528-9.734-8.609,3.385,3.587,6.381,7.475,4.915,7.985,2.283,9.394a38.678,38.678,0,0,0-6.22,4.794,14.583,14.583,0,0,0-2.583-9.783c-3.3-4.276-6.017-2.178-3.02,1.709s1.506,9.993,1.506,9.993-8.827.607-15.144-1.96-6.349-5.021-4.316-7.208,9.062-5.126,6.965-7.847-7.5,11.977-10.585,8.778-4.016-6.819-2.283-9.394l1.733-2.576s7.03-2.939,9.063-5.126-.9-1.166-4.219.154-10.528,5.636-11.038,4.17,1.847-8.86,3.191-11.135,11.58-.25,12.747-1.149-4.373-4.065-6.138-3.944a38.122,38.122,0,0,0-3.92.542s-.154-4.219,5.588-8.025,6.794,1.58,6.794,1.58" transform="translate(-292.666 -219.972)" fill="#263238"/>
            </g>
          </g>
        </g>
        <path id="Trazado_874538" data-name="Trazado 874538" d="M325.734,265.128c1.683-5.58,3.711-13.5,3.582-18.884" transform="translate(-118.691 -89.726)" fill="none" stroke="#263238" stroke-linecap="round" stroke-linejoin="round" stroke-width="1"/>
        <path id="Trazado_874539" data-name="Trazado 874539" d="M322.323,284.141s.551-1.515,1.314-3.879" transform="translate(-117.448 -102.122)" fill="none" stroke="#263238" stroke-linecap="round" stroke-linejoin="round" stroke-width="1"/>
        <path id="Trazado_874540" data-name="Trazado 874540" d="M318.306,244.128s-9.426-.17-16.545,3.457" transform="translate(-109.955 -88.955)" fill="none" stroke="#263238" stroke-linecap="round" stroke-linejoin="round" stroke-width="1"/>
        <path id="Trazado_874541" data-name="Trazado 874541" d="M322.8,256.043s-.121-1.765-7.9,4.227" transform="translate(-114.746 -93.208)" fill="none" stroke="#263238" stroke-linecap="round" stroke-linejoin="round" stroke-width="1"/>
        <path id="Trazado_874542" data-name="Trazado 874542" d="M335.651,239.58s.535-4.13,6.009-5.871" transform="translate(-122.304 -85.159)" fill="none" stroke="#263238" stroke-linecap="round" stroke-linejoin="round" stroke-width="1"/>
        <line id="Línea_3436" data-name="Línea 3436" y1="0.453" x2="4.608" transform="translate(211.857 160.074)" fill="none" stroke="#263238" stroke-linecap="round" stroke-linejoin="round" stroke-width="1"/>
        <path id="Trazado_874543" data-name="Trazado 874543" d="M332.045,262.3s8.381,2.835,11.078,6.333" transform="translate(-120.99 -95.576)" fill="none" stroke="#263238" stroke-linecap="round" stroke-linejoin="round" stroke-width="1"/>
        <path id="Trazado_874544" data-name="Trazado 874544" d="M395.648,294.466s-18.038,11.924-24.1,54.178" transform="translate(-135.383 -107.297)" fill="none" stroke="#263238" stroke-linecap="round" stroke-linejoin="round" stroke-width="2"/>
        <path id="Trazado_874545" data-name="Trazado 874545" d="M347.072,285.4s.844,7.683,6.884,7.565,8.939-10.439,15.285-8.531,7.842,12.84,7.842,12.84-6.233-4.316-9.175-1.639-1.908,6.345-.265,5.619,10.624-3.521,11.507,3.358a14.631,14.631,0,0,1-2.938,11.125s-7.5-11.617-12.044-9.016,4.245,3.821,8.069,8.023,6.425,8.75,3.521,10.624a44.8,44.8,0,0,0-6.725,6.118s.3-6.421-3.9-11.045S357.98,318.5,361.8,322.7s2.681,11.389,2.681,11.389-10.129,1.533-17.659-.833-7.8-5.194-5.661-7.91,9.974-6.77,7.3-9.712-7.523,14.528-11.385,11.128-5.278-7.49-3.521-10.624l1.757-3.135s7.834-4.055,9.973-6.77-1.147-1.261-4.854.575-11.617,7.5-12.344,5.854,1.295-10.4,2.631-13.15,13.339-1.382,14.6-2.529-5.429-4.278-7.455-3.972a44.169,44.169,0,0,0-4.472,1s-.576-4.854,5.691-9.788,7.989,1.182,7.989,1.182" transform="translate(-119.492 -102.864)" fill="#abdbff"/>
        <g id="Grupo_1100290" data-name="Grupo 1100290" transform="translate(208.441 179.435)" opacity="0.3">
          <g id="Grupo_1100289" data-name="Grupo 1100289">
            <g id="Grupo_1100288" data-name="Grupo 1100288" clip-path="url(#clip-path-7)">
              <path id="Trazado_874546" data-name="Trazado 874546" d="M347.072,285.4s.844,7.683,6.884,7.565,8.939-10.439,15.285-8.531,7.842,12.84,7.842,12.84-6.233-4.316-9.175-1.639-1.908,6.345-.265,5.619,10.624-3.521,11.507,3.358a14.631,14.631,0,0,1-2.938,11.125s-7.5-11.617-12.044-9.016,4.245,3.821,8.069,8.023,6.425,8.75,3.521,10.624a44.8,44.8,0,0,0-6.725,6.118s.3-6.421-3.9-11.045S357.98,318.5,361.8,322.7s2.681,11.389,2.681,11.389-10.129,1.533-17.659-.833-7.8-5.194-5.661-7.91,9.974-6.77,7.3-9.712-7.523,14.528-11.385,11.128-5.278-7.49-3.521-10.624l1.757-3.135s7.834-4.055,9.973-6.77-1.147-1.261-4.854.575-11.617,7.5-12.344,5.854,1.295-10.4,2.631-13.15,13.339-1.382,14.6-2.529-5.429-4.278-7.455-3.972a44.169,44.169,0,0,0-4.472,1s-.576-4.854,5.691-9.788,7.989,1.182,7.989,1.182" transform="translate(-327.933 -282.299)" fill="#263238"/>
            </g>
          </g>
        </g>
        <path id="Trazado_874547" data-name="Trazado 874547" d="M367.764,333.36c1.415-6.6,3.008-15.923,2.352-22.129" transform="translate(-134.005 -113.406)" fill="none" stroke="#263238" stroke-linecap="round" stroke-linejoin="round" stroke-width="1"/>
        <path id="Trazado_874548" data-name="Trazado 874548" d="M364.81,355.744s.494-1.8,1.15-4.6" transform="translate(-132.929 -127.949)" fill="none" stroke="#263238" stroke-linecap="round" stroke-linejoin="round" stroke-width="1"/>
        <path id="Trazado_874549" data-name="Trazado 874549" d="M356.376,309.129s-10.893.693-18.765,5.551" transform="translate(-123.018 -112.64)" fill="none" stroke="#263238" stroke-linecap="round" stroke-linejoin="round" stroke-width="1"/>
        <path id="Trazado_874550" data-name="Trazado 874550" d="M362.745,322.941s-.306-2.026-8.712,5.623" transform="translate(-129.002 -117.584)" fill="none" stroke="#263238" stroke-linecap="round" stroke-linejoin="round" stroke-width="1"/>
        <path id="Trazado_874551" data-name="Trazado 874551" d="M376.092,302.811s.228-4.816,6.38-7.341" transform="translate(-137.04 -107.663)" fill="none" stroke="#263238" stroke-linecap="round" stroke-linejoin="round" stroke-width="1"/>
        <line id="Línea_3437" data-name="Línea 3437" y1="0.958" x2="5.274" transform="translate(237.909 201.377)" fill="none" stroke="#263238" stroke-linecap="round" stroke-linejoin="round" stroke-width="1"/>
        <path id="Trazado_874552" data-name="Trazado 874552" d="M373.757,329.692s9.939,2.48,13.381,6.263" transform="translate(-136.189 -120.133)" fill="none" stroke="#263238" stroke-linecap="round" stroke-linejoin="round" stroke-width="1"/>
        <line id="Línea_3438" data-name="Línea 3438" y1="32.86" x2="1.825" transform="translate(232.828 208.287)" fill="none" stroke="#263238" stroke-linecap="round" stroke-linejoin="round" stroke-width="2"/>
        <path id="Trazado_874553" data-name="Trazado 874553" d="M347.258,343.4c.388-27.651-3.564-63.775-26.862-63.775" transform="translate(-116.746 -101.888)" fill="none" stroke="#263238" stroke-linecap="round" stroke-linejoin="round" stroke-width="2"/>
        <path id="Trazado_874554" data-name="Trazado 874554" d="M281.447,289.18c4.176-2.471,8.8-2.525,11.058-5.131s-2.18-3.925-4.558-2.942-7.888,3.82-8.932,4.437-.321-8.407,1.614-11.806,7.232-5.379,9.878-2.6c5.579,5.86,14.282-1.824,13.687-6.4s3.68-9.505,12.857-6.618,5.756,4.488,5.756,4.488-6.516,3.995-10.692,6.466-11.1,4.59-9.61,6.388,5.487.7,8.833-1.983,12.955-9.072,13.939-6.694,4.437,8.932,4.437,8.932a97.7,97.7,0,0,0-12.583,2.792c-5.587,1.754-6.729,4.826-2.362,5.061s12.294-3.043,14.764,1.133.78,14.9.78,14.9-8-5.417-12.074-5.4-1.471,2.279,3.088,5.22a62.413,62.413,0,0,1,5.717,3.947L322.9,313.99a76.431,76.431,0,0,0-9.565-.684l-2.705.191s.029-11.151-3.2-14.458-3.772,4.345-4.45,6.3,1.365,7.79,1.365,7.79-7.92-4.336-10.488-6.057l-2.569-1.723s2.964-8.095,4.976-10.412,4.756-1.967,2.438-3.979-5.778-.952-7.751,1.907a59.822,59.822,0,0,0-4.3,8.461s-2.958.48-6.8-3.871-2.585-5.8,1.592-8.269m36.3,12.278c3.069-1.534-4.219-4.6-4.219-4.6-2.686-.384,1.15,6.138,4.219,4.6m-5.168-14.321c1.308-.654-2.616-1.962-2.616-1.962-5.668,1.09,1.308,2.616,2.616,1.962" transform="translate(-101.134 -93.738)" fill="#abdbff"/>
        <path id="Trazado_874555" data-name="Trazado 874555" d="M340.923,339.092q1.2,1.265,2.46,2.454" transform="translate(-124.225 -123.558)" fill="none" stroke="#263238" stroke-linecap="round" stroke-linejoin="round" stroke-width="1"/>
        <path id="Trazado_874556" data-name="Trazado 874556" d="M316.155,301.535a101.665,101.665,0,0,0,13.216,21.035" transform="translate(-115.2 -109.873)" fill="none" stroke="#263238" stroke-linecap="round" stroke-linejoin="round" stroke-width="1"/>
        <path id="Trazado_874557" data-name="Trazado 874557" d="M305.025,292.8c-1.84-4.114-2.784-6.827-2.784-6.827a11.344,11.344,0,0,1-6.745.748,12.782,12.782,0,0,0-5.991-.121" transform="translate(-105.49 -104.204)" fill="none" stroke="#263238" stroke-linecap="round" stroke-linejoin="round" stroke-width="1"/>
        <path id="Trazado_874558" data-name="Trazado 874558" d="M319.15,290.889c-.869-.754,12.529-7.41,12.529-7.41" transform="translate(-116.277 -103.294)" fill="none" stroke="#263238" stroke-linecap="round" stroke-linejoin="round" stroke-width="1"/>
        <path id="Trazado_874559" data-name="Trazado 874559" d="M302.417,301.482s-6.341,2.623-9.862,6.679" transform="translate(-106.601 -109.854)" fill="none" stroke="#263238" stroke-linecap="round" stroke-linejoin="round" stroke-width="1"/>
        <path id="Trazado_874560" data-name="Trazado 874560" d="M321.381,307.82a53.138,53.138,0,0,1,10.282-.726,33.048,33.048,0,0,1,10.183,1.729" transform="translate(-117.105 -111.894)" fill="none" stroke="#263238" stroke-linecap="round" stroke-linejoin="round" stroke-width="1"/>
        <path id="Trazado_874561" data-name="Trazado 874561" d="M314.9,314.838s-7.019,4.575-6.888,10.275" transform="translate(-112.233 -114.72)" fill="none" stroke="#263238" stroke-linecap="round" stroke-linejoin="round" stroke-width="1"/>
        <path id="Trazado_874562" data-name="Trazado 874562" d="M396.579,284.456s4.22,3.069,6.9,0-1.151-9.206,2.685-11.508,9.974,1.918,9.974,1.918-4.986,1.15-4.986,3.836,2.3,3.836,2.685,2.685,3.069-6.9,6.905-4.219a9.875,9.875,0,0,1,4.219,6.521s-9.206-1.534-9.974,1.918,3.836-.384,7.672-.384,7.288.767,6.9,3.069a30.2,30.2,0,0,0,0,6.138,11.4,11.4,0,0,0-7.288-3.069c-4.22,0-4.22,2.685-.384,2.685s6.9,3.836,6.9,3.836-3.836,5.754-8.439,8.439-6.138,1.534-6.521-.767,1.151-8.056-1.534-8.056,3.836,10.357.384,10.741-6.138-.767-6.9-3.069l-.767-2.3s1.534-5.754,1.15-8.055-1.15,0-1.918,2.685-1.534,9.206-2.685,8.822-4.6-5.37-5.37-7.288,5.37-7.289,5.37-8.439-4.6.767-5.37,1.918a29.832,29.832,0,0,0-1.534,2.685s-2.686-1.918-2.3-7.288,4.219-3.453,4.219-3.453" transform="translate(-142.954 -99.206)" fill="#abdbff"/>
        <path id="Trazado_874563" data-name="Trazado 874563" d="M427.105,306.9c-2.651-3.7-6.584-8.737-9.981-11.228" transform="translate(-151.991 -107.737)" fill="none" stroke="#263238" stroke-linecap="round" stroke-linejoin="round" stroke-width="1"/>
        <path id="Trazado_874564" data-name="Trazado 874564" d="M436.626,318.888s-.674-1.065-1.774-2.665" transform="translate(-158.451 -115.225)" fill="none" stroke="#263238" stroke-linecap="round" stroke-linejoin="round" stroke-width="1"/>
        <path id="Trazado_874565" data-name="Trazado 874565" d="M410.808,296.879s-4.6,5.754-5.754,11.891" transform="translate(-147.593 -108.176)" fill="none" stroke="#263238" stroke-linecap="round" stroke-linejoin="round" stroke-width="1"/>
        <path id="Trazado_874566" data-name="Trazado 874566" d="M420.689,302.9s-1.151-.767-1.151,6.9" transform="translate(-152.871 -110.363)" fill="none" stroke="#263238" stroke-linecap="round" stroke-linejoin="round" stroke-width="1"/>
        <path id="Trazado_874567" data-name="Trazado 874567" d="M416.382,287.708s-2.3-2.3-.767-6.521" transform="translate(-151.249 -102.459)" fill="none" stroke="#263238" stroke-linecap="round" stroke-linejoin="round" stroke-width="1"/>
        <line id="Línea_3439" data-name="Línea 3439" y1="3.069" x2="1.918" transform="translate(268.202 186.017)" fill="none" stroke="#263238" stroke-linecap="round" stroke-linejoin="round" stroke-width="1"/>
        <path id="Trazado_874568" data-name="Trazado 874568" d="M427.383,300.715s5.754-3.836,9.206-3.836" transform="translate(-155.729 -108.176)" fill="none" stroke="#263238" stroke-linecap="round" stroke-linejoin="round" stroke-width="1"/>
      </g>
    </g>
    <g id="Grupo_1100297" data-name="Grupo 1100297">
      <g id="Grupo_1100296" data-name="Grupo 1100296" clip-path="url(#clip-path)">
        <g id="Grupo_1100295" data-name="Grupo 1100295" transform="translate(25.495 5.403)" opacity="0.2">
          <g id="Grupo_1100294" data-name="Grupo 1100294">
            <g id="Grupo_1100293" data-name="Grupo 1100293" clip-path="url(#clip-path-12)">
              <rect id="Rectángulo_403579" data-name="Rectángulo 403579" width="141.108" height="185.816" transform="translate(0 0)"/>
            </g>
          </g>
        </g>
      </g>
    </g>
    <rect id="Rectángulo_403582" data-name="Rectángulo 403582" width="141.108" height="185.816" transform="translate(21.045 0.318)" fill="#fff"/>
    <g id="Grupo_1100299" data-name="Grupo 1100299">
      <g id="Grupo_1100298" data-name="Grupo 1100298" clip-path="url(#clip-path)">
        <rect id="Rectángulo_403583" data-name="Rectángulo 403583" width="141.108" height="185.816" transform="translate(21.045 0.318)" fill="none" stroke="#263238" stroke-linecap="round" stroke-linejoin="round" stroke-width="1"/>
      </g>
    </g>
    <path id="Trazado_874569" data-name="Trazado 874569" d="M141.472,75.9H45.108V54.241H170.148V75.9H143.8" transform="translate(-16.436 -19.764)" fill="none" stroke="#263238" stroke-linecap="round" stroke-linejoin="round" stroke-width="1"/>
    <path id="Trazado_874570" data-name="Trazado 874570" d="M52.918,122.195H45.107V111h68.256" transform="translate(-16.436 -40.446)" fill="none" stroke="#263238" stroke-linecap="round" stroke-linejoin="round" stroke-width="1"/>
    <path id="Trazado_874571" data-name="Trazado 874571" d="M122.01,111h53.827v11.194H60.72" transform="translate(-22.125 -40.446)" fill="none" stroke="#263238" stroke-linecap="round" stroke-linejoin="round" stroke-width="1"/>
    <path id="Trazado_874572" data-name="Trazado 874572" d="M150.559,157.836H45.107V146.642H170.149v11.194H152.884" transform="translate(-16.436 -53.433)" fill="none" stroke="#263238" stroke-linecap="round" stroke-linejoin="round" stroke-width="1"/>
    <path id="Trazado_874573" data-name="Trazado 874573" d="M77.434,238.082H45.108v-57H170.148v57H80.6" transform="translate(-16.436 -65.981)" fill="none" stroke="#263238" stroke-linecap="round" stroke-linejoin="round" stroke-width="1"/>
    <rect id="Rectángulo_403585" data-name="Rectángulo 403585" width="125.041" height="9.959" transform="translate(28.671 115.097)" fill="#d1d1d1"/>
    <rect id="Rectángulo_403586" data-name="Rectángulo 403586" width="125.041" height="9.959" transform="translate(28.671 115.097)" fill="none" stroke="#263238" stroke-linecap="round" stroke-linejoin="round" stroke-width="1"/>
    <path id="Trazado_874574" data-name="Trazado 874574" d="M104.55,88.731v14.016H45.108V88.311" transform="translate(-16.436 -32.179)" fill="none" stroke="#263238" stroke-linecap="round" stroke-linejoin="round" stroke-width="1"/>
    <rect id="Rectángulo_403587" data-name="Rectángulo 403587" width="125.041" height="6.287" transform="translate(28.671 42.161)" fill="#d1d1d1"/>
    <rect id="Rectángulo_403588" data-name="Rectángulo 403588" width="125.041" height="6.287" transform="translate(28.671 42.161)" fill="none" stroke="#263238" stroke-linecap="round" stroke-linejoin="round" stroke-width="1"/>
    <rect id="Rectángulo_403589" data-name="Rectángulo 403589" width="125.041" height="6.287" transform="translate(28.671 11.002)" fill="#d1d1d1"/>
    <rect id="Rectángulo_403590" data-name="Rectángulo 403590" width="125.041" height="6.287" transform="translate(28.671 11.002)" fill="none" stroke="#263238" stroke-linecap="round" stroke-linejoin="round" stroke-width="1"/>
    <line id="Línea_3440" data-name="Línea 3440" y2="7.13" transform="translate(112.198 35.061)" fill="none" stroke="#263238" stroke-linecap="round" stroke-linejoin="round" stroke-width="1"/>
    <rect id="Rectángulo_403591" data-name="Rectángulo 403591" width="8.521" height="4.165" transform="translate(119.76 36.253)" fill="#d1d1d1"/>
    <rect id="Rectángulo_403592" data-name="Rectángulo 403592" width="8.521" height="4.165" transform="translate(119.76 36.253)" fill="none" stroke="#263238" stroke-linecap="round" stroke-linejoin="round" stroke-width="1"/>
    <line id="Línea_3441" data-name="Línea 3441" y2="7.558" transform="translate(92.298 48.645)" fill="none" stroke="#263238" stroke-linecap="round" stroke-linejoin="round" stroke-width="1"/>
    <line id="Línea_3442" data-name="Línea 3442" y2="7.558" transform="translate(118.442 48.645)" fill="none" stroke="#263238" stroke-linecap="round" stroke-linejoin="round" stroke-width="1"/>
    <line id="Línea_3443" data-name="Línea 3443" y1="14.339" transform="translate(51.674 56.234)" fill="none" stroke="#263238" stroke-linecap="round" stroke-linejoin="round" stroke-width="1"/>
    <line id="Línea_3444" data-name="Línea 3444" y1="14.339" transform="translate(66.232 56.234)" fill="none" stroke="#263238" stroke-linecap="round" stroke-linejoin="round" stroke-width="1"/>
    <line id="Línea_3445" data-name="Línea 3445" y2="10.904" transform="translate(82.101 70.642)" fill="none" stroke="#263238" stroke-linecap="round" stroke-linejoin="round" stroke-width="1"/>
    <line id="Línea_3446" data-name="Línea 3446" y2="33.717" transform="translate(111.914 70.492)" fill="none" stroke="#263238" stroke-linecap="round" stroke-linejoin="round" stroke-width="1"/>
    <path id="Trazado_874575" data-name="Trazado 874575" d="M45.107,128.612v11.47h83.287" transform="translate(-16.436 -46.863)" fill="none" stroke="#263238" stroke-linecap="round" stroke-linejoin="round" stroke-width="1"/>
    <line id="Línea_3447" data-name="Línea 3447" y2="11.033" transform="translate(60.044 81.828)" fill="none" stroke="#263238" stroke-linecap="round" stroke-linejoin="round" stroke-width="1"/>
    <line id="Línea_3448" data-name="Línea 3448" x2="7.394" transform="translate(146.381 134.335)" fill="none" stroke="#263238" stroke-linecap="round" stroke-linejoin="round" stroke-width="1"/>
    <line id="Línea_3449" data-name="Línea 3449" x2="114.787" transform="translate(28.847 134.335)" fill="none" stroke="#263238" stroke-linecap="round" stroke-linejoin="round" stroke-width="1"/>
    <line id="Línea_3450" data-name="Línea 3450" x2="124.928" transform="translate(28.847 143.336)" fill="none" stroke="#263238" stroke-linecap="round" stroke-linejoin="round" stroke-width="1"/>
    <line id="Línea_3451" data-name="Línea 3451" x2="86.437" transform="translate(67.338 152.302)" fill="none" stroke="#263238" stroke-linecap="round" stroke-linejoin="round" stroke-width="1"/>
    <line id="Línea_3452" data-name="Línea 3452" x2="35.321" transform="translate(28.847 152.302)" fill="none" stroke="#263238" stroke-linecap="round" stroke-linejoin="round" stroke-width="1"/>
    <rect id="Rectángulo_403593" data-name="Rectángulo 403593" width="4.225" height="4.225" transform="translate(48.41 136.816)" fill="#d1d1d1"/>
    <rect id="Rectángulo_403594" data-name="Rectángulo 403594" width="4.225" height="4.225" transform="translate(48.41 136.816)" fill="none" stroke="#263238" stroke-linecap="round" stroke-linejoin="round" stroke-width="1"/>
    <rect id="Rectángulo_403595" data-name="Rectángulo 403595" width="4.225" height="4.225" transform="translate(72.66 136.816)" fill="#d1d1d1"/>
    <rect id="Rectángulo_403596" data-name="Rectángulo 403596" width="4.225" height="4.225" transform="translate(72.66 136.816)" fill="none" stroke="#263238" stroke-linecap="round" stroke-linejoin="round" stroke-width="1"/>
    <rect id="Rectángulo_403597" data-name="Rectángulo 403597" width="4.225" height="4.225" transform="translate(55.912 145.443)" fill="#d1d1d1"/>
    <rect id="Rectángulo_403598" data-name="Rectángulo 403598" width="4.225" height="4.225" transform="translate(55.912 145.443)" fill="none" stroke="#263238" stroke-linecap="round" stroke-linejoin="round" stroke-width="1"/>
    <rect id="Rectángulo_403599" data-name="Rectángulo 403599" width="4.225" height="4.225" transform="translate(79.088 145.443)" fill="#d1d1d1"/>
    <rect id="Rectángulo_403600" data-name="Rectángulo 403600" width="4.225" height="4.225" transform="translate(79.088 145.443)" fill="none" stroke="#263238" stroke-linecap="round" stroke-linejoin="round" stroke-width="1"/>
    <rect id="Rectángulo_403601" data-name="Rectángulo 403601" width="4.225" height="4.225" transform="translate(101.249 145.443)" fill="#d1d1d1"/>
    <rect id="Rectángulo_403602" data-name="Rectángulo 403602" width="4.225" height="4.225" transform="translate(101.249 145.443)" fill="none" stroke="#263238" stroke-linecap="round" stroke-linejoin="round" stroke-width="1"/>
    <rect id="Rectángulo_403603" data-name="Rectángulo 403603" width="4.225" height="4.225" transform="translate(123.749 145.443)" fill="#d1d1d1"/>
    <rect id="Rectángulo_403604" data-name="Rectángulo 403604" width="4.225" height="4.225" transform="translate(123.749 145.443)" fill="none" stroke="#263238" stroke-linecap="round" stroke-linejoin="round" stroke-width="1"/>
    <line id="Línea_3453" data-name="Línea 3453" y2="8.966" transform="translate(53.953 143.415)" fill="none" stroke="#263238" stroke-linecap="round" stroke-linejoin="round" stroke-width="1"/>
    <line id="Línea_3454" data-name="Línea 3454" y2="8.966" transform="translate(76.622 143.415)" fill="none" stroke="#263238" stroke-linecap="round" stroke-linejoin="round" stroke-width="1"/>
    <line id="Línea_3455" data-name="Línea 3455" y2="8.966" transform="translate(99.291 143.415)" fill="none" stroke="#263238" stroke-linecap="round" stroke-linejoin="round" stroke-width="1"/>
    <line id="Línea_3456" data-name="Línea 3456" y2="8.966" transform="translate(121.96 143.415)" fill="none" stroke="#263238" stroke-linecap="round" stroke-linejoin="round" stroke-width="1"/>
    <line id="Línea_3457" data-name="Línea 3457" x2="124.928" transform="translate(28.847 161.439)" fill="none" stroke="#263238" stroke-linecap="round" stroke-linejoin="round" stroke-width="1"/>
    <rect id="Rectángulo_403605" data-name="Rectángulo 403605" width="4.225" height="4.225" transform="translate(40.399 154.58)" fill="#d1d1d1"/>
    <rect id="Rectángulo_403606" data-name="Rectángulo 403606" width="4.225" height="4.225" transform="translate(40.399 154.58)" fill="none" stroke="#263238" stroke-linecap="round" stroke-linejoin="round" stroke-width="1"/>
    <rect id="Rectángulo_403607" data-name="Rectángulo 403607" width="4.225" height="4.225" transform="translate(79.088 154.58)" fill="#d1d1d1"/>
    <rect id="Rectángulo_403608" data-name="Rectángulo 403608" width="4.225" height="4.225" transform="translate(79.088 154.58)" fill="none" stroke="#263238" stroke-linecap="round" stroke-linejoin="round" stroke-width="1"/>
    <rect id="Rectángulo_403609" data-name="Rectángulo 403609" width="4.225" height="4.225" transform="translate(101.249 154.58)" fill="#d1d1d1"/>
    <rect id="Rectángulo_403610" data-name="Rectángulo 403610" width="4.225" height="4.225" transform="translate(101.249 154.58)" fill="none" stroke="#263238" stroke-linecap="round" stroke-linejoin="round" stroke-width="1"/>
    <rect id="Rectángulo_403611" data-name="Rectángulo 403611" width="4.225" height="4.225" transform="translate(129.8 154.58)" fill="#d1d1d1"/>
    <rect id="Rectángulo_403612" data-name="Rectángulo 403612" width="4.225" height="4.225" transform="translate(129.8 154.58)" fill="none" stroke="#263238" stroke-linecap="round" stroke-linejoin="round" stroke-width="1"/>
    <line id="Línea_3458" data-name="Línea 3458" y2="8.879" transform="translate(38.441 152.552)" fill="none" stroke="#263238" stroke-linecap="round" stroke-linejoin="round" stroke-width="1"/>
    <line id="Línea_3459" data-name="Línea 3459" y2="8.879" transform="translate(76.622 152.552)" fill="none" stroke="#263238" stroke-linecap="round" stroke-linejoin="round" stroke-width="1"/>
    <line id="Línea_3460" data-name="Línea 3460" y2="8.879" transform="translate(99.291 152.552)" fill="none" stroke="#263238" stroke-linecap="round" stroke-linejoin="round" stroke-width="1"/>
    <line id="Línea_3461" data-name="Línea 3461" y2="8.879" transform="translate(128.011 152.552)" fill="none" stroke="#263238" stroke-linecap="round" stroke-linejoin="round" stroke-width="1"/>
    <line id="Línea_3462" data-name="Línea 3462" x2="13.768" transform="translate(66.704 30.871)" fill="none" stroke="#263238" stroke-miterlimit="10" stroke-width="1"/>
    <line id="Línea_3463" data-name="Línea 3463" x2="35.236" transform="translate(29.143 30.871)" fill="none" stroke="#263238" stroke-miterlimit="10" stroke-width="1"/>
    <line id="Línea_3464" data-name="Línea 3464" x2="30.348" transform="translate(91.337 30.871)" fill="none" stroke="#263238" stroke-miterlimit="10" stroke-width="1"/>
    <line id="Línea_3465" data-name="Línea 3465" x2="23.978" transform="translate(129.927 30.871)" fill="none" stroke="#263238" stroke-miterlimit="10" stroke-width="1"/>
    <path id="Trazado_874576" data-name="Trazado 874576" d="M213.047,385.153l47.178-1.935,25.759,31.312-63.616,5.544Z" transform="translate(-77.63 -139.637)" fill="#fff"/>
    <path id="Trazado_874577" data-name="Trazado 874577" d="M213.047,385.153l47.178-1.935,25.759,31.312-63.616,5.544Z" transform="translate(-77.63 -139.637)" fill="none" stroke="#263238" stroke-linecap="round" stroke-linejoin="round" stroke-width="1"/>
    <path id="Trazado_874578" data-name="Trazado 874578" d="M228.043,418.151l51-3.556,3.359,4.233-52.94,4.023Z" transform="translate(-83.094 -151.07)" fill="none" stroke="#263238" stroke-linecap="round" stroke-linejoin="round" stroke-width="0.5"/>
    <path id="Trazado_874579" data-name="Trazado 874579" d="M225.632,410.429l48.875-3.076,1.557,1.961-49.78,3.277Z" transform="translate(-82.216 -148.431)" fill="none" stroke="#263238" stroke-linecap="round" stroke-linejoin="round" stroke-width="0.5"/>
    <path id="Trazado_874580" data-name="Trazado 874580" d="M223.679,404.162l47.139-2.71,1.443,1.817-47.981,2.885Z" transform="translate(-81.504 -146.281)" fill="none" stroke="#263238" stroke-linecap="round" stroke-linejoin="round" stroke-width="0.5"/>
    <path id="Trazado_874581" data-name="Trazado 874581" d="M218.666,388.023l42.614-1.855,6.382,8.04L221.3,396.76Z" transform="translate(-79.677 -140.711)" fill="none" stroke="#263238" stroke-linecap="round" stroke-linejoin="round" stroke-width="0.5"/>
    <path id="Trazado_874582" data-name="Trazado 874582" d="M222.029,398.856l45.66-2.415,1.2,1.51L222.525,400.5Z" transform="translate(-80.903 -144.455)" fill="#d1d1d1"/>
    <path id="Trazado_874583" data-name="Trazado 874583" d="M222.029,398.856l45.66-2.415,1.2,1.51L222.525,400.5Z" transform="translate(-80.903 -144.455)" fill="none" stroke="#263238" stroke-linecap="round" stroke-linejoin="round" stroke-width="0.5"/>
    <path id="Trazado_874584" data-name="Trazado 874584" d="M270.568,414.626l-1.517-2.689,22.832-1.5,2.1,2.645" transform="translate(-98.037 -149.554)" fill="none" stroke="#263238" stroke-linecap="round" stroke-linejoin="round" stroke-width="0.5"/>
    <path id="Trazado_874585" data-name="Trazado 874585" d="M228.813,420.614l51.67-3.715.975,1.229-52.233,3.85Z" transform="translate(-83.374 -151.909)" fill="#d1d1d1"/>
    <path id="Trazado_874586" data-name="Trazado 874586" d="M228.813,420.614l51.67-3.715.975,1.229-52.233,3.85Z" transform="translate(-83.374 -151.909)" fill="none" stroke="#263238" stroke-linecap="round" stroke-linejoin="round" stroke-width="0.5"/>
    <line id="Línea_3466" data-name="Línea 3466" x1="0.718" y1="1.531" transform="translate(164.017 268.723)" fill="none" stroke="#263238" stroke-linecap="round" stroke-linejoin="round" stroke-width="0.5"/>
    <path id="Trazado_874587" data-name="Trazado 874587" d="M247.375,424.019l3.7-.275.4.9-3.73.282Z" transform="translate(-90.138 -154.404)" fill="#d1d1d1"/>
    <path id="Trazado_874588" data-name="Trazado 874588" d="M247.375,424.019l3.7-.275.4.9-3.73.282Z" transform="translate(-90.138 -154.404)" fill="none" stroke="#263238" stroke-linecap="round" stroke-linejoin="round" stroke-width="0.5"/>
    <line id="Línea_3467" data-name="Línea 3467" x1="0.83" y1="1.515" transform="translate(170.868 265.26)" fill="none" stroke="#263238" stroke-linecap="round" stroke-linejoin="round" stroke-width="0.5"/>
    <line id="Línea_3468" data-name="Línea 3468" x1="0.687" y1="1.548" transform="translate(160.05 266.014)" fill="none" stroke="#263238" stroke-linecap="round" stroke-linejoin="round" stroke-width="0.5"/>
    <line id="Línea_3469" data-name="Línea 3469" x2="1.887" y2="2.674" transform="translate(185.179 261.451)" fill="none" stroke="#263238" stroke-linecap="round" stroke-linejoin="round" stroke-width="0.5"/>
    <line id="Línea_3470" data-name="Línea 3470" x2="1.757" y2="2.705" transform="translate(179.586 261.819)" fill="none" stroke="#263238" stroke-linecap="round" stroke-linejoin="round" stroke-width="0.5"/>
    <line id="Línea_3471" data-name="Línea 3471" x1="1.17" y1="1.991" transform="translate(172.212 260.223)" fill="none" stroke="#263238" stroke-linecap="round" stroke-linejoin="round" stroke-width="0.5"/>
    <line id="Línea_3472" data-name="Línea 3472" x1="2.847" y1="6.057" transform="translate(158.619 256.97)" fill="none" stroke="#263238" stroke-linecap="round" stroke-linejoin="round" stroke-width="0.5"/>
    <path id="Trazado_874589" data-name="Trazado 874589" d="M283.723,406.244l-1.535-1.934-31.262,1.88" transform="translate(-91.432 -147.322)" fill="none" stroke="#263238" stroke-linecap="round" stroke-linejoin="round" stroke-width="0.5"/>
    <line id="Línea_3473" data-name="Línea 3473" x1="1.283" y1="1.905" transform="translate(179.331 257.737)" fill="none" stroke="#263238" stroke-linecap="round" stroke-linejoin="round" stroke-width="0.5"/>
    <line id="Línea_3474" data-name="Línea 3474" x1="44.99" y2="2.291" transform="translate(140.654 250.626)" fill="none" stroke="#263238" stroke-linecap="round" stroke-linejoin="round" stroke-width="0.5"/>
    <line id="Línea_3475" data-name="Línea 3475" x1="44.391" y2="2.178" transform="translate(140.233 249.34)" fill="none" stroke="#263238" stroke-linecap="round" stroke-linejoin="round" stroke-width="0.5"/>
    <line id="Línea_3476" data-name="Línea 3476" x1="43.81" y2="2.072" transform="translate(139.826 248.094)" fill="none" stroke="#263238" stroke-linecap="round" stroke-linejoin="round" stroke-width="0.5"/>
    <path id="Trazado_874590" data-name="Trazado 874590" d="M278.156,393.377l1.449-.072.439.611-1.457.073Z" transform="translate(-101.354 -143.312)" fill="#d1d1d1"/>
    <path id="Trazado_874591" data-name="Trazado 874591" d="M278.156,393.377l1.449-.072.439.611-1.457.073Z" transform="translate(-101.354 -143.312)" fill="none" stroke="#263238" stroke-linecap="round" stroke-linejoin="round" stroke-width="0.5"/>
    <path id="Trazado_874592" data-name="Trazado 874592" d="M264.9,394.032l1.482-.074.388.622-1.491.075Z" transform="translate(-96.525 -143.55)" fill="#d1d1d1"/>
    <path id="Trazado_874593" data-name="Trazado 874593" d="M264.9,394.032l1.482-.074.388.622-1.491.075Z" transform="translate(-96.525 -143.55)" fill="none" stroke="#263238" stroke-linecap="round" stroke-linejoin="round" stroke-width="0.5"/>
    <path id="Trazado_874594" data-name="Trazado 874594" d="M272.783,391.641l1.441-.069.412.6-1.449.071Z" transform="translate(-99.396 -142.681)" fill="#d1d1d1"/>
    <path id="Trazado_874595" data-name="Trazado 874595" d="M272.783,391.641l1.441-.069.412.6-1.449.071Z" transform="translate(-99.396 -142.681)" fill="none" stroke="#263238" stroke-linecap="round" stroke-linejoin="round" stroke-width="0.5"/>
    <path id="Trazado_874596" data-name="Trazado 874596" d="M260.19,392.242l1.472-.071.364.607-1.481.072Z" transform="translate(-94.808 -142.899)" fill="#d1d1d1"/>
    <path id="Trazado_874597" data-name="Trazado 874597" d="M260.19,392.242l1.472-.071.364.607-1.481.072Z" transform="translate(-94.808 -142.899)" fill="none" stroke="#263238" stroke-linecap="round" stroke-linejoin="round" stroke-width="0.5"/>
    <path id="Trazado_874598" data-name="Trazado 874598" d="M247.891,392.829l1.5-.072.315.616-1.512.074Z" transform="translate(-90.326 -143.112)" fill="#d1d1d1"/>
    <path id="Trazado_874599" data-name="Trazado 874599" d="M247.891,392.829l1.5-.072.315.616-1.512.074Z" transform="translate(-90.326 -143.112)" fill="none" stroke="#263238" stroke-linecap="round" stroke-linejoin="round" stroke-width="0.5"/>
    <path id="Trazado_874600" data-name="Trazado 874600" d="M235.137,393.438l1.536-.073.264.625-1.546.075Z" transform="translate(-85.679 -143.334)" fill="#d1d1d1"/>
    <path id="Trazado_874601" data-name="Trazado 874601" d="M235.137,393.438l1.536-.073.264.625-1.546.075Z" transform="translate(-85.679 -143.334)" fill="none" stroke="#263238" stroke-linecap="round" stroke-linejoin="round" stroke-width="0.5"/>
    <line id="Línea_3477" data-name="Línea 3477" x1="0.882" y1="1.266" transform="translate(175.229 248.48)" fill="none" stroke="#263238" stroke-linecap="round" stroke-linejoin="round" stroke-width="0.5"/>
    <line id="Línea_3478" data-name="Línea 3478" x1="0.782" y1="1.285" transform="translate(167.477 248.847)" fill="none" stroke="#263238" stroke-linecap="round" stroke-linejoin="round" stroke-width="0.5"/>
    <line id="Línea_3479" data-name="Línea 3479" x1="0.678" y1="1.304" transform="translate(159.559 249.221)" fill="none" stroke="#263238" stroke-linecap="round" stroke-linejoin="round" stroke-width="0.5"/>
    <line id="Línea_3480" data-name="Línea 3480" x1="0.569" y1="1.323" transform="translate(151.472 249.604)" fill="none" stroke="#263238" stroke-linecap="round" stroke-linejoin="round" stroke-width="0.5"/>
    <line id="Línea_3481" data-name="Línea 3481" x1="43.234" y2="1.969" transform="translate(139.422 246.858)" fill="none" stroke="#263238" stroke-linecap="round" stroke-linejoin="round" stroke-width="0.5"/>
    <path id="Trazado_874602" data-name="Trazado 874602" d="M279.611,389.269l1.4-.064.432.575-1.41.066Z" transform="translate(-101.884 -141.818)" fill="#d1d1d1"/>
    <path id="Trazado_874603" data-name="Trazado 874603" d="M279.611,389.269l1.4-.064.432.575-1.41.066Z" transform="translate(-101.884 -141.818)" fill="none" stroke="#263238" stroke-linecap="round" stroke-linejoin="round" stroke-width="0.5"/>
    <path id="Trazado_874604" data-name="Trazado 874604" d="M259.008,390.216l1.453-.067.353.59-1.461.069Z" transform="translate(-94.377 -142.162)" fill="#d1d1d1"/>
    <path id="Trazado_874605" data-name="Trazado 874605" d="M259.008,390.216l1.453-.067.353.59-1.461.069Z" transform="translate(-94.377 -142.162)" fill="none" stroke="#263238" stroke-linecap="round" stroke-linejoin="round" stroke-width="0.5"/>
    <path id="Trazado_874606" data-name="Trazado 874606" d="M246.872,390.774l1.483-.068.307.6-1.492.07Z" transform="translate(-89.955 -142.365)" fill="#d1d1d1"/>
    <path id="Trazado_874607" data-name="Trazado 874607" d="M246.872,390.774l1.483-.068.307.6-1.492.07Z" transform="translate(-89.955 -142.365)" fill="none" stroke="#263238" stroke-linecap="round" stroke-linejoin="round" stroke-width="0.5"/>
    <path id="Trazado_874608" data-name="Trazado 874608" d="M230.86,391.51l1.524-.07.243.61-1.533.072Z" transform="translate(-84.121 -142.632)" fill="#d1d1d1"/>
    <path id="Trazado_874609" data-name="Trazado 874609" d="M230.86,391.51l1.524-.07.243.61-1.533.072Z" transform="translate(-84.121 -142.632)" fill="none" stroke="#263238" stroke-linecap="round" stroke-linejoin="round" stroke-width="0.5"/>
    <line id="Línea_3482" data-name="Línea 3482" x1="0.913" y1="1.207" transform="translate(179.509 247.003)" fill="none" stroke="#263238" stroke-linecap="round" stroke-linejoin="round" stroke-width="0.5"/>
    <line id="Línea_3483" data-name="Línea 3483" x1="0.753" y1="1.237" transform="translate(166.709 247.586)" fill="none" stroke="#263238" stroke-linecap="round" stroke-linejoin="round" stroke-width="0.5"/>
    <line id="Línea_3484" data-name="Línea 3484" x1="0.653" y1="1.255" transform="translate(158.894 247.942)" fill="none" stroke="#263238" stroke-linecap="round" stroke-linejoin="round" stroke-width="0.5"/>
    <line id="Línea_3485" data-name="Línea 3485" x1="0.519" y1="1.279" transform="translate(148.754 248.403)" fill="none" stroke="#263238" stroke-linecap="round" stroke-linejoin="round" stroke-width="0.5"/>
    <path id="Trazado_874610" data-name="Trazado 874610" d="M285.32,429.177l-.21-.35,1.5-.123-.9-1.467.715-.057,2.135,3.444-2.625.221-.216-.36,1.885-.158-.781-1.273Z" transform="translate(-103.888 -155.655)" fill="#263238"/>
    <g id="Grupo_1100301" data-name="Grupo 1100301">
      <g id="Grupo_1100300" data-name="Grupo 1100300" clip-path="url(#clip-path)">
        <path id="Trazado_874611" data-name="Trazado 874611" d="M282.386,430.215c.32.54.024.934-.995,1.02a2,2,0,0,1-2.045-.767l-1.018-1.8c-.292-.517.01-.9,1.013-.976a1.988,1.988,0,0,1,1.984.734Zm-1.789-1.754a1.03,1.03,0,0,0-1.058-.429c-.53.042-.67.242-.491.554l1.051,1.841a1.04,1.04,0,0,0,1.082.446c.532-.044.676-.259.489-.577Z" transform="translate(-101.378 -155.836)" fill="#263238"/>
        <path id="Trazado_874612" data-name="Trazado 874612" d="M275.268,431.641c-1.061.09-1.659-.161-1.942-.695l-.154-.29c-.207-.39-.078-.653.442-.795a1.346,1.346,0,0,1-1.225-.659l-.285-.537a.9.9,0,0,0-.35-.4l.742-.059a.942.942,0,0,1,.345.4l.291.542c.211.392.629.488,1.246.437l.521-.042-.81-1.469.728-.058,1.949,3.493Zm-.724-1.693c-.589.048-.888.178-.681.561l.183.34c.173.322.486.472,1.043.425l.729-.061-.723-1.311Z" transform="translate(-99.021 -155.962)" fill="#263238"/>
        <path id="Trazado_874613" data-name="Trazado 874613" d="M265.917,428.682l.711-.057,2.543,2.7-1.449-2.792.641-.051L270.21,432l-1.058.09-2.555-2.746.352,2.931-1.067.09-1.728-3.551.7-.056,1.4,2.834Z" transform="translate(-96.253 -156.13)" fill="#263238"/>
        <line id="Línea_3486" data-name="Línea 3486" x1="20.955" y2="1.616" transform="translate(178.749 268.511)" fill="none" stroke="#263238" stroke-miterlimit="10" stroke-width="0.5"/>
        <line id="Línea_3487" data-name="Línea 3487" x1="13.147" y2="1.014" transform="translate(161.007 270.481)" fill="none" stroke="#263238" stroke-miterlimit="10" stroke-width="0.5"/>
        <line id="Línea_3488" data-name="Línea 3488" x1="10.83" y2="0.835" transform="translate(146.526 271.776)" fill="none" stroke="#263238" stroke-miterlimit="10" stroke-width="0.5"/>
        <path id="Trazado_874614" data-name="Trazado 874614" d="M235.707,229.052a86.317,86.317,0,0,0-13.136,5.085c-6.992,3.39-20.763,8.475-27.332,11.017s-10.593,9.111-11.865,12.289-6.78,16.738-6.78,16.738-11.653,18.221-14.619,22.671-6.992,10.593-7.2,16.314,2.966,8.9,10.382,8.9,10.594-2.542,14.2-6.356S194.6,293.25,196.3,291.131s6.356-10.17,6.356-10.17,2.331,20.976,2.331,27.543v15.467h66.74s3.178-23.306,3.814-25.213,5.508-15.679,5.508-15.679,17.556,28.4,20.522,32.215,11.322,11.854,19.533,8.636c8.24-3.23,6.527-12.026,2.078-22.62s-12.259-28.613-12.259-29.46-3.178-13.348-16.1-23.094-25.637-12.077-28.6-13.56-12.5-6.145-30.51-6.145" transform="translate(-56.392 -83.462)" fill="#abdbff"/>
        <path id="Trazado_874615" data-name="Trazado 874615" d="M235.707,229.052a86.317,86.317,0,0,0-13.136,5.085c-6.992,3.39-20.763,8.475-27.332,11.017s-10.593,9.111-11.865,12.289-6.78,16.738-6.78,16.738-11.653,18.221-14.619,22.671-6.992,10.593-7.2,16.314,2.966,8.9,10.382,8.9,10.594-2.542,14.2-6.356S194.6,293.25,196.3,291.131s6.356-10.17,6.356-10.17,2.331,20.976,2.331,27.543v15.467h66.74s3.178-23.306,3.814-25.213,5.508-15.679,5.508-15.679,17.556,28.4,20.522,32.215,11.322,11.854,19.533,8.636c8.24-3.23,6.527-12.026,2.078-22.62s-12.259-28.613-12.259-29.46-3.178-13.348-16.1-23.094-25.637-12.077-28.6-13.56S253.716,229.052,235.707,229.052Z" transform="translate(-56.392 -83.462)" fill="none" stroke="#263238" stroke-linecap="round" stroke-linejoin="round" stroke-width="1"/>
        <path id="Trazado_874616" data-name="Trazado 874616" d="M215.2,289.052l8.263,12.924s-6.78-6.992-11.017-8.051" transform="translate(-77.41 -105.324)" fill="none" stroke="#263238" stroke-linecap="round" stroke-linejoin="round" stroke-width="1"/>
        <path id="Trazado_874617" data-name="Trazado 874617" d="M222.368,307.415l-4.873-1.7s-4.449-2.542-8.051-1.483" transform="translate(-76.317 -110.763)" fill="none" stroke="#263238" stroke-linecap="round" stroke-linejoin="round" stroke-width="1"/>
        <path id="Trazado_874618" data-name="Trazado 874618" d="M269.65,260.743c.475,3.486,1.578,7.823,4.106,10.79" transform="translate(-98.255 -95.009)" fill="none" stroke="#263238" stroke-linecap="round" stroke-linejoin="round" stroke-width="1"/>
        <path id="Trazado_874619" data-name="Trazado 874619" d="M269.1,251.718s-.048,1.213.072,3.042" transform="translate(-98.053 -91.721)" fill="none" stroke="#263238" stroke-linecap="round" stroke-linejoin="round" stroke-width="1"/>
        <path id="Trazado_874620" data-name="Trazado 874620" d="M272.759,281.712a19.062,19.062,0,0,0,1.918,1.7" transform="translate(-99.388 -102.65)" fill="none" stroke="#263238" stroke-linecap="round" stroke-linejoin="round" stroke-width="1"/>
        <path id="Trazado_874621" data-name="Trazado 874621" d="M263.444,266.718a28.065,28.065,0,0,0,5.036,8.58" transform="translate(-95.993 -97.186)" fill="none" stroke="#263238" stroke-linecap="round" stroke-linejoin="round" stroke-width="1"/>
        <path id="Trazado_874622" data-name="Trazado 874622" d="M327.031,341.2a24.669,24.669,0,0,1-3.92,5.2" transform="translate(-117.735 -124.326)" fill="none" stroke="#263238" stroke-linecap="round" stroke-linejoin="round" stroke-width="1"/>
        <path id="Trazado_874623" data-name="Trazado 874623" d="M340.652,308.052s-4.923,11.132-9.522,19.093" transform="translate(-120.657 -112.248)" fill="none" stroke="#263238" stroke-linecap="round" stroke-linejoin="round" stroke-width="1"/>
        <path id="Trazado_874624" data-name="Trazado 874624" d="M311.212,352.172c-.624.768-1.129,1.41-1.435,1.831" transform="translate(-112.876 -128.324)" fill="none" stroke="#263238" stroke-linecap="round" stroke-linejoin="round" stroke-width="1"/>
        <path id="Trazado_874625" data-name="Trazado 874625" d="M320.882,337.052s-3.9,4.535-6.795,8.023" transform="translate(-114.447 -122.815)" fill="none" stroke="#263238" stroke-linecap="round" stroke-linejoin="round" stroke-width="1"/>
        <path id="Trazado_874626" data-name="Trazado 874626" d="M353.444,304.821s9.323-14.831,9.746-16.1" transform="translate(-128.788 -105.203)" fill="none" stroke="#263238" stroke-linecap="round" stroke-linejoin="round" stroke-width="1"/>
        <path id="Trazado_874627" data-name="Trazado 874627" d="M364.658,301.652c2.773-2.242,6.933-5.077,11.093-5.934" transform="translate(-132.874 -107.753)" fill="none" stroke="#263238" stroke-linecap="round" stroke-linejoin="round" stroke-width="1"/>
        <path id="Trazado_874628" data-name="Trazado 874628" d="M359.444,308.638s.757-.779,2.026-1.883" transform="translate(-130.974 -111.775)" fill="none" stroke="#263238" stroke-linecap="round" stroke-linejoin="round" stroke-width="1"/>
        <path id="Trazado_874629" data-name="Trazado 874629" d="M373.4,292.052a51.566,51.566,0,0,0-7.627,4.873" transform="translate(-133.281 -106.418)" fill="none" stroke="#263238" stroke-linecap="round" stroke-linejoin="round" stroke-width="1"/>
        <path id="Trazado_874630" data-name="Trazado 874630" d="M383.777,340.727a11.981,11.981,0,0,1,11.441.636" transform="translate(-139.84 -123.735)" fill="none" stroke="#263238" stroke-linecap="round" stroke-linejoin="round" stroke-width="1"/>
        <path id="Trazado_874631" data-name="Trazado 874631" d="M386.777,336.867s7.416-1.483,12.924,1.907" transform="translate(-140.933 -122.63)" fill="none" stroke="#263238" stroke-linecap="round" stroke-linejoin="round" stroke-width="1"/>
        <path id="Trazado_874632" data-name="Trazado 874632" d="M168.11,339.281a11.852,11.852,0,0,1,9.534-2.966" transform="translate(-61.256 -122.501)" fill="none" stroke="#263238" stroke-linecap="round" stroke-linejoin="round" stroke-width="1"/>
        <path id="Trazado_874633" data-name="Trazado 874633" d="M188.749,337.168a17.673,17.673,0,0,1,1.5,1.2" transform="translate(-68.776 -122.857)" fill="none" stroke="#263238" stroke-linecap="round" stroke-linejoin="round" stroke-width="1"/>
        <path id="Trazado_874634" data-name="Trazado 874634" d="M179.777,333.385a10.339,10.339,0,0,1,3.479,1.082" transform="translate(-65.507 -121.478)" fill="none" stroke="#263238" stroke-linecap="round" stroke-linejoin="round" stroke-width="1"/>
        <path id="Trazado_874635" data-name="Trazado 874635" d="M278.974,233.434s-1.907,8.051-1.271,13.984,7.2,15.043,12.712,17.162,15.679-4.025,19.28-7.627,3.814-15.043,3.814-15.043-5.489-11.862-17.162-15.255-17.373,6.78-17.373,6.78" transform="translate(-101.142 -82.336)" fill="#ababab"/>
        <path id="Trazado_874636" data-name="Trazado 874636" d="M278.974,233.434s-1.907,8.051-1.271,13.984,7.2,15.043,12.712,17.162,15.679-4.025,19.28-7.627,3.814-15.043,3.814-15.043-5.489-11.862-17.162-15.255S278.974,233.434,278.974,233.434Z" transform="translate(-101.142 -82.336)" fill="none" stroke="#263238" stroke-linecap="round" stroke-linejoin="round" stroke-width="1"/>
        <path id="Trazado_874637" data-name="Trazado 874637" d="M343.812,234.4a10.41,10.41,0,0,1-1.021,7.5c-2.128,4.194-6.242,7.728-7.346,7.362s3.439-15.521,3.439-15.521,3.013-1.695,4.928.657" transform="translate(-122.166 -84.954)" fill="#ababab"/>
        <path id="Trazado_874638" data-name="Trazado 874638" d="M343.812,234.4a10.41,10.41,0,0,1-1.021,7.5c-2.128,4.194-6.242,7.728-7.346,7.362s3.439-15.521,3.439-15.521S341.9,232.045,343.812,234.4Z" transform="translate(-122.166 -84.954)" fill="none" stroke="#263238" stroke-linecap="round" stroke-linejoin="round" stroke-width="1"/>
        <path id="Trazado_874639" data-name="Trazado 874639" d="M274.289,215.759a10.408,10.408,0,0,0-1.4,7.442c.7,4.651,3.488,9.3,4.651,9.3s1.628-15.813,1.628-15.813-2.325-2.558-4.883-.931" transform="translate(-99.385 -78.421)" fill="#ababab"/>
        <path id="Trazado_874640" data-name="Trazado 874640" d="M274.289,215.759a10.408,10.408,0,0,0-1.4,7.442c.7,4.651,3.488,9.3,4.651,9.3s1.628-15.813,1.628-15.813S276.847,214.132,274.289,215.759Z" transform="translate(-99.385 -78.421)" fill="none" stroke="#263238" stroke-linecap="round" stroke-linejoin="round" stroke-width="1"/>
        <path id="Trazado_874641" data-name="Trazado 874641" d="M280.28,212.514s-1.628,14.185.233,20,5.581,14.884,11.395,17.208,19.069-7.674,21.162-11.627,7.906-20.7,7.906-20.7a15.189,15.189,0,0,0,2.093-14.418c-3.023-8.372-19.3-13.488-26.045-13.255s-13.488,5.813-13.953,10.232a102.148,102.148,0,0,1-2.79,12.557" transform="translate(-101.888 -69.129)" fill="#ababab"/>
        <path id="Trazado_874642" data-name="Trazado 874642" d="M280.28,212.514s-1.628,14.185.233,20,5.581,14.884,11.395,17.208,19.069-7.674,21.162-11.627,7.906-20.7,7.906-20.7a15.189,15.189,0,0,0,2.093-14.418c-3.023-8.372-19.3-13.488-26.045-13.255s-13.488,5.813-13.953,10.232A102.148,102.148,0,0,1,280.28,212.514Z" transform="translate(-101.888 -69.129)" fill="none" stroke="#263238" stroke-linecap="round" stroke-linejoin="round" stroke-width="1"/>
        <path id="Trazado_874643" data-name="Trazado 874643" d="M298.839,236.475s-5.116-6.279-9.767-4.186" transform="translate(-105.332 -84.486)" fill="none" stroke="#263238" stroke-linecap="round" stroke-linejoin="round" stroke-width="2"/>
        <path id="Trazado_874644" data-name="Trazado 874644" d="M317.243,243.259s6.977-1.628,10.232,1.4" transform="translate(-115.597 -88.479)" fill="none" stroke="#263238" stroke-linecap="round" stroke-linejoin="round" stroke-width="2"/>
        <path id="Trazado_874645" data-name="Trazado 874645" d="M290.17,241.314s1.493,4.445,7.557,3.94" transform="translate(-105.732 -87.93)" fill="none" stroke="#263238" stroke-linecap="round" stroke-linejoin="round" stroke-width="1"/>
        <path id="Trazado_874646" data-name="Trazado 874646" d="M316.512,251.193s1.4,3.023,7.906,1.86" transform="translate(-115.33 -91.529)" fill="none" stroke="#263238" stroke-linecap="round" stroke-linejoin="round" stroke-width="1"/>
        <path id="Trazado_874647" data-name="Trazado 874647" d="M298.428,257.847a4.055,4.055,0,0,0,.379,2.779c.758,1.137,2.653,2.78,4.043,2.78s4.3-.505,5.053-1.264a8.816,8.816,0,0,0,1.264-1.642" transform="translate(-108.706 -93.954)" fill="none" stroke="#263238" stroke-linecap="round" stroke-linejoin="round" stroke-width="1"/>
        <path id="Trazado_874648" data-name="Trazado 874648" d="M293.513,264.406s3.158,3.664,5.811,4.548,7.58-.632,8.969-1.137" transform="translate(-106.95 -96.344)" fill="none" stroke="#263238" stroke-linecap="round" stroke-linejoin="round" stroke-width="1"/>
        <path id="Trazado_874649" data-name="Trazado 874649" d="M330.012,184.042c-.219-1.524.871-3.7,1.088-5.008s-1.524-3.7-3.048-5.661a8.76,8.76,0,0,1-1.742-5.443c0-1.307-1.524-2.4-2.831-3.266a24.413,24.413,0,0,1-4.355-3.7c-.871-1.089-4.573-.871-5.225-.871s-3.484-2.4-5.226-3.266-5.225.653-5.225.653-4.137-1.96-5.008-1.96a27.712,27.712,0,0,0-4.573,1.524,19.458,19.458,0,0,1-3.795,1.192,3.708,3.708,0,0,0-.727-.122c-.487-.634-4.841,1.978-4.841,1.978l-3.92.653-1.452,2.36c-1.4.151-4.655.671-4.882,2.266-.29,2.032,0,2.9-.871,4.064s-4.064.871-3.193,3.484,2.9,4.645.29,6.1-4.064,4.064-2.612,5.516,2.612,3.484,2.322,4.645-.58,3.774.581,4.355a20.422,20.422,0,0,1,2.9,2.032l1.452,3.193.871,2.032s1.451-4.645,2.612-5.225,0,2.032,2.323,2.032,4.645-11.032,6.387-11.322,6.967,9.58,12.193,9.58,11.612-4.644,14.225-4.644.58,11.031.58,13.354.581,4.645.581,5.516,2.9-4.064,4.936-5.225c.562-.321,1.236-.711,1.94-1.152-.02.1-.031.157-.031.157s7.185-4.573,8.056-6.1.219-2.83.219-4.137.871-2.4,1.088-4.355-.871-3.7-1.088-5.225" transform="translate(-97.394 -56.667)" fill="#263238"/>
        <path id="Trazado_874650" data-name="Trazado 874650" d="M330.012,184.042c-.219-1.524.871-3.7,1.088-5.008s-1.524-3.7-3.048-5.661a8.76,8.76,0,0,1-1.742-5.443c0-1.307-1.524-2.4-2.831-3.266a24.413,24.413,0,0,1-4.355-3.7c-.871-1.089-4.573-.871-5.225-.871s-3.484-2.4-5.226-3.266-5.225.653-5.225.653-4.137-1.96-5.008-1.96a27.712,27.712,0,0,0-4.573,1.524,19.458,19.458,0,0,1-3.795,1.192,3.708,3.708,0,0,0-.727-.122c-.487-.634-4.841,1.978-4.841,1.978l-3.92.653-1.452,2.36c-1.4.151-4.655.671-4.882,2.266-.29,2.032,0,2.9-.871,4.064s-4.064.871-3.193,3.484,2.9,4.645.29,6.1-4.064,4.064-2.612,5.516,2.612,3.484,2.322,4.645-.58,3.774.581,4.355a20.422,20.422,0,0,1,2.9,2.032l1.452,3.193.871,2.032s1.451-4.645,2.612-5.225,0,2.032,2.323,2.032,4.645-11.032,6.387-11.322,6.967,9.58,12.193,9.58,11.612-4.644,14.225-4.644.58,11.031.58,13.354.581,4.645.581,5.516,2.9-4.064,4.936-5.225c.562-.321,1.236-.711,1.94-1.152-.02.1-.031.157-.031.157s7.185-4.573,8.056-6.1.219-2.83.219-4.137.871-2.4,1.088-4.355S330.229,185.566,330.012,184.042Z" transform="translate(-97.394 -56.667)" fill="none" stroke="#263238" stroke-linecap="round" stroke-linejoin="round" stroke-width="1"/>
        <line id="Línea_3489" data-name="Línea 3489" x1="280.046" transform="translate(5.791 240.463)" fill="none" stroke="#263238" stroke-linecap="round" stroke-linejoin="round" stroke-width="1"/>
        <path id="Trazado_874651" data-name="Trazado 874651" d="M350.8,348.293s-7.942-2.916-13.646-.634-19.107,7.7-28.234,9.411a118.891,118.891,0,0,1-25.952,1.711c-7.7-.285-11.978.856-13.689,2.281s-7.985,9.412-7.415,10.267,1.2,1.184,3.993.57c1.114-.245,4.278-3.708,4.278-3.708l5.7-2.567s-5.989,6.56-5.133,7.415,2.282-.285,3.422-1.141,3.422-2.852,3.422-2.852l5.133-2.281s-5.418,3.708-5.418,5.419,1.328.7,3.59-.2a26.123,26.123,0,0,0,3.054-2.257l4.292-1.208a18.848,18.848,0,0,0,8.984,2.138,13.754,13.754,0,0,0,8.884-3.318s19.964,2.852,29.945,2,22.53.285,27.663-3.422-1.426-13.4-2-14.26" transform="translate(-95.404 -126.362)" fill="#ababab"/>
        <path id="Trazado_874652" data-name="Trazado 874652" d="M350.8,348.293s-7.942-2.916-13.646-.634-19.107,7.7-28.234,9.411a118.891,118.891,0,0,1-25.952,1.711c-7.7-.285-11.978.856-13.689,2.281s-7.985,9.412-7.415,10.267,1.2,1.184,3.993.57c1.114-.245,4.278-3.708,4.278-3.708l5.7-2.567s-5.989,6.56-5.133,7.415,2.282-.285,3.422-1.141,3.422-2.852,3.422-2.852l5.133-2.281s-5.418,3.708-5.418,5.419,1.328.7,3.59-.2a26.123,26.123,0,0,0,3.054-2.257l4.292-1.208a18.848,18.848,0,0,0,8.984,2.138,13.754,13.754,0,0,0,8.884-3.318s19.964,2.852,29.945,2,22.53.285,27.663-3.422-1.426-13.4-2-14.26" transform="translate(-95.404 -126.362)" fill="none" stroke="#263238" stroke-linecap="round" stroke-linejoin="round" stroke-width="1"/>
        <path id="Trazado_874653" data-name="Trazado 874653" d="M263.983,380.395a19.689,19.689,0,0,1,2.124-4.381c1.062-1.328,5.974-4.514,7.7-5.443a19.47,19.47,0,0,1,2.124-1.061" transform="translate(-96.19 -134.641)" fill="none" stroke="#263238" stroke-linecap="round" stroke-linejoin="round" stroke-width="1"/>
        <line id="Línea_3490" data-name="Línea 3490" y1="3.334" x2="5.016" transform="translate(180.434 235.93)" fill="none" stroke="#263238" stroke-linecap="round" stroke-linejoin="round" stroke-width="1"/>
        <line id="Línea_3491" data-name="Línea 3491" y1="2.351" x2="4.677" transform="translate(187.278 238.054)" fill="none" stroke="#263238" stroke-linecap="round" stroke-linejoin="round" stroke-width="1"/>
        <path id="Trazado_874654" data-name="Trazado 874654" d="M379.639,348.409c-4.243-1.012-10.226-2-13.646-.634-5.065,2.026-16.2,6.522-25.017,8.7a7.815,7.815,0,0,1,2.04,5,19.35,19.35,0,0,1-.941,6.869c6.724.753,16.637,1.629,22.777,1.1,9.981-.856,22.53.285,27.663-3.422s-1.426-13.4-2-14.259" transform="translate(-124.244 -126.478)" fill="#abdbff"/>
        <path id="Trazado_874655" data-name="Trazado 874655" d="M379.639,348.409c-4.243-1.012-10.226-2-13.646-.634-5.065,2.026-16.2,6.522-25.017,8.7a7.815,7.815,0,0,1,2.04,5,19.35,19.35,0,0,1-.941,6.869c6.724.753,16.637,1.629,22.777,1.1,9.981-.856,22.53.285,27.663-3.422s-1.426-13.4-2-14.259" transform="translate(-124.244 -126.478)" fill="none" stroke="#263238" stroke-linecap="round" stroke-linejoin="round" stroke-width="1"/>
        <path id="Trazado_874656" data-name="Trazado 874656" d="M161.169,345.446c.535-1.445,4.449-4.9,9.714-3.973s11.257,6.772,14.67,11.275,6.148,5.71,6.148,5.71l-4.029,12.316s-2.476-.6-7.134-1.78-15.06-2.722-19.847-4.207-6.828-6.641-5.786-11.455a28.654,28.654,0,0,1,2.7-7.668" transform="translate(-56.347 -124.369)" fill="#abdbff"/>
        <path id="Trazado_874657" data-name="Trazado 874657" d="M161.169,345.446c.535-1.445,4.449-4.9,9.714-3.973s11.257,6.772,14.67,11.275,6.148,5.71,6.148,5.71l-4.029,12.316s-2.476-.6-7.134-1.78-15.06-2.722-19.847-4.207-6.828-6.641-5.786-11.455a28.654,28.654,0,0,1,2.7-7.668" transform="translate(-56.347 -124.369)" fill="none" stroke="#263238" stroke-linecap="round" stroke-linejoin="round" stroke-width="1"/>
        <path id="Trazado_874658" data-name="Trazado 874658" d="M196.545,358.469c-.357-.47-.747-.957-1.156-1.45-2.98,1.191-6.759,3.384-8.762,7.248a13.789,13.789,0,0,0-1.616,9.094c2.55.484,4.889.941,6.519,1.355,4.658,1.18,7.134,1.78,7.134,1.78l4.029-12.316s-2.734-1.207-6.148-5.71" transform="translate(-67.338 -130.09)" fill="#ababab"/>
        <path id="Trazado_874659" data-name="Trazado 874659" d="M196.545,358.469c-.357-.47-.747-.957-1.156-1.45-2.98,1.191-6.759,3.384-8.762,7.248a13.789,13.789,0,0,0-1.616,9.094c2.55.484,4.889.941,6.519,1.355,4.658,1.18,7.134,1.78,7.134,1.78l4.029-12.316S199.959,362.972,196.545,358.469Z" transform="translate(-67.338 -130.09)" fill="none" stroke="#263238" stroke-linecap="round" stroke-linejoin="round" stroke-width="1"/>
        <path id="Trazado_874660" data-name="Trazado 874660" d="M200.55,373.668c-.268,1.906-.849,4.087,1.885,5.295s5.5,4.191,7.234,4.891a26.208,26.208,0,0,0,6.555,1.6c1.767.111,3.949.692,7.411-.273s3.371-1.859,3.371-1.859a8.871,8.871,0,0,0,3.226-.441c1.068-.524.319-1.85-.979-2.375s-2.881-1.217-2.881-1.217,1.967-1.822,1.474-2.274l-.493-.451s2.279.268,2.473-.459-1.232-3.922-1.8-6.62-1.776-2.33-3.967-2.764-5.183.118-9.123-.722-9.648.576-11.9,1.173" transform="translate(-72.988 -133.267)" fill="#ababab"/>
        <path id="Trazado_874661" data-name="Trazado 874661" d="M200.55,373.668c-.268,1.906-.849,4.087,1.885,5.295s5.5,4.191,7.234,4.891a26.208,26.208,0,0,0,6.555,1.6c1.767.111,3.949.692,7.411-.273s3.371-1.859,3.371-1.859a8.871,8.871,0,0,0,3.226-.441c1.068-.524.319-1.85-.979-2.375s-2.881-1.217-2.881-1.217,1.967-1.822,1.474-2.274l-.493-.451s2.279.268,2.473-.459-1.232-3.922-1.8-6.62-1.776-2.33-3.967-2.764-5.183.118-9.123-.722-9.648.576-11.9,1.173" transform="translate(-72.988 -133.267)" fill="none" stroke="#263238" stroke-linecap="round" stroke-linejoin="round" stroke-width="1"/>
        <path id="Trazado_874662" data-name="Trazado 874662" d="M224.879,348.533l3.594,12.725,2.872,1.363L227.09,347.9a1.15,1.15,0,0,0-2.211.632" transform="translate(-81.925 -126.465)" fill="#263238"/>
        <path id="Trazado_874663" data-name="Trazado 874663" d="M226.782,367.841s6.3,3.354,6.728,3.529a39.761,39.761,0,0,1,3.993,7.053c.407,1.027-.056,1.621-1.023,2.154l-1.3-.526-7.823-4.929-2.872-1.363" transform="translate(-81.798 -134.034)" fill="#ababab"/>
        <path id="Trazado_874664" data-name="Trazado 874664" d="M226.782,367.841s6.3,3.354,6.728,3.529a39.761,39.761,0,0,1,3.993,7.053c.407,1.027-.056,1.621-1.023,2.154l-1.3-.526-7.823-4.929-2.872-1.363" transform="translate(-81.798 -134.034)" fill="none" stroke="#263238" stroke-linecap="round" stroke-linejoin="round" stroke-width="1"/>
        <path id="Trazado_874665" data-name="Trazado 874665" d="M221.2,385.089s6.13,3.639,7.418,4.312,6,.969,6,.969" transform="translate(-80.599 -140.318)" fill="none" stroke="#263238" stroke-linecap="round" stroke-linejoin="round" stroke-width="1"/>
        <path id="Trazado_874666" data-name="Trazado 874666" d="M217.587,390.678s5.145,2.837,6.158,3.2,3.194.941,3.194.941" transform="translate(-79.284 -142.355)" fill="none" stroke="#263238" stroke-linecap="round" stroke-linejoin="round" stroke-width="1"/>
      </g>
    </g>
    <path id="Trazado_874667" data-name="Trazado 874667" d="M138.766,413.6l23.467-21.581-51.7-3.336Z" transform="translate(-40.274 -141.628)" fill="#ccc"/>
    <path id="Trazado_874668" data-name="Trazado 874668" d="M138.766,413.6l23.467-21.581-51.7-3.336Z" transform="translate(-40.274 -141.628)" fill="none" stroke="#263238" stroke-linecap="round" stroke-linejoin="round" stroke-width="1"/>
    <path id="Trazado_874669" data-name="Trazado 874669" d="M152.431,414.885l10.563-10.007-12.231-.741Z" transform="translate(-54.935 -147.259)" fill="#263238"/>
    <path id="Trazado_874670" data-name="Trazado 874670" d="M152.431,414.885l10.563-10.007-12.231-.741Z" transform="translate(-54.935 -147.259)" fill="none" stroke="#263238" stroke-linecap="round" stroke-linejoin="round" stroke-width="1"/>
    <path id="Trazado_874671" data-name="Trazado 874671" d="M37.247,332.52l77.4,3.425-4.452,57.191L32.11,389.369Z" transform="translate(-11.7 -121.163)" fill="#a6a6a6"/>
    <path id="Trazado_874672" data-name="Trazado 874672" d="M37.247,332.52l77.4,3.425-4.452,57.191L32.11,389.369Z" transform="translate(-11.7 -121.163)" fill="none" stroke="#263238" stroke-linecap="round" stroke-linejoin="round" stroke-width="1"/>
    <g id="Grupo_1100303" data-name="Grupo 1100303">
      <g id="Grupo_1100302" data-name="Grupo 1100302" clip-path="url(#clip-path)">
        <path id="Trazado_874673" data-name="Trazado 874673" d="M32.652,385.56c4.573-.672,12.3-2.474,25.34-6.694,31.05-10.045,34.931-38.127,56.849-42.922l-77.4-3.425Z" transform="translate(-11.898 -121.163)" fill="#263238"/>
        <path id="Trazado_874674" data-name="Trazado 874674" d="M32.652,385.56c4.573-.672,12.3-2.474,25.34-6.694,31.05-10.045,34.931-38.127,56.849-42.922l-77.4-3.425Z" transform="translate(-11.898 -121.163)" fill="none" stroke="#263238" stroke-linecap="round" stroke-linejoin="round" stroke-width="1"/>
        <path id="Trazado_874675" data-name="Trazado 874675" d="M98.758,375.519c0,2.522-2.658,4.566-5.936,4.566s-5.936-2.045-5.936-4.566,2.658-4.566,5.936-4.566,5.936,2.045,5.936,4.566" transform="translate(-31.659 -135.167)" fill="#fff"/>
        <ellipse id="Elipse_11590" data-name="Elipse 11590" cx="5.936" cy="4.566" rx="5.936" ry="4.566" transform="translate(55.227 235.786)" fill="none" stroke="#263238" stroke-linecap="round" stroke-linejoin="round" stroke-width="1"/>
      </g>
    </g>
  </g>
</svg>
