<svg xmlns="http://www.w3.org/2000/svg" xmlns:xlink="http://www.w3.org/1999/xlink" width="139" height="138.999" viewBox="0 0 139 138.999">
  <defs>
    <clipPath id="clip-path">
      <rect id="Rectángulo_403459" data-name="Rectángulo 403459" width="67.523" height="67.386" fill="#445866"/>
    </clipPath>
  </defs>
  <g id="img14" transform="translate(-1041 -6521.134)">
    <g id="img14-2" data-name="img14" transform="translate(461 904.294)">
      <g id="Grupo_1099770" data-name="Grupo 1099770" transform="translate(580 5616.839)">
        <rect id="Rectángulo_401345" data-name="Rectángulo 401345" width="120.838" height="120.838" transform="translate(9 9.161)" fill="#fff"/>
        <path id="Sustracción_141" data-name="Sustracción 141" d="M119.994,139,0,119.993,19.01,0,139,19.008,119.994,139v0h0v0ZM26.221,9.932,9.926,112.779l102.854,16.29L129.07,26.218,26.219,9.932Z" fill="#59c4c8"/>
      </g>
    </g>
    <g id="Grupo_1099973" data-name="Grupo 1099973" transform="translate(1070 6548.528)">
      <g id="Grupo_1099618" data-name="Grupo 1099618" transform="translate(0 0)">
        <rect id="Rectángulo_401104" data-name="Rectángulo 401104" width="81.642" height="82.626" fill="none"/>
      </g>
      <g id="Grupo_1100124" data-name="Grupo 1100124" transform="translate(7.059 7.62)">
        <g id="Grupo_1100123" data-name="Grupo 1100123" clip-path="url(#clip-path)">
          <path id="Trazado_873874" data-name="Trazado 873874" d="M.93,7.882c-1.183-.252-1.4-2.144.506-2.358L27.12,5.517c1.393-7.4,11.726-7.313,13.25.018l25.588-.01c.955.022,1.806.791,1.244,1.75a2.022,2.022,0,0,1-.739.609h-9.35l6.83,10.774c.08,3.287.959,8.033-3.121,9.192-1.834.521-7.74.395-9.866.258-5.508-.355-5.078-4.677-4.951-9.01,2.062-3.863,4.719-7.406,6.9-11.214H40.267c-.1,1.578-1.164,2.738-2.018,3.962l.079,17.772c2.736,1.366,5.422,2.9,8.253,4.045l12.781,0c.253-.06.329-1.872,1.75-2.159a24.7,24.7,0,0,1,4.341-.038A2.151,2.151,0,0,1,67.4,33.735c.408,4.617-.324,9.82,0,14.5a2.271,2.271,0,0,1-1.958,2.253,16.658,16.658,0,0,1-4.517-.17c-1.125-.451-1.42-1.978-1.559-2.013a20.062,20.062,0,0,0-4.593.865c.409,1.643.451,3.332-.848,4.625-.381.38-1.352.761-1.451.919-.06.1.151,1.761.082,2.26a3.935,3.935,0,0,1-4.2,3.13,3.869,3.869,0,0,1-2.853,3.8c-.31.1-.826.009-1.03.149-.13.089-.4,1.763-1.517,2.526-2.78,1.9-4.988-1.061-7.15-2.429-1.13,2.035-2.749,4.122-5.369,2.84-1.17-.573-1.684-2.06-1.816-2.142-.09-.056-1.5-.07-2.032-.243a3.765,3.765,0,0,1-2.122-1.752c-.143-.248-.336-1.02-.382-1.052-.175-.126-.761.154-1.063.139a4.482,4.482,0,0,1-2.885-1.328c-.345-.388-.784-1.524-.92-1.607-.324-.2-1.459-.034-2.035-.155a4.037,4.037,0,0,1-2.81-4.346c.13-.977,1.085-1.652.181-2.292A18.328,18.328,0,0,0,7.762,49.67a2.181,2.181,0,0,1-2.285,2.011c-1.745.175-5.11.339-5.462-1.946L0,34.58C.3,32.1,3.751,32.273,5.629,32.5c1.574.187,1.945.965,2.4,2.347,2.373-.186,5.05.225,7.384-.009,1.527-.154,2.667-1.483,3.974-2.259,1.335-.792,4.648-2.288,6.135-2.288h3.622V11.673c0-.1-1-1.123-1.266-1.6a5.269,5.269,0,0,1-.755-2.193H14.492l6.537,10.394c.537,1.088.49,4.049.367,5.355-.273,2.914-2.172,4.3-4.959,4.475-2.126.137-8.032.263-9.866-.258-4.08-1.159-3.2-5.905-3.121-9.192L10.28,7.882ZM38.183,6.7A4.488,4.488,0,1,0,33.7,11.185,4.487,4.487,0,0,0,38.183,6.7M18.029,17.99,12.386,8.9,6.742,17.99Zm42.621,0L55.007,8.9,49.364,17.99ZM35.887,13.1a6.918,6.918,0,0,1-4.38,0v17.52c.781-.127,1.3-.708,2.1-1.013a8.02,8.02,0,0,1,2.277-.5ZM19.04,20.18H5.816a1.69,1.69,0,0,0-.253.253v3.2A2.335,2.335,0,0,0,7.5,25.743c2.988.36,6.693-.263,9.759-.019a2.376,2.376,0,0,0,1.784-1.585Zm29.313,0v4.127c0,.341,1.276,1.53,1.784,1.417,3.067-.244,6.772.379,9.759.019a2.335,2.335,0,0,0,1.933-2.11v-3.2a1.691,1.691,0,0,0-.253-.253ZM59.472,35.847h-13.9c-.564,0-6.879-3.72-8.293-4.173a4.131,4.131,0,0,0-4.367,1.032c-2.31,2.1-4.168,4.793-6.531,6.862A1.762,1.762,0,0,0,28.7,42.221l6.015-5.609c1.662-1.027,2.825.182,4.158,1.051,4.754,3.1,9.238,6.66,13.986,9.777,2.166-.624,4.3-1.51,6.614-1.316ZM16.429,37.027H7.922V47.3a24.176,24.176,0,0,1,8.341,3.36c1.56-3.416,5.854-4.367,7.675-.672a4.067,4.067,0,0,1,5.18,1.469c.276.474.6,1.944.692,2,.213.145.749.039,1.067.113a3.6,3.6,0,0,1,2.514,1.866,16.843,16.843,0,0,1,.5,1.61,15.64,15.64,0,0,1,1.674.432,3.484,3.484,0,0,1,1.8,3.509c-.06.448-.458.773-.217,1.3a23.986,23.986,0,0,0,3.75,2.67,1.21,1.21,0,0,0,1.224-1.394c-.183-1.064-4.136-2.308-2.453-3.807,1.575-1.4,3.721,3.234,5.829,1.617a1.583,1.583,0,0,0,.553-1.918c-.388-1.24-3.974-2.689-4.613-3.809a1.115,1.115,0,0,1,1.348-1.689l5.392,3.877c2.227.268,2.992-1.951,1.175-3.365-.791-.616-4.239-2.593-4.371-3.389a1.134,1.134,0,0,1,1.526-1.351c.752.242,2.577,2.06,3.506,2.563,1.906,1.033,3.35-.387,2.46-2.292l-16.248-11.4-.335.011c-2.312,1.94-4.278,4.368-6.819,6a4.028,4.028,0,0,1-5.464-4.287c.219-2,3.243-4.35,4.616-5.828.529-.57,1.036-1.286,1.6-1.854a14.789,14.789,0,0,0-9.757,2.118c-1.094.689-2.339,2.059-3.636,2.26M65.2,33.657H61.83V48.314H65.2ZM5.563,34.837H2.194V49.324H5.563ZM20.18,49.861a1.87,1.87,0,0,0-.62.237,21.183,21.183,0,0,0-2.8,4.275c-.512,1.906,1.331,3.192,2.706,1.865a33.806,33.806,0,0,0,2.492-4.077,1.721,1.721,0,0,0-1.779-2.3M25.4,51.887a1.918,1.918,0,0,0-.944.578c-.266.289-2.887,4.63-2.98,4.938a1.706,1.706,0,0,0,2.788,1.777,53.078,53.078,0,0,0,3.122-5.133A1.683,1.683,0,0,0,25.4,51.887m4.209,3.878a1.842,1.842,0,0,0-.942.574c-.214.233-2.284,3.672-2.34,3.891-.489,1.892,1.446,3.079,2.727,1.886a40.23,40.23,0,0,0,2.587-4.327,1.656,1.656,0,0,0-2.032-2.025m4.042,3.7a.994.994,0,0,0-.534.311c-.169.182-2.145,3.484-2.207,3.69-.438,1.445.847,2.3,1.944,1.1a26.014,26.014,0,0,0,2.253-3.827c.241-.849-.615-1.464-1.456-1.275" transform="translate(0 0)" fill="#445866"/>
        </g>
      </g>
    </g>
  </g>
</svg>
