<svg xmlns="http://www.w3.org/2000/svg" xmlns:xlink="http://www.w3.org/1999/xlink" width="123.001" height="123" viewBox="0 0 123.001 123">
  <defs>
    <linearGradient id="linear-gradient" x1="0.5" x2="0.5" y2="1" gradientUnits="objectBoundingBox">
      <stop offset="0" stop-color="#ddf1ff"/>
      <stop offset="1" stop-color="#fff"/>
    </linearGradient>
    <clipPath id="clip-path">
      <rect id="Rectángulo_403699" data-name="Rectángulo 403699" width="67.958" height="60.218" fill="#445866"/>
    </clipPath>
  </defs>
  <g id="img20" transform="translate(-264.668 -6026)">
    <g id="Grupo_1099808" data-name="Grupo 1099808" transform="translate(264.668 6026)">
      <g id="Grupo_1099775" data-name="Grupo 1099775" transform="translate(0 0)">
        <g id="Grupo_1099770" data-name="Grupo 1099770" transform="translate(0 0)">
          <rect id="Rectángulo_401345" data-name="Rectángulo 401345" width="104.839" height="104.839" transform="translate(9 9.16)" fill="url(#linear-gradient)"/>
          <path id="Sustracción_141" data-name="Sustracción 141" d="M106.183,123,0,106.181,16.822,0,123,16.819,106.183,123v0h0v0ZM23.2,8.788,8.783,99.8,99.8,114.212,114.214,23.2,23.2,8.788Z" transform="translate(0 0)" fill="#8ce2e5"/>
        </g>
      </g>
      <g id="Grupo_1122268" data-name="Grupo 1122268" transform="translate(27.521 31.391)">
        <g id="Grupo_1122267" data-name="Grupo 1122267" clip-path="url(#clip-path)">
          <path id="Trazado_912417" data-name="Trazado 912417" d="M13.266,183.863a16.2,16.2,0,0,1,13.5-.723c1.483.552,2.969,1.667,4.513,2.02,4.469,1.022,11.345-.658,15.214,1.7a13.928,13.928,0,0,1,3.022,2.941l10.726-4.983a6.645,6.645,0,0,1,6.99,2.252c1.053,1.4,1,1.938-.4,2.99-7.328,4.084-14.3,9.974-21.6,13.947-8.818,4.8-18.724-1.422-27.632-3.05a3.426,3.426,0,0,0-1.357.2,25.472,25.472,0,0,0-3.357,1.639c-.477.546.162,2.215-1.138,2.322l-10.3-.1A1.475,1.475,0,0,1,0,203.565c.339-6.523.055-13.094.381-19.614a28.569,28.569,0,0,1,.3-2.968c.591-1.305,2.805-.592,3.832-.572,2.015.041,5.937-.352,7.654.032,1.588.356,1.006,2.215,1.1,3.419m-2.692-.769h-7.3l-.384,19.217H10Zm36.9,9.608a5.371,5.371,0,0,0-3.984-4.181c-2.691-.454-6.72-.06-9.571-.23-5.575-.333-8.573-3.907-14.4-3.464a12.789,12.789,0,0,0-6.253,2.246l-.379,12.548a19.577,19.577,0,0,1,3.023-1.3,11.51,11.51,0,0,1,2.624-.025c5.182.613,11.727,4.019,16.982,4.734a14.468,14.468,0,0,0,8.18-1.329l20.689-13.515a3.79,3.79,0,0,0-3.125-.821c-1.373.287-5.552,2.527-7.1,3.278-.567.276-3.424,1.557-3.613,1.768-.515.577.2,2.014-.58,2.686-.566.486-4.628.321-5.671.3-3.423-.059-6.908-.472-10.358-.4-1.754-.274-1.805-2.845.567-2.887,2.183-.039,4.89.34,7.111.4a37.638,37.638,0,0,1,5.858.193" transform="translate(0 -145.57)" fill="#445866"/>
          <path id="Trazado_912418" data-name="Trazado 912418" d="M121.725,18.406A18.406,18.406,0,1,1,103.318,0a18.406,18.406,0,0,1,18.406,18.406m-2.761-.007a15.637,15.637,0,1,0-15.637,15.637A15.637,15.637,0,0,0,118.964,18.4" transform="translate(-68.594)" fill="#445866"/>
          <path id="Trazado_912419" data-name="Trazado 912419" d="M158.31,33.85c.356.441.177,1.983.25,2.056a5.108,5.108,0,0,1,.764.095,5.633,5.633,0,0,1,3.432,4.451c.106,1.212-.376,2.671-1.845,2.042-1.4-.6-.315-3.108-2.636-3.9-3.338-1.139-5.241,3.845-1.912,5.178,1.484.594,2.563-.076,4.313,1.26a5.657,5.657,0,0,1-.222,9.018,17.678,17.678,0,0,1-1.882.712c-.292.344.567,2.582-1.456,2.494-1.94-.084-.936-1.924-1.284-2.481-.066-.1-1.714-.773-2.178-1.184-.974-.863-2.96-4.787-1.117-5.342,2.456-.74,1.715,1.466,2.555,2.751a2.721,2.721,0,0,0,4.8-2.491c-.676-2.049-2.29-1.6-3.843-1.92-4.487-.93-5.742-7.291-1.975-9.877.316-.217,1.711-.749,1.762-.831.2-.321-.16-1.36.13-1.889a1.706,1.706,0,0,1,2.349-.143" transform="translate(-122.613 -27.022)" fill="#445866"/>
        </g>
      </g>
    </g>
  </g>
</svg>
