<svg xmlns="http://www.w3.org/2000/svg" xmlns:xlink="http://www.w3.org/1999/xlink" width="123.001" height="123" viewBox="0 0 123.001 123">
  <defs>
    <clipPath id="clip-path">
      <rect id="Rectángulo_403447" data-name="Rectángulo 403447" width="62.42" height="57.282" fill="#445866"/>
    </clipPath>
  </defs>
  <g id="img2" transform="translate(-264.668 -6026)">
    <g id="Grupo_1099808" data-name="Grupo 1099808" transform="translate(264.668 6026)">
      <g id="Grupo_1099775" data-name="Grupo 1099775" transform="translate(0 0)">
        <g id="Grupo_1099770" data-name="Grupo 1099770" transform="translate(0 0)">
          <rect id="Rectángulo_401345" data-name="Rectángulo 401345" width="104.839" height="104.839" transform="translate(9 9.16)" fill="#fff"/>
          <path id="Sustracción_141" data-name="Sustracción 141" d="M106.183,123,0,106.181,16.822,0,123,16.819,106.183,123v0h0v0ZM23.2,8.788,8.783,99.8,99.8,114.212,114.214,23.2,23.2,8.788Z" transform="translate(0 0)" fill="#6aa7d6"/>
        </g>
      </g>
      <g id="Grupo_1100113" data-name="Grupo 1100113" transform="translate(30.29 32.859)">
        <g id="Grupo_1100113-2" data-name="Grupo 1100113" clip-path="url(#clip-path)">
          <path id="Trazado_873852" data-name="Trazado 873852" d="M97.683,25.251c-.422.431-1.143.8-1.448,1.4,1.55.377,5.726,2.537,5.99,4.146a1.91,1.91,0,0,1-2.483,2.141A25.8,25.8,0,0,1,97.29,31.2c-3.67-2.176-10.454-2.033-14.706-1.713a12.676,12.676,0,0,0-11.3,11.635c-.07,1.01-.261,3.506.688,4.013.815.435,5.113.951,6.287,1.079a80.6,80.6,0,0,0,13,.394c2.2.391,2.411,3.579-.624,3.819a74,74,0,0,1-13.064-.511c-6.135-.716-10.54-.75-10.129-8.284.37-6.785,4.483-12.912,11.048-14.987-2.4-2.278-4.369-4.6-5.273-7.867-3.66-13.226,11-23.867,22.4-16.208a14.74,14.74,0,0,1,2.065,22.679m.61-10.5A10.933,10.933,0,1,0,87.36,25.684,10.933,10.933,0,0,0,98.293,14.751" transform="translate(-56.128 0)" fill="#445866"/>
          <path id="Trazado_873853" data-name="Trazado 873853" d="M12.269,33.366a2.04,2.04,0,0,1,2.048,1.742c.132,1.9-2.111,2.169-3.343,3.158a8.335,8.335,0,0,0,.184,13.046c.855.647,2.9,1.22,3.13,2.226.624,2.735-2.11,2.446-3.811,3.149a11.467,11.467,0,0,0-6.7,9.374c-.238,3.827,1.2,1.821,3.172,3.018a1.882,1.882,0,0,1-.45,3.386,8.169,8.169,0,0,1-4.622-.993c-3.171-2.186-1.706-8.74-.14-11.636a16.557,16.557,0,0,1,6.224-6.169,32.01,32.01,0,0,1-2.247-2.94,12.09,12.09,0,0,1,3.6-15.959,10.709,10.709,0,0,1,2.952-1.4" transform="translate(0 -27.775)" fill="#445866"/>
          <path id="Trazado_873854" data-name="Trazado 873854" d="M289.131,33.4c1.6-.082,4.545,2.361,5.568,3.556a12,12,0,0,1,.9,14.3c-.567.885-1.3,1.592-1.912,2.439,1.549,1,6.609,4.1,4.273,6.285-1.7,1.589-2.984-.652-4.1-1.6a10.207,10.207,0,0,0-2.928-1.76c-1.13-.416-3.256-.436-3.567-1.789-.545-2.366,1.712-2.423,3.13-3.5a8.336,8.336,0,0,0,.184-13.046c-1.233-.99-3.476-1.259-3.343-3.158a2.065,2.065,0,0,1,1.8-1.739" transform="translate(-239.186 -27.807)" fill="#445866"/>
          <path id="Trazado_873855" data-name="Trazado 873855" d="M262.023,220.186a11.142,11.142,0,1,1-11.142-11.142,11.142,11.142,0,0,1,11.142,11.142m-3.788-.018a7.351,7.351,0,1,0-7.352,7.352,7.351,7.351,0,0,0,7.352-7.352" transform="translate(-199.602 -174.047)" fill="#445866"/>
          <path id="Trazado_873856" data-name="Trazado 873856" d="M282.554,245.853c.719.686.562,1.718.558,2.623,4.3-.644,4.15,4.444,0,3.849.662,4.067-4.491,4.187-3.682,0-4.338.638-4.315-4.516,0-3.849.043-1.119-.318-2.108.781-2.819a1.809,1.809,0,0,1,2.343.2" transform="translate(-229.948 -204.248)" fill="#445866"/>
        </g>
      </g>
    </g>
  </g>
</svg>
