<svg xmlns="http://www.w3.org/2000/svg" xmlns:xlink="http://www.w3.org/1999/xlink" width="123.001" height="123" viewBox="0 0 123.001 123">
  <defs>
    <clipPath id="clip-path">
      <rect id="Rectángulo_403688" data-name="Rectángulo 403688" width="64.686" height="73.126" fill="#445866"/>
    </clipPath>
  </defs>
  <g id="img2" transform="translate(-264.668 -6026)">
    <g id="Grupo_1099808" data-name="Grupo 1099808" transform="translate(264.668 6026)">
      <g id="Grupo_1099775" data-name="Grupo 1099775" transform="translate(0 0)">
        <g id="Grupo_1099770" data-name="Grupo 1099770" transform="translate(0 0)">
          <rect id="Rectángulo_401345" data-name="Rectángulo 401345" width="104.839" height="104.839" transform="translate(9 9.16)" fill="#fff"/>
          <path id="Sustracción_141" data-name="Sustracción 141" d="M106.183,123,0,106.181,16.822,0,123,16.819,106.183,123v0h0v0ZM23.2,8.788,8.783,99.8,99.8,114.212,114.214,23.2,23.2,8.788Z" transform="translate(0 0)" fill="#6aa7d6"/>
        </g>
      </g>
      <g id="Grupo_1122250" data-name="Grupo 1122250" transform="translate(29.158 24.937)">
        <g id="Grupo_1122249" data-name="Grupo 1122249" clip-path="url(#clip-path)">
          <path id="Trazado_912355" data-name="Trazado 912355" d="M210.387,278.464c1.166-1.274,1.867-2.229,3.8-1.917,1,.162,2.258,2.093,3.107,2.718l6.644-6.65c1.807-1.743,4.185.512,5.286,2.009a2.6,2.6,0,0,1,.1,3.19c-2.486,3.349-7.235,6.56-9.923,9.932-1.807,1.17-3.177,1.006-4.831-.286a47.848,47.848,0,0,1-5.059-5.141c-1.1-1.8-.277-2.591.881-3.856m16.224-3.321c-.313-.293-1.026-.972-1.4-.7l-7.6,7.527c-1.234.363-3.173-2.569-4.173-3.233-.238-.042-2.162,1.8-2.05,2.227a57.092,57.092,0,0,0,4.808,4.864c1.049.727,1.519.343,2.372-.36a87.7,87.7,0,0,0,8.646-8.658,1.584,1.584,0,0,0,.322-.548c-.356-.284-.648-.853-.931-1.118" transform="translate(-170.921 -222.44)" fill="#445866"/>
          <path id="Trazado_912356" data-name="Trazado 912356" d="M14.4,11.2A3.713,3.713,0,0,1,11.2,14.184c-3.1.372-6.819-.226-9.988.009C.542,14.1-.129,13.436.087,12.743L12.39.258,12.86,0l32.4.012c2.145.42,3.017,2.506,2.839,4.539,1.56-.105,3.06-.043,4.01,1.363a10.4,10.4,0,0,1,.544,1.095V40.526a.274.274,0,0,0,.273.273h5.647c1.892,0,4.575,2.488,5.284,4.188.523,1.256,1.439,6.266-.407,6.531-1.955.281-1.187-3.25-1.34-4.419a4.7,4.7,0,0,0-4.165-4.032c-6.011-.4-11.844-.038-18.861-.08-2.008.119-4.244,1.873-4.465,3.914-.669,6.188.072,13.207,0,19.856a4.822,4.822,0,0,0,4.3,3.893c6.439-.018,12.481.492,18.381.029,7.525-.59,4.015-10.4,4.831-15.388.245-1.5,2.142-1.5,2.362.349a71.144,71.144,0,0,1-.027,10.547,7.126,7.126,0,0,1-6.438,6.677c-6.126.484-12.14.185-19.027-.007a6.868,6.868,0,0,1-3.467-1.012,7.384,7.384,0,0,1-3.287-7.186l-24.144.008c-2.476-.222-3.595-2.223-3.362-4.562-2.375.3-4.341-.739-4.721-3.2L.007,18.478c-.153-1.873,2.158-2.26,2.379-.361l.09,39.073a4.714,4.714,0,0,0,.543.55H32.256V46.9c0-2.324,3.368-6.1,5.738-6.1h7.742V3a.822.822,0,0,0-.82-.82H14.4Zm-10.383.638H11.4a4.271,4.271,0,0,0,.638-.638V3.821ZM50.472,40.8V7.555c0-.62-1.813-1.051-2.368-.82V40.8ZM32.256,60.107H7.119c-.126.483.028,2.186.638,2.186h24.5Z" transform="translate(0)" fill="#445866"/>
          <path id="Trazado_912357" data-name="Trazado 912357" d="M103.283,33l17.814-.046a2.9,2.9,0,0,1,2.277,2.277c-.337,5.507.432,11.506,0,16.953a2.725,2.725,0,0,1-2.823,2.824c-5.423.384-11.295-.3-16.766-.007a2.709,2.709,0,0,1-2.466-2.634c-.511-5.421.4-11.628,0-17.134A2.8,2.8,0,0,1,103.283,33m2.782,19.813V49.806a6.127,6.127,0,0,1,1.917-3.547c.225-.206,1.138-.661,1.152-.82a9.894,9.894,0,0,1-.526-1.636c-.556-6.214,6.858-6.469,7.455-1.627a8.891,8.891,0,0,1,.027,1.627,9.9,9.9,0,0,1-.526,1.636c.014.159.928.613,1.152.82a6.127,6.127,0,0,1,1.917,3.547v3.006c.9-.091,2.44.4,2.533-.83-.344-5.068.515-10.867.028-15.848-.059-.605-.1-.964-.822-1-5.082.392-10.87-.491-15.866,0-.605.059-.964.1-1,.822.41,5.055-.52,10.9.008,15.859.158,1.487,1.393.886,2.55,1m5.775-11.62c-1.4.418-1.256,4.212.647,3.938,1.957-.282,1.747-4.655-.647-3.938m4.425,11.62V49.624a3.811,3.811,0,0,0-1.282-1.814,7.544,7.544,0,0,0-5.041-.137,4.413,4.413,0,0,0-1.51,1.769v3.37Z" transform="translate(-82.734 -26.95)" fill="#445866"/>
          <path id="Trazado_912358" data-name="Trazado 912358" d="M42.531,187l30.567-.043c1.761.2,1.761,2.172,0,2.376H42.852A1.18,1.18,0,0,1,42.531,187" transform="translate(-34.008 -152.901)" fill="#445866"/>
          <path id="Trazado_912359" data-name="Trazado 912359" d="M42.335,275.973l17.276-.048c1.643.385,1.555,2.177-.188,2.382-5.241-.452-11.463.589-16.585,0a1.208,1.208,0,0,1-.5-2.334" transform="translate(-33.994 -225.664)" fill="#445866"/>
          <path id="Trazado_912360" data-name="Trazado 912360" d="M42.318,217l17.268-.044a1.1,1.1,0,0,1,.188,2.2H42.451c-1.154-.047-1.221-1.924-.133-2.154" transform="translate(-33.975 -177.439)" fill="#445866"/>
          <path id="Trazado_912361" data-name="Trazado 912361" d="M42,247.034l9.251-.03a1.114,1.114,0,0,1-.168,2.191c-2.677-.306-6.167.384-8.741-.022A1.136,1.136,0,0,1,42,247.034" transform="translate(-33.843 -202.011)" fill="#445866"/>
          <path id="Trazado_912362" data-name="Trazado 912362" d="M46.069,122.224a1.194,1.194,0,0,1,.87,1.95,48.634,48.634,0,0,1-3.657,3.627c-1.322.692-2.348-.476-1.526-1.708a40.326,40.326,0,0,1,3.453-3.466,1.749,1.749,0,0,1,.86-.4" transform="translate(-33.909 -99.959)" fill="#445866"/>
          <path id="Trazado_912363" data-name="Trazado 912363" d="M115.844,246.812a31.479,31.479,0,0,1,4.484,0,1.16,1.16,0,0,1,.3,1.871c-.448.385-3.924.4-4.6.24a1.127,1.127,0,0,1-.186-2.112" transform="translate(-94.209 -201.789)" fill="#445866"/>
        </g>
      </g>
    </g>
  </g>
</svg>
