<svg xmlns="http://www.w3.org/2000/svg" xmlns:xlink="http://www.w3.org/1999/xlink" width="70" height="70" viewBox="0 0 70 70">
  <defs>
    <clipPath id="clip-path">
      <rect id="Rect치ngulo_403687" data-name="Rect치ngulo 403687" width="48.05" height="46.539" fill="#445866"/>
    </clipPath>
  </defs>
  <g id="img2" transform="translate(-300 -796.971)">
    <rect id="Rect치ngulo_401354" data-name="Rect치ngulo 401354" width="70" height="70" transform="translate(300 796.971)" fill="#fff"/>
    <g id="Grupo_1122248" data-name="Grupo 1122248" transform="translate(310.975 808.701)">
      <g id="Grupo_1122247" data-name="Grupo 1122247" clip-path="url(#clip-path)">
        <path id="Trazado_912354" data-name="Trazado 912354" d="M5.836,6.418c.151,3.67-.268,7.595-.017,11.237.777,11.289,16.889,11.657,17.588-.526.2-3.478-.165-7.144,0-10.642-2.214-.8-5.184-1.381-4.232-4.513C20.007-.758,22.835.01,24.838.766a6.142,6.142,0,0,1,4.3,5.295,103.449,103.449,0,0,1,0,12.4,14.575,14.575,0,0,1-11.6,13.251,10.251,10.251,0,0,0,18.186,5.2c2.99-3.617,2.072-8.342,2.175-12.7a7.723,7.723,0,0,1-4.374-6.286,7.313,7.313,0,0,1,10.479-7.013c5.505,2.409,5.352,10.905-.228,13.167.111,5.916.343,11.678-3.6,16.492-9.238,11.292-27.309,5.589-28.388-8.837A14.641,14.641,0,0,1,.084,18.593c-.271-4.16.218-8.608,0-12.8a6.286,6.286,0,0,1,2.89-4.437A15.931,15.931,0,0,1,7.221,0,2.912,2.912,0,0,1,9.991,3.978C9.43,5.669,7.258,5.83,5.836,6.418m37.939,11.04a2.952,2.952,0,1,0-2.952,2.952,2.952,2.952,0,0,0,2.952-2.952" transform="translate(0 0)" fill="#445866"/>
      </g>
    </g>
  </g>
</svg>
