<svg xmlns="http://www.w3.org/2000/svg" xmlns:xlink="http://www.w3.org/1999/xlink" width="123.001" height="123" viewBox="0 0 123.001 123">
  <defs>
    <clipPath id="clip-path">
      <rect id="Rectángulo_403448" data-name="Rectángulo 403448" width="71.614" height="71.619" fill="#445866"/>
    </clipPath>
  </defs>
  <g id="img3" transform="translate(-264.668 -6026)">
    <g id="Grupo_1099808" data-name="Grupo 1099808" transform="translate(264.668 6026)">
      <g id="Grupo_1099775" data-name="Grupo 1099775" transform="translate(0 0)">
        <g id="Grupo_1099770" data-name="Grupo 1099770" transform="translate(0 0)">
          <rect id="Rectángulo_401345" data-name="Rectángulo 401345" width="104.839" height="104.839" transform="translate(9 9.16)" fill="#fff"/>
          <path id="Sustracción_141" data-name="Sustracción 141" d="M106.183,123,0,106.181,16.822,0,123,16.819,106.183,123v0h0v0ZM23.2,8.788,8.783,99.8,99.8,114.212,114.214,23.2,23.2,8.788Z" transform="translate(0 0)" fill="#6aa7d6"/>
        </g>
      </g>
      <g id="Grupo_1100115" data-name="Grupo 1100115" transform="translate(25.693 25.69)">
        <g id="Grupo_1100114" data-name="Grupo 1100114" clip-path="url(#clip-path)">
          <path id="Trazado_873857" data-name="Trazado 873857" d="M28.177,59.58c.479.715,1.1,1.447.358,2.241l-9.579,9.6a1.584,1.584,0,0,1-1.9-.274L.48,54.564a1.512,1.512,0,0,1-.186-1.986l9.713-9.645c1.212-.642,1.879.73,2.273.67.44-.067,3.813-3.357,4.52-3.915a18.583,18.583,0,0,1,6.334-3.256,24.476,24.476,0,0,1,8.9-18.61,6.069,6.069,0,0,1,2.054-1.265c-.143-.722-.721-1.153-.853-1.922a4.229,4.229,0,0,1,3-5.069l-3.624-6.5c-.478-1.526.229-1.789,1.474-2.19C37.686-.278,45.852-.35,49.371,1.013a1.411,1.411,0,0,1,.948,1.93L46.639,9.568c3.108.849,3.894,4.251,2.227,6.818A24.173,24.173,0,0,1,59.725,35.56c1.572-.68,2.819-2.028,4.417-2.661,4.416-1.75,8.146,1.69,7.369,6.294-.284,1.685-2.831,3.857-4.077,5.064C63.051,48.5,58.046,53.4,53.453,57.341c-.951.815-2.947,2.238-4.215,2.238ZM46.818,3.3a24.066,24.066,0,0,0-10.757.09l2.9,5.436a9.288,9.288,0,0,0,2.562-.157c.478,0,2.144.483,2.447.075Zm-6.669,8.3c-1.234.111-4.39.438-4.227,2.145.2,2.054,2.759.779,4,.673a21.3,21.3,0,0,1,2.872-.01c.918.068,2.315.623,3.043.56a1.393,1.393,0,0,0,.882-2.156c-.744-1.129-5.271-1.329-6.568-1.212m2.726,28.447h4.033c.774,0,2.538,1.474,3.193,1.949l6.387-4.2c.818-.9.168-4.891-.108-6.146-1.088-4.935-4.609-10.316-9.038-12.83-11.091-6.3-21.387,6.758-21.315,17.1,3.893-.643,7.779.65,11.1,2.615.918.544,1.713,1.563,2.882,1.509-.081-.406.135-1.5-.029-1.764-.081-.13-1.841-.817-2.48-1.731a1.4,1.4,0,0,1,1.519-2.237c.778.154,1.2,1.613,2.676,1.426a1.373,1.373,0,0,0,1.151-1.657c-.27-1.306-2-.994-3.068-1.424a4.257,4.257,0,0,1-1.74-6.325,14.474,14.474,0,0,1,1.885-1.521c.383-.622-.436-3.34,1.743-3.019,1.761.259.891,2.347,1.3,3.018.348.572,3.521,1.29,2.065,3.138-1.336,1.7-2.42-.706-3.663-.629a1.614,1.614,0,0,0-1.326,1.655c.224,1.449,2,1.1,3.109,1.566a4.251,4.251,0,0,1,.986,7.088,13.439,13.439,0,0,1-1.229.652c-.164.263.054,1.357-.029,1.764m22.9-4.8a10.126,10.126,0,0,0-1.98,1.069c-4.3,2.559-8.453,5.718-12.6,8.471a5.661,5.661,0,0,1-4.507,6.327,70.036,70.036,0,0,1-10.716.055c-1.723-.156-2.056-1.75-.671-2.66,3.2-.26,6.659.218,9.828-.03,4.4-.345,4.219-5.136.847-5.7-2.735-.458-6.294.7-8.775-.725-3.06-1.758-4.462-3.2-8.383-3.447-6.487-.41-10.149,3.084-14.613,7.087L25.256,56.675l23.94-.006a6.89,6.89,0,0,0,2.823-1.837c5.6-4.9,10.871-10.5,16.386-15.52a2.619,2.619,0,0,0-2.635-4.071M10.611,46.209,3.43,53.391l14.805,14.8,7.18-7.181Z" transform="translate(0 0)" fill="#445866"/>
          <path id="Trazado_873858" data-name="Trazado 873858" d="M163.745,271.36a1.389,1.389,0,1,1-1.389-1.389,1.389,1.389,0,0,1,1.389,1.389" transform="translate(-132.114 -221.58)" fill="#445866"/>
        </g>
      </g>
    </g>
  </g>
</svg>
