<svg xmlns="http://www.w3.org/2000/svg" xmlns:xlink="http://www.w3.org/1999/xlink" width="123.001" height="123" viewBox="0 0 123.001 123">
  <defs>
    <clipPath id="clip-path">
      <rect id="Rectángulo_403689" data-name="Rectángulo 403689" width="61.338" height="59.084" fill="#445866"/>
    </clipPath>
  </defs>
  <g id="img3" transform="translate(-264.668 -6026)">
    <g id="Grupo_1099808" data-name="Grupo 1099808" transform="translate(264.668 6026)">
      <g id="Grupo_1099775" data-name="Grupo 1099775" transform="translate(0 0)">
        <g id="Grupo_1099770" data-name="Grupo 1099770" transform="translate(0 0)">
          <rect id="Rectángulo_401345" data-name="Rectángulo 401345" width="104.839" height="104.839" transform="translate(9 9.16)" fill="#fff"/>
          <path id="Sustracción_141" data-name="Sustracción 141" d="M106.183,123,0,106.181,16.822,0,123,16.819,106.183,123v0h0v0ZM23.2,8.788,8.783,99.8,99.8,114.212,114.214,23.2,23.2,8.788Z" transform="translate(0 0)" fill="#6aa7d6"/>
        </g>
      </g>
      <g id="Grupo_1122252" data-name="Grupo 1122252" transform="translate(30.832 31.957)">
        <g id="Grupo_1122251" data-name="Grupo 1122251" clip-path="url(#clip-path)">
          <path id="Trazado_912364" data-name="Trazado 912364" d="M4.8,3.6A4.175,4.175,0,0,1,8.241.006L46.827,0a3.934,3.934,0,0,1,3.439,3.144L50.273,24.8a13.413,13.413,0,0,1,6.5,2.456c-.212-1.8,2.557-2.107,2.828-.685a34.088,34.088,0,0,1-.029,4.863,1.473,1.473,0,0,1-.588.79,16.925,16.925,0,0,1-5.055.171,1.406,1.406,0,0,1-.2-2.674l1.284-.32a9.568,9.568,0,0,0-11.4.309,9.047,9.047,0,0,0,.919,14.534,9.191,9.191,0,0,0,13.986-6.364c.167-.979-.332-1.954.883-2.484a1.272,1.272,0,0,1,1.889.966c.5,4.605-2.851,9.322-6.961,11.107a19.626,19.626,0,0,1-4,1.057c-.238.334.032,4.706-.066,5.6-.27,2.454-2.966,4.579-5.3,4.959L4.91,59.064C2.675,58.583.3,56.484.05,54.126a48.84,48.84,0,0,1,.08-5.892,4.128,4.128,0,0,1,.61-.615H4.8ZM7.552,47.618H40.391c1.3,0,.739,4.639.841,5.589.168,1.571,1.735,3.342,3.408,3.1a3.754,3.754,0,0,0,3.021-3.41,36.876,36.876,0,0,0-.018-4.418c-.122-.357-1.459-.41-1.9-.547-3.788-1.178-8.183-5.756-8.183-9.883V35.294c0-.047.194-.117.153-.23H24.929a2.546,2.546,0,0,1-.692-.532,1.42,1.42,0,0,1,.7-2.22l13.291-.028a22.5,22.5,0,0,0,1.416-2.411,12.142,12.142,0,0,1,8.009-4.928l.023-20.584a1.5,1.5,0,0,0-1.455-1.607H9a1.208,1.208,0,0,0-1.3.995Zm30.772,2.756H2.806s-.329,3.545.784,5.042a2.709,2.709,0,0,0,1.9.928H39.4a10.2,10.2,0,0,1-1.072-2.985Z" transform="translate(0)" fill="#445866"/>
          <path id="Trazado_912365" data-name="Trazado 912365" d="M314.991,199.078c2.889-.473,1.2,4.3,1.8,5.628.345.761,2.8,2.363,3.066,3.209a1.416,1.416,0,0,1-2.221,1.609,40.53,40.53,0,0,1-3.613-3.735,39.065,39.065,0,0,1-.059-5.74,1.115,1.115,0,0,1,1.025-.97" transform="translate(-265.835 -168.573)" fill="#445866"/>
          <path id="Trazado_912366" data-name="Trazado 912366" d="M175.385,62.437a1.537,1.537,0,0,1-1.1,2.41H158.356a1.467,1.467,0,0,1-.493-2.8c5.441-.27,10.954-.036,16.423-.12a2.273,2.273,0,0,1,1.1.507" transform="translate(-132.972 -52.437)" fill="#445866"/>
          <path id="Trazado_912367" data-name="Trazado 912367" d="M158.193,136.154l16.025-.022a1.452,1.452,0,0,1,.018,2.9l-16.069-.013a1.448,1.448,0,0,1,.026-2.863" transform="translate(-132.923 -115.291)" fill="#445866"/>
          <path id="Trazado_912368" data-name="Trazado 912368" d="M79.271,202.939c-1.268,1.249-2.668,2.39-3.934,3.644a1.262,1.262,0,0,1-1.517,0,30.4,30.4,0,0,1-3.1-3.023,1.464,1.464,0,0,1,.178-1.874c1.5-1.459,3.093,1.7,3.735,1.6l4.391-4.033c1.551-.85,2.821.7,1.831,2.137a16.968,16.968,0,0,1-1.585,1.554" transform="translate(-59.678 -168.54)" fill="#445866"/>
          <path id="Trazado_912369" data-name="Trazado 912369" d="M81.388,48.176a1.779,1.779,0,0,1-.711,1.25c-1.644,1.243-3.368,3.715-4.885,4.7a1.727,1.727,0,0,1-2.074-.071,27.775,27.775,0,0,1-2.6-2.61c-1.141-1.6.384-3.124,1.761-2.22.385.253,1.66,1.881,1.968,1.827l4.3-4.131c1.35-.554,2.332.162,2.236,1.252" transform="translate(-59.896 -39.578)" fill="#445866"/>
          <path id="Trazado_912370" data-name="Trazado 912370" d="M77.034,130.813c-.947.872-1.812,2.122-3.2,1.711-.6-.178-2.349-2.6-3.148-2.976a1.452,1.452,0,0,1,2.045-2.046c.322.229,1.479,1.732,1.816,1.674l4.54-4.2c1.492-.45,2.375.605,1.872,2.024-1.3,1.269-2.587,2.579-3.922,3.807" transform="translate(-59.589 -105.759)" fill="#445866"/>
        </g>
      </g>
    </g>
  </g>
</svg>
