<svg xmlns="http://www.w3.org/2000/svg" xmlns:xlink="http://www.w3.org/1999/xlink" width="70" height="70" viewBox="0 0 70 70">
  <defs>
    <clipPath id="clip-path">
      <rect id="Rect치ngulo_403684" data-name="Rect치ngulo 403684" width="48.091" height="44.721" fill="#445866"/>
    </clipPath>
  </defs>
  <g id="img3" transform="translate(-610 -796.971)">
    <rect id="Rect치ngulo_401355" data-name="Rect치ngulo 401355" width="70" height="70" transform="translate(610 796.971)" fill="#fff"/>
    <g id="Grupo_1122242" data-name="Grupo 1122242" transform="translate(620.954 809.61)">
      <g id="Grupo_1122241" data-name="Grupo 1122241" clip-path="url(#clip-path)">
        <path id="Trazado_912349" data-name="Trazado 912349" d="M9.078,73.546H4.91C2.989,73.546.2,70.151.292,68.162.882,60.341-.6,51.1.292,43.445a6.013,6.013,0,0,1,4.88-5.36c.539-.113,3.906-.55,3.906.1Z" transform="translate(0 -28.825)" fill="#445866"/>
        <path id="Trazado_912350" data-name="Trazado 912350" d="M164.119,74.268V38.783h4.168c1.841,0,4.758,3.425,4.618,5.384-.4,7.817.617,16.3.036,24.038a6.411,6.411,0,0,1-2.551,5.07,16.626,16.626,0,0,1-2.1.993Z" transform="translate(-125.034 -29.547)" fill="#445866"/>
        <path id="Trazado_912351" data-name="Trazado 912351" d="M74.934,44.721H51.119V4.831A10.222,10.222,0,0,1,52.306,1.97,6.189,6.189,0,0,1,54.64.493c2.2-.672,12.23-.527,14.944-.314,2,.157,3.93.922,4.755,2.866a15.63,15.63,0,0,1,.6,2.025ZM70.409,4.712H55.644V9.236H70.409ZM59.931,19.358c-.234,1.332.172,3.238,0,4.644-1.206.2-4.864-.467-5.584.489-.638.847-.683,5.465.7,5.465h4.882V34.6c0,1.733,4.141,1.523,5.261,1.206a2.2,2.2,0,0,0,.931-1.206V29.956c1.251-.2,4.4.386,5.34-.257.878-.6.769-4.179.322-5.048-.624-1.213-4.389-.427-5.662-.649V19.6a12.053,12.053,0,0,0-.531-1.255c-.452-.461-4.654-.45-5.125.006-.041.04-.526.954-.536,1.01" transform="translate(-38.945 0)" fill="#445866"/>
      </g>
    </g>
  </g>
</svg>
