<svg xmlns="http://www.w3.org/2000/svg" xmlns:xlink="http://www.w3.org/1999/xlink" width="70" height="70" viewBox="0 0 70 70">
  <defs>
    <clipPath id="clip-path">
      <rect id="Rect치ngulo_403686" data-name="Rect치ngulo 403686" width="50.661" height="44.084" fill="#445866"/>
    </clipPath>
  </defs>
  <g id="img4" transform="translate(-920 -796.971)">
    <rect id="Rect치ngulo_401356" data-name="Rect치ngulo 401356" width="70" height="70" transform="translate(920 796.971)" fill="#fff"/>
    <g id="Grupo_1122246" data-name="Grupo 1122246" transform="translate(930.006 809.928)">
      <g id="Grupo_1122245" data-name="Grupo 1122245" clip-path="url(#clip-path)">
        <path id="Trazado_912353" data-name="Trazado 912353" d="M2.1,1.984A6.551,6.551,0,0,1,5.848.218a121.9,121.9,0,0,1,14.307.01C24,.735,24.562,4.943,27.677,6.31c5.315.4,10.987-.32,16.261.065,3.206.234,5.575,1.936,6.34,5.117-.121,8.424.768,17.66.176,26.029-.224,3.165-1.843,5.525-4.979,6.335-13.395.3-26.914.3-40.306,0C1.851,42.935.378,40.591.182,37.243-.4,27.277.638,16.75.183,6.726A7.194,7.194,0,0,1,2.1,1.984M28.4,22.127V16.9c0-.43-.984-.971-1.395-1.04a12.252,12.252,0,0,0-4.036.192,2.668,2.668,0,0,0-.727.848v5.227H17.16a2.044,2.044,0,0,0-.931.644c-.4.59-.388,3.5-.253,4.264.077.433.575,1.251,1.041,1.251h5.227v5.227a2.842,2.842,0,0,0,.518.771c.666.474,4.6.475,5.206-.059a4.326,4.326,0,0,0,.434-.712V28.285h5.227a4.326,4.326,0,0,0,.712-.434c.537-.612.533-4.4.076-5.08a2.044,2.044,0,0,0-.931-.644Z" transform="translate(0 0)" fill="#445866"/>
      </g>
    </g>
  </g>
</svg>
