<svg xmlns="http://www.w3.org/2000/svg" xmlns:xlink="http://www.w3.org/1999/xlink" width="123.001" height="123" viewBox="0 0 123.001 123">
  <defs>
    <clipPath id="clip-path">
      <rect id="Rectángulo_403456" data-name="Rectángulo 403456" width="67.862" height="66.548" fill="#445866"/>
    </clipPath>
  </defs>
  <g id="img4" transform="translate(-264.668 -6026)">
    <g id="Grupo_1099808" data-name="Grupo 1099808" transform="translate(264.668 6026)">
      <g id="Grupo_1099775" data-name="Grupo 1099775" transform="translate(0 0)">
        <g id="Grupo_1099770" data-name="Grupo 1099770" transform="translate(0 0)">
          <rect id="Rectángulo_401345" data-name="Rectángulo 401345" width="104.839" height="104.839" transform="translate(9 9.16)" fill="#fff"/>
          <path id="Sustracción_141" data-name="Sustracción 141" d="M106.183,123,0,106.181,16.822,0,123,16.819,106.183,123v0h0v0ZM23.2,8.788,8.783,99.8,99.8,114.212,114.214,23.2,23.2,8.788Z" transform="translate(0 0)" fill="#6aa7d6"/>
        </g>
      </g>
      <g id="Grupo_1100117" data-name="Grupo 1100117" transform="translate(27.569 28.226)">
        <g id="Grupo_1100116" data-name="Grupo 1100116" clip-path="url(#clip-path)">
          <path id="Trazado_873859" data-name="Trazado 873859" d="M105.292,71.531a1.747,1.747,0,0,0,1.836,0l.027-.019c1.085-.876,2.254-1.71,3.386-2.517a42.438,42.438,0,0,0,5.589-4.482,29.1,29.1,0,0,0,8.158-18.351,79.778,79.778,0,0,0,0-10.383c-.165-1.433-1.081-1.478-1.89-1.517a5.2,5.2,0,0,1-.712-.067,47.012,47.012,0,0,1-12.093-3.842c-.252-.121-.61-.344-.989-.579a6.39,6.39,0,0,0-2.292-1.094,5.887,5.887,0,0,0-2.537,1.122c-.355.219-.691.426-.942.549a44.245,44.245,0,0,1-12.089,3.843,5.337,5.337,0,0,1-.7.066c-.813.041-1.733.087-1.9,1.52a64.98,64.98,0,0,0,.418,13.732c1.842,10.811,9.129,16.971,16.736,22.021M91,36.854a40.778,40.778,0,0,0,15.267-5.245,39.854,39.854,0,0,0,15.159,5.242c-.036,1.39-.011,2.8.013,4.159a36.962,36.962,0,0,1-.759,10.173c-.129.487-1.084,3.339-1.417,4.13l-.011-.024c-1.908-3.734-3.881-5.007-8.121-5.242-1.531-.085-3.323-.127-5.086-.127s-3.513.043-4.931.128c-4.062.245-6.066,1.567-7.943,5.24l-.011.024c-.332-.791-1.288-3.643-1.417-4.13a36.968,36.968,0,0,1-.759-10.173c.025-1.362.05-2.767.014-4.156m4.481,20.053a5.4,5.4,0,0,1,4.493-3.956,82.843,82.843,0,0,1,12.01-.055c2.194.172,4.659,1.773,4.986,4.154.259,1.886-.067,2.294-1.148,3.647l-.113.142a33.4,33.4,0,0,1-6.684,5.852c-.831.606-1.69,1.232-2.514,1.875l-.418.091c-.764-.58-1.558-1.151-2.326-1.7a34.353,34.353,0,0,1-7.05-6.114l-.044-.055c-1.171-1.468-1.524-1.911-1.192-3.878" transform="translate(-72.287 -23.573)" fill="#445866"/>
          <path id="Trazado_873860" data-name="Trazado 873860" d="M158.482,75.638a6.944,6.944,0,1,0-6.943-6.944,6.951,6.951,0,0,0,6.943,6.944m-4.174-6.944a4.175,4.175,0,1,1,4.175,4.175,4.18,4.18,0,0,1-4.175-4.175" transform="translate(-124.561 -50.758)" fill="#445866"/>
          <rect id="Rectángulo_403449" data-name="Rectángulo 403449" width="2.855" height="2.677" transform="translate(20.3 14.374)" fill="#445866"/>
          <rect id="Rectángulo_403450" data-name="Rectángulo 403450" width="2.855" height="2.677" transform="translate(44.69 14.374)" fill="#445866"/>
          <rect id="Rectángulo_403451" data-name="Rectángulo 403451" width="2.855" height="2.677" transform="translate(20.3 23.275)" fill="#445866"/>
          <rect id="Rectángulo_403452" data-name="Rectángulo 403452" width="2.855" height="2.677" transform="translate(44.69 23.275)" fill="#445866"/>
          <rect id="Rectángulo_403453" data-name="Rectángulo 403453" width="2.855" height="2.677" transform="translate(24.751 32.176)" fill="#445866"/>
          <rect id="Rectángulo_403454" data-name="Rectángulo 403454" width="2.855" height="2.677" transform="translate(40.24 32.176)" fill="#445866"/>
          <path id="Trazado_873861" data-name="Trazado 873861" d="M108.05,22.767a123.725,123.725,0,0,0,0-14.652C108,7.543,107.933,6.832,107,6.591l-.033-.009h-.122A36.971,36.971,0,0,1,86.252.047L86.184,0H84.858l-.069.048A37.69,37.69,0,0,1,66.181,6.543a6.768,6.768,0,0,1-.952,0c-.975-.05-2.082-.107-2.234,1.575a123.236,123.236,0,0,0,0,14.652c.821,15.552,11.7,24.387,21.083,30.347.069.044.148.1.233.157a2.613,2.613,0,0,0,1.254.584h.025c.4-.014,1.318-.648,2.867-1.814.2-.152.371-.279.482-.359,9.988-7.177,18.32-14.306,19.111-28.914M65.863,9.212c6.447-.061,13.078-2.189,19.717-6.328a37.362,37.362,0,0,0,19.6,6.327c-.094,2.135-.039,4.344.014,6.483.1,4.161.211,8.464-.758,12.455-2.582,10.635-9.644,16.2-18.61,22.362l-.423.092c-1.294-1.019-2.672-2-4.006-2.944a47.229,47.229,0,0,1-7.967-6.575,30.847,30.847,0,0,1-7.58-17.117,76.2,76.2,0,0,1-.024-7.851c.071-2.286.144-4.647.036-6.906" transform="translate(-51.6 -0.001)" fill="#445866"/>
          <rect id="Rectángulo_403455" data-name="Rectángulo 403455" width="2.677" height="2.855" transform="translate(32.584 39.832)" fill="#445866"/>
          <path id="Trazado_873862" data-name="Trazado 873862" d="M259.221,153.987c-.22-2.953-1.673-4.615-4.091-4.681a4.405,4.405,0,0,0-4.279,3.24l0,.022v10.945a4.21,4.21,0,0,0-2.981-.988c-2.127.208-3.767,2.316-5.354,4.355a22.47,22.47,0,0,1-1.991,2.346,10.931,10.931,0,0,1-1.667,1.226,11.541,11.541,0,0,0-1.815,1.347c-1.577,1.532-3.993,5.658-3.993,7.851v9.079h2.67V180.54c0-1.608,1.436-4.672,2.612-6.053a8.959,8.959,0,0,1,2.212-1.773,11.618,11.618,0,0,0,1.59-1.138,20.555,20.555,0,0,0,2.461-2.914,17.54,17.54,0,0,1,2.554-2.963,1.552,1.552,0,0,1,1.377-.373,1.375,1.375,0,0,1,.886.928c.251.708-.053,1.087-.513,1.659-.071.088-.143.177-.214.27-.8,1.048-1.767,2.079-2.7,3.076s-1.889,2.024-2.71,3.085l-.023.035a1.445,1.445,0,0,0,.322,1.959,1.467,1.467,0,0,0,1.966-.336l7.715-8.841.012-.016a1.488,1.488,0,0,0,.25-.852c0-.047.007-.095.011-.143a43.8,43.8,0,0,0-.05-6.006,35.752,35.752,0,0,1,.051-6.793,1.442,1.442,0,0,1,1.537-1.278,1.353,1.353,0,0,1,1.3,1.392,43.26,43.26,0,0,0,0,6.929c.213,4.3.434,8.748-1.075,11.615-1.446,2.747-3.292,5.526-5.078,8.213-1.38,2.076-2.806,4.223-4.035,6.337-.037.064-.089.145-.147.236a2.261,2.261,0,0,0-.532,1.252l.028.177.174.041a3.325,3.325,0,0,1,.7.414,2.6,2.6,0,0,0,1.191.59.5.5,0,0,0,.256-.067l.057-.033,9.7-15.586a12.093,12.093,0,0,0,1.607-5.672,121.331,121.331,0,0,0,.009-13.928" transform="translate(-191.556 -122.725)" fill="#445866"/>
          <path id="Trazado_873863" data-name="Trazado 873863" d="M20.548,170.53a10.953,10.953,0,0,1-1.667-1.226,22.507,22.507,0,0,1-1.991-2.346c-1.587-2.039-3.227-4.147-5.354-4.355a4.207,4.207,0,0,0-2.981.988V152.667a7.228,7.228,0,0,0-.681-1.475,4.2,4.2,0,0,0-4.141-1.741A3.9,3.9,0,0,0,.5,152.175C-.26,154.622.036,165.312.18,167.822a11.773,11.773,0,0,0,1.441,5.489l9.843,15.882.035.057.058.033a.463.463,0,0,0,.238.06,3.543,3.543,0,0,0,1.494-.732c.192-.127.374-.246.472-.294l.126-.062.02-.139c.037-.256-.205-.74-1.038-2.072-.079-.126-.143-.229-.184-.3-1.1-1.838-2.354-3.728-3.568-5.556-1.766-2.659-3.592-5.408-5.009-8.1-1.509-2.867-1.288-7.314-1.075-11.615a43.255,43.255,0,0,0,0-6.929,1.353,1.353,0,0,1,1.3-1.392,1.442,1.442,0,0,1,1.537,1.278,35.749,35.749,0,0,1,.051,6.793,43.81,43.81,0,0,0-.05,6.007c0,.048.008.1.011.143a1.488,1.488,0,0,0,.25.852l7.731,8.861a1.465,1.465,0,0,0,1.962.332,1.445,1.445,0,0,0,.323-1.959l-.014-.025L10,167.282a1.606,1.606,0,0,1,.592-1.745,1.412,1.412,0,0,1,1.67.24,18.115,18.115,0,0,1,2.6,3.009,22.03,22.03,0,0,0,2.41,2.868,10.919,10.919,0,0,0,1.61,1.162,9.148,9.148,0,0,1,2.2,1.751c1.151,1.326,2.61,4.441,2.61,6.051v8.189h2.67v-9.079c0-2.193-2.416-6.32-3.993-7.851a11.549,11.549,0,0,0-1.815-1.347" transform="translate(0 -122.802)" fill="#445866"/>
        </g>
      </g>
    </g>
  </g>
</svg>
