<svg xmlns="http://www.w3.org/2000/svg" xmlns:xlink="http://www.w3.org/1999/xlink" width="70" height="70" viewBox="0 0 70 70">
  <defs>
    <clipPath id="clip-path">
      <rect id="Rect치ngulo_403685" data-name="Rect치ngulo 403685" width="52.85" height="42.246" fill="#445866"/>
    </clipPath>
  </defs>
  <g id="img5" transform="translate(-1230 -796.971)">
    <rect id="Rect치ngulo_401357" data-name="Rect치ngulo 401357" width="70" height="70" transform="translate(1230 796.971)" fill="#fff"/>
    <g id="Grupo_1122244" data-name="Grupo 1122244" transform="translate(1238.911 810.848)">
      <g id="Grupo_1122243" data-name="Grupo 1122243" clip-path="url(#clip-path)">
        <path id="Trazado_912352" data-name="Trazado 912352" d="M50.319,29.2c.5.342,1.515.014,2.1,1.153,1.742,3.377-2.23,4.576-4.87,4.156a7.9,7.9,0,0,1-14.09,4.714c-1.215-1.541-1.347-2.906-1.816-4.737l-10.372.023a7.9,7.9,0,0,1-15.794.008C2.951,34.4.8,33.753.292,30.977c.46-8.6-.786-18.167-.058-26.655a4.074,4.074,0,0,1,4.1-4.1c8.258-.708,17.508.551,25.872,0,3,.259,4.076,1.875,4.3,4.741.077.986-.116,2.07-.008,2.946,2.067.307,4.993-.187,6.81.974A97.364,97.364,0,0,1,49.4,16.977a4.7,4.7,0,0,1,.665,1.857c.164,1.456-.317,9.97.254,10.364M20,20.307c.247-1.148-.181-3.063,0-4.31h4.31c1.258,0,1.2-4.156.624-4.828-.731-.849-3.807-.247-4.934-.426-.2-1.21.55-4.537-.68-5.1-.645-.3-3.646-.3-4.173.141-.963.813.022,4.021-.494,4.762-.536.77-4.809-.729-5.158,1.148a19.032,19.032,0,0,0,.039,3.524c.453,1.579,4.618.256,5.119.977.564.811-.622,4.354.727,4.949.817.36,4.358.384,4.62-.836m24.806.946c-.053-.667.182-1.431-.2-2.008-.875-.525-5.384-5.77-5.793-5.77H34.3c-.056.154.21.251.21.315v6.937c0,.034-.363.526.105.526ZM17.337,34.392a3.968,3.968,0,1,0-3.968,3.968,3.968,3.968,0,0,0,3.968-3.968m26.295-.006a3.97,3.97,0,1,0-3.97,3.97,3.97,3.97,0,0,0,3.97-3.97" transform="translate(0 -0.001)" fill="#445866"/>
      </g>
    </g>
  </g>
</svg>
