<svg xmlns="http://www.w3.org/2000/svg" xmlns:xlink="http://www.w3.org/1999/xlink" width="123.001" height="123" viewBox="0 0 123.001 123">
  <defs>
    <clipPath id="clip-path">
      <rect id="Rectángulo_403457" data-name="Rectángulo 403457" width="57.851" height="57.97" fill="#445866"/>
    </clipPath>
  </defs>
  <g id="img5" transform="translate(-264.668 -6026)">
    <g id="Grupo_1099808" data-name="Grupo 1099808" transform="translate(264.668 6026)">
      <g id="Grupo_1099775" data-name="Grupo 1099775" transform="translate(0 0)">
        <g id="Grupo_1099770" data-name="Grupo 1099770" transform="translate(0 0)">
          <rect id="Rectángulo_401345" data-name="Rectángulo 401345" width="104.839" height="104.839" transform="translate(9 9.16)" fill="#fff"/>
          <path id="Sustracción_141" data-name="Sustracción 141" d="M106.183,123,0,106.181,16.822,0,123,16.819,106.183,123v0h0v0ZM23.2,8.788,8.783,99.8,99.8,114.212,114.214,23.2,23.2,8.788Z" transform="translate(0 0)" fill="#6aa7d6"/>
        </g>
      </g>
      <g id="Grupo_1099776" data-name="Grupo 1099776" transform="translate(25 24.995)">
        <g id="Grupo_1099618" data-name="Grupo 1099618" transform="translate(0 0)">
          <rect id="Rectángulo_401104" data-name="Rectángulo 401104" width="72.141" height="73.01" transform="translate(0)" fill="none"/>
        </g>
        <g id="Grupo_1100119" data-name="Grupo 1100119" transform="translate(7.145 7.52)">
          <g id="Grupo_1100118" data-name="Grupo 1100118" clip-path="url(#clip-path)">
            <path id="Trazado_873864" data-name="Trazado 873864" d="M26.643,79.832c-.051-.619,0-2.4.038-3.622.033-1.1.061-2.058.036-2.42-.249-3.653-2.556-7.237-6.5-10.1a31.867,31.867,0,0,1-1.438-4.083,27.645,27.645,0,0,0-1.7-4.632,3.67,3.67,0,0,0-4.213-2A3.822,3.822,0,0,0,10,56.828v.038l1.052,4.679c-1.19-1.71-2.261-3.441-3.186-4.975-.125-2.1-.05-4.331.023-6.488a64.972,64.972,0,0,0-.019-7.136,5.691,5.691,0,0,0-2.245-4.158,3.915,3.915,0,0,0-3.338-.935,2.456,2.456,0,0,0-1.539,1.74l-.015.048L0,59.25v.035a7.766,7.766,0,0,0,1.376,4l11.451,14.4c0,.167.012.43.026.792.016.4.04,1.017.037,1.358a1.2,1.2,0,0,0-1.3,1.077l0,.029.067,7.2.063.091a1.206,1.206,0,0,0,1.022.592c2.144-.142,4.438-.06,6.656.019,1.341.047,2.707.1,4.055.1,1.071,0,2.131-.031,3.158-.116.965-.081,1.176-.292,1.256-1.256a46.6,46.6,0,0,0,0-6.658,1.122,1.122,0,0,0-1.216-1.074m-.935,6.837H13.72V82.1H25.709ZM5.88,57.58l.011.079,6.531,9.985a1.255,1.255,0,0,0,1.42.648,1.087,1.087,0,0,0,.728-1.186l0-.039c-.284-1.564-.692-3.161-1.086-4.706-.416-1.63-.845-3.315-1.125-4.944a2.048,2.048,0,0,1,.6-2.183,1.817,1.817,0,0,1,1.969.389l3.564,9.541.09.064c1.909,1.35,4.4,3.543,5.407,6.325a13.586,13.586,0,0,1,.466,5.441c-.044.92-.089,1.868-.045,2.822H15V76.99l-.066-.094c-1.766-2.483-3.784-4.9-5.735-7.244s-3.989-4.786-5.744-7.263c-1.532-2.163-1.371-3.9-1.167-6.1.063-.68.128-1.382.153-2.16.047-1.493.068-3.053.088-4.561.041-3.042.084-6.187.335-9.131a2.575,2.575,0,0,1,.075-.493,1.8,1.8,0,0,1,.486.086,3.59,3.59,0,0,1,2.277,3,44.7,44.7,0,0,1,.047,6.871A42.161,42.161,0,0,0,5.88,57.58" transform="translate(0 -30.966)" fill="#445866"/>
            <path id="Trazado_873865" data-name="Trazado 873865" d="M194.11,57.722c-.035-.359-.068-.7-.076-1.053-.1-4.041-.251-8.144-.4-12.112q-.09-2.437-.177-4.88l0-.051-.016-.048a2.472,2.472,0,0,0-1.525-1.736,3.805,3.805,0,0,0-3.261.871,5.614,5.614,0,0,0-2.335,4.219,64.971,64.971,0,0,0-.019,7.136c.073,2.158.148,4.388.023,6.488-.923,1.531-1.992,3.259-3.18,4.967l1.021-4.5.009-.065a3.809,3.809,0,0,0-2.868-4,3.7,3.7,0,0,0-4.3,2.207,35.4,35.4,0,0,0-1.6,4.431,37.946,37.946,0,0,1-1.474,4.149c-3.855,2.705-6.207,6.357-6.458,10.033-.025.361,0,1.315.036,2.42.036,1.226.089,3,.038,3.622a1.122,1.122,0,0,0-1.216,1.074,45.878,45.878,0,0,0,0,6.658l.006.079a1.187,1.187,0,0,0,.4.986l.088.056h15.23l.1-.1a1.541,1.541,0,0,0,.456-1.008,44.194,44.194,0,0,0,0-6.515,1.193,1.193,0,0,0-1.327-1.215c-.024-.561.008-1.913.038-2.1A14.61,14.61,0,0,1,183.25,75.3a16.636,16.636,0,0,0,1.82-2.264l.013-.027a1.191,1.191,0,0,0-.209-1.4,1.232,1.232,0,0,0-1.443-.059l-.065.036-4.18,5.377V79.8h-9.4c.044-.955,0-1.9-.045-2.822a13.586,13.586,0,0,1,.466-5.441c1.01-2.781,3.5-4.974,5.407-6.325l.09-.064,3.564-9.543a1.806,1.806,0,0,1,1.93-.4,2.02,2.02,0,0,1,.663,2.1,38.237,38.237,0,0,1-1.13,4.984,42.4,42.4,0,0,0-1.11,4.776l0,.028a1.087,1.087,0,0,0,.728,1.186,1.256,1.256,0,0,0,1.42-.648l6.582-10.084.01-.084a49.1,49.1,0,0,0,.08-7.462,51.083,51.083,0,0,1,.032-6.855,3.69,3.69,0,0,1,2.024-3.022,2.264,2.264,0,0,1,.707-.208s.068.062.1.392a94.605,94.605,0,0,1,.374,9.546c.018,3.112.037,6.329.35,9.381a6.312,6.312,0,0,1-.824,2.51,18.675,18.675,0,0,1-1.935,2.4,15.374,15.374,0,0,0-2.174,2.808,1.219,1.219,0,0,0,.064,1.447,1.256,1.256,0,0,0,1.474.1l.089-.043.054-.083a25.5,25.5,0,0,1,1.926-2.452c1.583-1.859,3.219-3.782,3.457-6.235a9.845,9.845,0,0,0-.052-1.965M168.481,82.091H180.47v4.564H168.481Z" transform="translate(-136.342 -30.953)" fill="#445866"/>
            <path id="Trazado_873866" data-name="Trazado 873866" d="M271.366,209.682a1.208,1.208,0,1,0,1.208,1.208,1.209,1.209,0,0,0-1.208-1.208" transform="translate(-221.613 -172.004)" fill="#445866"/>
            <path id="Trazado_873867" data-name="Trazado 873867" d="M125.9,49.173l.028,0,.028,0a3.111,3.111,0,0,0,2.4-1.679c.521-1.146.335-5.086.1-6.213a8.9,8.9,0,0,0-3.335-5.087,6.62,6.62,0,0,1,.227-.895,5.7,5.7,0,0,0,.293-1.39,5.546,5.546,0,0,0-2.675-5.323,6.538,6.538,0,0,0-6.6.052,5.592,5.592,0,0,0-2.578,5.421,7.142,7.142,0,0,0,.351,1.374c.079.248.181.57.217.738-.126.119-.376.334-.57.5a10.681,10.681,0,0,0-.92.84c-2.236,2.641-2.364,6.344-2.079,8.985a3,3,0,0,0,2.819,2.681c.911.081,1.854.11,2.809.11,1.206,0,2.43-.046,3.632-.091a57.264,57.264,0,0,1,5.853-.024m-6.2-11.861a3.739,3.739,0,1,1,3.739-3.739,3.743,3.743,0,0,1-3.739,3.739m0,2.182a6.077,6.077,0,0,0,4.114-1.611c2.644,1.944,2.925,5.39,2.684,7.976-.082.884-.277,1.087-1.146,1.172a50.586,50.586,0,0,0-5.457.019,45.208,45.208,0,0,1-5.8-.016c-.894-.083-1.091-.281-1.175-1.175-.242-2.592.038-6.044,2.682-7.979a6.005,6.005,0,0,0,4.072,1.615Z" transform="translate(-90.792 -22.737)" fill="#445866"/>
            <path id="Trazado_873868" data-name="Trazado 873868" d="M74.844,20.945a4.207,4.207,0,0,0,2.3.679,3.77,3.77,0,0,0,.8-.082,1.1,1.1,0,0,0,.479-1.9,1.856,1.856,0,0,0-1.145-.239c-.855-.009-1.385-.057-1.512-.886a19.6,19.6,0,0,1,.032-3.569,6.819,6.819,0,0,1,2.628-4.653c.7.616,2.432,1.634,3.362,1.378a.874.874,0,0,0,.655-.791c.12-1-.744-1.326-1.374-1.561a3.463,3.463,0,0,1-.813-.382A3.592,3.592,0,0,1,79.46,3.89a3.572,3.572,0,0,1,5.028-1.124,4.407,4.407,0,0,1,.754.709c.5.539,1.017,1.1,1.584,1.106a.865.865,0,0,0,.647-.276h0a1.05,1.05,0,0,0,.285-1C87.5,2.1,85.439.7,84.77.442a5.827,5.827,0,0,0-6.488,1.38A6.189,6.189,0,0,0,77.09,8.455a9.413,9.413,0,0,0-3.455,6.255,25,25,0,0,0,.019,4.466,2.655,2.655,0,0,0,1.191,1.768" transform="translate(-60.328 0.001)" fill="#445866"/>
            <path id="Trazado_873869" data-name="Trazado 873869" d="M169.5,4.371c.9.648,1.546-.212,1.933-.726a3.515,3.515,0,0,1,3.937-1.326,4.2,4.2,0,0,1,2.7,3.186,3.445,3.445,0,0,1-1.378,3.378,3.664,3.664,0,0,1-.852.426c-.656.264-1.471.593-1.425,1.432a1.026,1.026,0,0,0,.535.961c.777.375,2.007-.42,3.2-1.265.118-.084.249-.176.326-.227.524.182,1.972,2.4,2.241,3.2a14.4,14.4,0,0,1,.378,5.213c-.138.687-.66.755-1.5.808-.639.041-1.514.1-1.556.989a1.008,1.008,0,0,0,.512.956,2.217,2.217,0,0,0,1.1.236,4.865,4.865,0,0,0,2.209-.532,3.907,3.907,0,0,0,1.045-1.073c.556-1.033.422-4.387.358-5.162a8.84,8.84,0,0,0-3.6-6.323,5.837,5.837,0,0,0-1.26-6.856A5.853,5.853,0,0,0,171.2.9c-.452.269-2.065,1.559-2.112,2.632a.945.945,0,0,0,.41.84" transform="translate(-138.703 -0.004)" fill="#445866"/>
          </g>
        </g>
      </g>
    </g>
  </g>
</svg>
